<svg xmlns="http://www.w3.org/2000/svg" version="1.1" xmlns:xlink="http://www.w3.org/1999/xlink" xmlns:svgjs="http://svgjs.com/svgjs" width="1440" height="560" preserveAspectRatio="none" viewBox="0 0 1440 560"><g mask="url(&quot;#SvgjsMask1006&quot;)" fill="none"><path d="M1239.05 481.82L1254.66 481.82L1254.66 536.47L1239.05 536.47z" fill="#037b0b"></path><path d="M1204.03 82.45a32.71 32.71 0 1 0-4.5-65.26z" fill="#e73635"></path><path d="M822.77 293.79a0.96 0.96 0 1 0 1.6 1.05z" fill="#d3b714"></path><path d="M1282.31 26.48 a2.24 2.24 0 1 0 4.48 0 a2.24 2.24 0 1 0 -4.48 0z" fill="#e73635"></path><path d="M1283.95 36.81a21.47 21.47 0 1 0 40.16 15.2z" stroke="#037b0b"></path><path d="M886.01 180.21 a11.75 11.75 0 1 0 23.5 0 a11.75 11.75 0 1 0 -23.5 0z" fill="#d3b714"></path><path d="M286.29 256.36L301.76 256.36L301.76 287.35L286.29 287.35z" fill="#e73635"></path><path d="M72 76.14L97.86 76.14L97.86 102L72 102z" fill="#e73635"></path><path d="M449.57 495.27a1.59 1.59 0 1 0 0.61-3.12z" stroke="#d3b714"></path><path d="M370.71 510.94 a31.63 31.63 0 1 0 63.26 0 a31.63 31.63 0 1 0 -63.26 0z" stroke="#e73635"></path><path d="M260.51 462.76L267.89 462.76L267.89 475.14L260.51 475.14z" stroke="#d3b714"></path><path d="M213.79 319.16L217.78 319.16L217.78 323.15L213.79 323.15z" stroke="#037b0b"></path><path d="M1292.3 58.71L1340.11 58.71L1340.11 106.27L1292.3 106.27z" fill="#037b0b"></path><path d="M183.21 275.19a55.13 55.13 0 1 0 107.5 24.52z" stroke="#037b0b"></path><path d="M899.36 217.61L920.22 217.61L920.22 238.47L899.36 238.47z" fill="#037b0b"></path><path d="M1148.4 224.64L1158.15 224.64L1158.15 234.39L1148.4 234.39z" stroke="#037b0b"></path><path d="M305.57 466.32a17.78 17.78 0 1 0 32.08-15.34z" fill="#037b0b"></path><path d="M805.09 493.26L831.78 493.26L831.78 519.95L805.09 519.95z" stroke="#037b0b"></path><path d="M355.8 511L382.42 511L382.42 537.62L355.8 537.62z" stroke="#d3b714"></path><path d="M1157.64 112.82L1206.3 112.82L1206.3 155.81L1157.64 155.81z" fill="#037b0b"></path><path d="M523.51 297a53.09 53.09 0 1 0 101.92 29.76z" stroke="#d3b714"></path><path d="M780.33 272.72L834.66 272.72L834.66 281.77L780.33 281.77z" fill="#037b0b"></path><path d="M194.2 295.97 a43.62 43.62 0 1 0 87.24 0 a43.62 43.62 0 1 0 -87.24 0z" stroke="#d3b714"></path><path d="M1317.81 4.4a24.65 24.65 0 1 0-36.38 33.26z" stroke="#037b0b"></path><path d="M230.4 240.03 a30.29 30.29 0 1 0 60.58 0 a30.29 30.29 0 1 0 -60.58 0z" stroke="#d3b714"></path><path d="M1122.8 189.53 a52.56 52.56 0 1 0 105.12 0 a52.56 52.56 0 1 0 -105.12 0z" stroke="#e73635"></path><path d="M57.41 173.5L112.51 173.5L112.51 228.6L57.41 228.6z" stroke="#037b0b"></path><path d="M373.38 12.69L419.47 12.69L419.47 47.42L373.38 47.42z" stroke="#e73635"></path><path d="M928.75 71.34a37.24 37.24 0 1 0-74.43-2.57z" fill="#d3b714"></path><path d="M1397.76 156.02a49.57 49.57 0 1 0-83.77-53.02z" stroke="#d3b714"></path><path d="M296.83 15.86L345.81 15.86L345.81 47.27L296.83 47.27z" stroke="#037b0b"></path><path d="M1399.37 77.57L1446.17 77.57L1446.17 124.37L1399.37 124.37z" stroke="#037b0b"></path><path d="M260.06 519.62 a41.07 41.07 0 1 0 82.14 0 a41.07 41.07 0 1 0 -82.14 0z" fill="#037b0b"></path></g><defs><mask id="SvgjsMask1006"><rect width="1440" height="560" fill="#ffffff"></rect></mask></defs></svg>