<svg xmlns="http://www.w3.org/2000/svg" version="1.1" xmlns:xlink="http://www.w3.org/1999/xlink" xmlns:svgjs="http://svgjs.com/svgjs" width="1440" height="560" preserveAspectRatio="none" viewBox="0 0 1440 560"><g mask="url(&quot;#SvgjsMask1002&quot;)" fill="none"><path d="M140 70C105.96 103.24 79.99 98.53 75.38 140C68.32 203.53 91.68 212 116.67 280C123.99 299.91 128.99 315.81 140 315.81C150.53 315.81 149.57 297.74 159.74 280C199.97 209.83 197.12 207.79 240.8 140C257.25 114.46 253.77 106.84 280 93.33C343.37 60.7 357.38 80.9 420 47.73C445.48 34.23 430.59 8.73 456.21 0C500.59 -15.13 508.11 0 560 0C630 0 630 0 700 0C759.35 0 763.91 -9.84 818.7 0C833.91 2.73 827.91 25.13 840 25.13C855.45 25.13 853.92 3.57 873.79 0C923.92 -9 926.89 0 980 0C1050 0 1050 0 1120 0C1190 0 1190 0 1260 0C1316.2 0 1364.66 -29 1372.39 0C1383.32 41 1340.77 75.07 1297.33 140C1284.57 159.07 1269.59 147.9 1260 168C1236.19 217.9 1230.53 226.55 1230.53 280C1230.53 304.09 1238.45 309.73 1260 323.08C1323.19 362.23 1332.44 390.74 1400 385C1472.44 378.85 1499.66 289.23 1540 299.31C1569.66 306.73 1540 359.65 1540 420C1540 469.3 1568.85 495.51 1540 518.59C1498.85 551.51 1469.96 532.42 1400 532C1329.96 531.58 1325.26 507.6 1260 516.92C1227.26 521.6 1235.98 550.16 1204 560C1165.98 571.7 1162 560 1120 560C1084.26 560 1076.99 575.98 1048.51 560C1006.99 536.71 1014.05 481.46 980 481.46C946.26 481.46 953.95 536.98 912.92 560C883.95 576.25 876.46 560 840 560C786.97 560 784.16 568.73 733.94 560C714.16 556.56 716.13 548.9 700 535.65C630.95 478.9 631.66 477.97 563.59 420C561.66 418.35 562.14 416.41 560 416.41C556.22 416.41 553.04 415.79 551.76 420C531.23 487.59 555.9 518.02 516.39 560C490.02 588.02 468.19 560 420 560C357.44 560 356.3 564.04 294.89 560C286.3 559.43 288.37 553.21 280 550.79C210.93 530.87 207.52 512.54 140 515.32C95.52 517.15 100.06 545.94 56 560C30.06 568.28 8 580 0 560C-20 510 0 490 0 420C0 350 0 350 0 280C0 210 0 210 0 140C0 70 -35 35 0 0C35 -35 70 0 140 0C179.38 0 218.75 -14.97 218.75 0C218.75 20.03 177.65 33.24 140 70" stroke="rgba(247, 185, 71, 0.78)" stroke-width="2"></path><path d="M1120 136.16C1116.69 136.16 1114.4 137.97 1114.4 140C1114.4 142.15 1116.52 144.52 1120 144.52C1142.66 144.52 1166.67 142.09 1166.67 140C1166.67 137.91 1142.83 136.16 1120 136.16" stroke="rgba(247, 185, 71, 0.78)" stroke-width="2"></path><path d="M1420.53 140C1395.09 80.74 1393.49 38.67 1426.49 0C1453.22 -31.33 1514.59 -31.34 1540 0C1571.34 38.66 1540 70 1540 140C1540 202.22 1565.03 264.44 1540 264.44C1505.3 264.44 1451.85 212.96 1420.53 140" stroke="rgba(247, 185, 71, 0.78)" stroke-width="2"></path><path d="M840 394.55C828.54 394.55 820.91 407.13 820.91 420C820.91 433.41 828.42 447.1 840 447.1C855.46 447.1 875 433.29 875 420C875 407.01 855.59 394.55 840 394.55" stroke="rgba(247, 185, 71, 0.78)" stroke-width="2"></path><path d="M120.78 0C120.78 38.07 34.94 128.33 0 128.33C-25.45 128.33 -31.11 33.05 0 0C29.28 -31.11 120.78 -26.09 120.78 0" stroke="rgba(247, 185, 71, 0.78)" stroke-width="2"></path><path d="M394.55 140C407.79 134.82 410.78 137.85 420 127.27C471.78 67.85 461.52 50.03 516.55 0C531.52 -13.61 538.28 0 560 0C630 0 630 0 700 0C721.31 0 727.17 -12.67 742.61 0C797.17 44.77 784.47 111.09 840 114.87C903.17 119.17 912.88 68.05 980 16.15C987.16 10.61 980.02 0.99 988.57 0C1050.02 -7.09 1054.28 0 1120 0C1190 0 1190 0 1260 0C1291.55 0 1323.1 -15.82 1323.1 0C1323.1 26.45 1303.63 65.58 1260 84.53C1202.08 109.69 1185.16 71.45 1120 88.22C1077.36 99.19 1044.4 112.63 1044.4 140C1044.4 169.01 1085.84 166.83 1120 200.97C1155.87 236.83 1154.18 239.03 1184.47 280C1224.18 333.73 1216.54 341.17 1260 390.38C1278.37 411.17 1308.13 405.19 1308.13 420C1308.13 434.81 1283.56 434.03 1260 449.62C1189.5 496.25 1177.76 552.41 1120 544.44C1070.43 537.6 1092.84 469.45 1045.33 420C1022.84 396.58 1008.57 417 980 398.7C905.91 351.24 902.06 282.94 840 288.48C782.74 293.59 793.28 356.55 741.36 420C723.28 442.09 721.27 459.57 700 459.57C677.26 459.57 675.5 441.05 653.33 420C605.5 374.6 616.34 344.57 560 326.67C499.68 307.51 472.59 315.75 420 345.88C391.13 362.42 397.09 383.75 397.09 420C397.09 445.04 409.16 443.95 420 468.46C440.12 513.95 459.02 527.12 459.02 560C459.02 572.89 439.51 560 420 560C394.68 560 392.13 568.99 369.36 560C322.13 541.36 326.53 528.91 280 504.74C211.85 469.34 212.98 452.51 140 440.85C72.98 430.14 54.56 468.12 0 460C-15.44 457.7 0 440 0 420C0 350 0 350 0 280C0 218.24 -14.97 156.47 0 156.47C16.85 156.47 28.76 220.02 63.64 280C98.76 340.39 103.98 397.21 140 397.21C174.47 397.21 168.23 335.94 204.62 280C238.23 228.33 232.2 217.23 280 182C327.17 147.23 337.79 162.19 394.55 140" stroke="rgba(247, 185, 71, 0.78)" stroke-width="2"></path><path d="M1467.2 140C1448.28 78.34 1449.06 47.54 1473.78 0C1485.46 -22.46 1529.37 -22.48 1540 0C1562.48 47.52 1540 70 1540 140C1540 177.92 1555.25 215.83 1540 215.83C1518.85 215.83 1481.39 186.25 1467.2 140" stroke="rgba(247, 185, 71, 0.78)" stroke-width="2"></path><path d="M1463.91 420C1463.91 391.65 1516.53 359.66 1540 359.66C1554.58 359.66 1540 389.83 1540 420C1540 444.65 1553.4 469.3 1540 469.3C1515.36 469.3 1463.91 446.47 1463.91 420" stroke="rgba(247, 185, 71, 0.78)" stroke-width="2"></path><path d="M52.16 0C52.16 16.44 15.09 55.42 0 55.42C-10.99 55.42 -13.44 14.27 0 0C12.64 -13.44 52.16 -11.27 52.16 0" stroke="rgba(247, 185, 71, 0.78)" stroke-width="2"></path><path d="M525 140C525 106.16 538.01 70 560 70C586.13 70 621.25 107.33 621.25 140C621.25 168.12 587.06 191.58 560 191.58C538.94 191.58 525 166.95 525 140" stroke="rgba(247, 185, 71, 0.78)" stroke-width="2"></path><path d="M1120 40.27C1086.22 37.15 1060 11 1060 0C1060 -9.13 1090 0 1120 0C1190 0 1190 0 1260 0C1266.9 0 1273.8 -3.46 1273.8 0C1273.8 5.78 1270.77 15.67 1260 18.49C1193.87 35.81 1186.22 46.39 1120 40.27" stroke="rgba(247, 185, 71, 0.78)" stroke-width="2"></path><path d="M1513.87 140C1506.42 74.12 1509.57 61.68 1521.08 0C1522.63 -8.32 1538.87 -8.33 1540 0C1548.33 61.67 1540 70 1540 140C1540 153.61 1545.48 167.22 1540 167.22C1532.41 167.22 1515.88 157.73 1513.87 140" stroke="rgba(247, 185, 71, 0.78)" stroke-width="2"></path><path d="M0 259.41C2.81 259.41 10.61 269.37 10.61 280C10.61 294.25 2.73 309.17 0 309.17C-2.57 309.17 0 294.59 0 280C0 269.71 -2.5 259.41 0 259.41" stroke="rgba(247, 185, 71, 0.78)" stroke-width="2"></path><path d="M249.49 280C259.06 257.19 260.73 240.33 280 240.33C310.98 240.33 340.29 247.36 350 280C367.01 337.19 357.29 359.14 333.45 420C322.29 448.48 308.2 458.68 280 458.68C243.79 458.68 210.2 452.66 204.62 420C194.94 363.32 221.37 347.02 249.49 280" stroke="rgba(247, 185, 71, 0.78)" stroke-width="2"></path><path d="M680 280C680 267.87 691.61 254.55 700 254.55C707.21 254.55 711.2 267.54 711.2 280C711.2 290.27 706.98 300 700 300C691.38 300 680 290.6 680 280" stroke="rgba(247, 185, 71, 0.78)" stroke-width="2"></path><path d="M927.03 280C927.03 225.3 937.84 162.43 980 157.5C1034.33 151.14 1052.27 205.04 1120 257.42C1131.48 266.29 1138.42 267.12 1138.42 280C1138.42 304.33 1142.31 325.85 1120 331.85C1063.1 347.15 1044.99 340.07 980 322.61C948.51 314.15 927.03 307.86 927.03 280" stroke="rgba(247, 185, 71, 0.78)" stroke-width="2"></path></g><defs><mask id="SvgjsMask1002"><rect width="1440" height="560" fill="#ffffff"></rect></mask></defs></svg>