<svg width="598" height="730" viewBox="0 0 598 730" fill="none" xmlns="http://www.w3.org/2000/svg">
<path d="M217.621 239.869C203.179 239.869 188.758 239.611 174.359 239.094C153.784 238.355 132.509 237.592 112.734 226.627C98.9008 218.958 86.6494 206.653 77.3046 191.042C71.0586 180.461 66.4788 168.982 63.7261 157.008C58.5911 135.208 58.766 112.494 64.2361 90.7756C66.153 83.3292 68.7956 76.0887 72.126 69.158C86.5468 39.3037 112.849 19.2633 144.289 14.1758C144.549 14.1422 144.812 14.1366 145.073 14.1591C145.214 14.1667 145.355 14.1748 145.499 14.1688L145.684 14.11C146.158 13.9452 146.645 13.8203 147.14 13.7364C195.629 6.51979 246.889 21.1215 295.374 55.9619C332.863 82.904 382.547 97.4119 447.264 100.315L448.183 100.363C466.198 101.397 483.625 108.823 498.58 121.837C513.342 134.682 524.425 151.82 530.632 171.399C531.395 173.786 532.095 176.271 532.711 178.784C533.285 181.119 533.245 183.563 532.594 185.878C531.943 188.193 530.703 190.301 528.996 191.995V192L528.835 192.165C528.447 192.551 528.039 192.921 527.622 193.265L527.131 193.67C522.995 197.076 519.728 199.766 515.819 201.856C513.211 203.24 510.438 204.287 507.566 204.971C491.795 208.815 475.78 212.378 459.965 215.564C429.25 221.755 397.727 226.862 366.27 230.743C316.953 236.822 267.311 239.87 217.621 239.869ZM144.705 15.2165C144.608 15.2156 144.512 15.2221 144.416 15.2361C113.27 20.276 87.2164 40.1196 72.9386 69.6784C69.6411 76.5404 67.0246 83.7092 65.1267 91.0818C59.7065 112.608 59.5337 135.12 64.6231 156.726C67.3489 168.586 71.8843 179.955 78.0699 190.435C87.3233 205.893 99.4494 218.074 113.138 225.663C132.735 236.529 153.91 237.289 174.388 238.024C238.435 240.312 302.564 237.521 366.17 229.679C397.607 225.801 429.11 220.697 459.804 214.509C475.609 211.327 491.613 207.765 507.373 203.924C510.176 203.257 512.883 202.236 515.427 200.885C519.258 198.838 522.494 196.173 526.59 192.799L527.08 192.395C527.439 192.099 527.792 191.782 528.129 191.453L528.225 191.352C531.591 187.96 532.9 183.485 531.817 179.075C531.207 176.588 530.515 174.13 529.759 171.767C517.08 131.772 484.279 103.507 448.138 101.432L447.224 101.384C417.662 100.058 391.793 96.384 368.143 90.1522C339.909 82.7132 315.261 71.5151 294.882 56.8695C246.581 22.1627 195.536 7.6153 147.258 14.7977C146.807 14.8754 146.364 14.9904 145.932 15.1415L145.598 15.2348C145.409 15.2433 145.219 15.241 145.03 15.228C144.918 15.2222 144.81 15.2165 144.705 15.2165Z" fill="#FFF8D9"/>
<path d="M120.612 179.789C135.688 179.789 147.909 167.571 147.909 152.499C147.909 137.428 135.688 125.21 120.612 125.21C105.537 125.21 93.3154 137.428 93.3154 152.499C93.3154 167.571 105.537 179.789 120.612 179.789Z" fill="#FFF8D9"/>
<path d="M294.564 54.5787C309.639 54.5787 321.861 42.3608 321.861 27.2893C321.861 12.2179 309.639 0 294.564 0C279.488 0 267.267 12.2179 267.267 27.2893C267.267 42.3608 279.488 54.5787 294.564 54.5787Z" fill="#FFF8D9"/>
<path d="M511.333 184.069C526.409 184.069 538.63 171.852 538.63 156.78C538.63 141.709 526.409 129.491 511.333 129.491C496.258 129.491 484.036 141.709 484.036 156.78C484.036 171.852 496.258 184.069 511.333 184.069Z" fill="#FFF8D9"/>
<path d="M343.805 30.2656V92.1461C343.805 93.4314 343.298 94.6649 342.394 95.5786C341.489 96.4922 340.261 97.0123 338.975 97.0257C338.958 97.0275 338.94 97.0283 338.922 97.0279H331.718C325.954 97.0279 320.425 94.7387 316.35 90.6639C312.274 86.5891 309.984 81.0626 309.984 75.3V30.2656C309.984 28.9708 310.498 27.7291 311.414 26.8136C312.33 25.8981 313.572 25.3838 314.867 25.3838H317.786C316.434 29.3277 334.788 30.9881 335.796 25.3838H338.922C340.217 25.3838 341.459 25.8981 342.375 26.8136C343.291 27.7292 343.805 28.9709 343.805 30.2656Z" fill="#F9D126"/>
<path d="M322.426 20.7565C322.426 20.5869 322.494 20.4242 322.614 20.3043C322.734 20.1844 322.897 20.1169 323.066 20.1167H327.418C327.587 20.1172 327.75 20.1848 327.869 20.3047C327.989 20.4247 328.056 20.5871 328.056 20.7565C328.056 20.9258 327.989 21.0883 327.869 21.2082C327.75 21.3281 327.587 21.3958 327.418 21.3962H323.066C322.897 21.396 322.734 21.3286 322.614 21.2087C322.494 21.0887 322.426 20.9261 322.426 20.7565Z" fill="#3F3D56"/>
<path d="M340.417 104.877H312.898C310.762 104.875 308.715 104.026 307.206 102.516C305.696 101.007 304.847 98.9608 304.844 96.8263V53.5693C304.693 53.4608 304.57 53.3179 304.485 53.1523C304.4 52.9868 304.356 52.8035 304.357 52.6175V48.267C304.356 48.0811 304.4 47.8978 304.485 47.7323C304.57 47.5668 304.693 47.4239 304.844 47.3155V46.1479C304.693 46.0394 304.57 45.8965 304.485 45.7311C304.4 45.5656 304.356 45.3823 304.357 45.1963V40.8456C304.356 40.6597 304.4 40.4763 304.485 40.3109C304.57 40.1454 304.693 40.0025 304.844 39.8941V37.7838C304.658 37.6836 304.502 37.5346 304.393 37.3527C304.285 37.1708 304.228 36.9629 304.228 36.7512V32.4008C304.228 32.189 304.285 31.9811 304.393 31.7991C304.502 31.6172 304.658 31.4682 304.844 31.3679V25.5855C304.847 23.451 305.696 21.4046 307.206 19.8953C308.715 18.386 310.762 17.5371 312.898 17.5347H340.417C342.552 17.5371 344.599 18.3861 346.109 19.8954C347.619 21.4047 348.468 23.451 348.47 25.5855V38.19C348.615 38.2807 348.735 38.4068 348.818 38.5564C348.901 38.706 348.944 38.8741 348.944 39.0452V47.3406C348.944 47.5116 348.901 47.6799 348.818 47.8295C348.735 47.9791 348.615 48.1052 348.47 48.196V96.8263C348.468 98.9608 347.619 101.007 346.109 102.516C344.599 104.026 342.552 104.875 340.417 104.877ZM312.898 18.6048C311.046 18.6069 309.271 19.343 307.962 20.6517C306.653 21.9604 305.917 23.7347 305.915 25.5855V32.2783L305.4 32.2981C305.373 32.2991 305.348 32.3102 305.329 32.3293C305.31 32.3485 305.299 32.374 305.299 32.4008V36.7512C305.299 36.7779 305.31 36.8035 305.329 36.8225C305.348 36.8416 305.373 36.8528 305.4 36.8539L305.915 36.8735V40.6454L305.507 40.7458C305.485 40.7512 305.465 40.764 305.45 40.782C305.436 40.8001 305.427 40.8224 305.427 40.8456V45.1963C305.427 45.2195 305.436 45.2418 305.45 45.2599C305.465 45.2779 305.485 45.2907 305.507 45.2961L305.915 45.3964V48.0669L305.507 48.1672C305.485 48.1726 305.465 48.1854 305.45 48.2034C305.436 48.2215 305.427 48.2438 305.427 48.267V52.6175C305.427 52.6407 305.436 52.6631 305.45 52.6812C305.465 52.6993 305.485 52.7121 305.507 52.7175L305.915 52.8179V96.8263C305.917 98.6771 306.653 100.451 307.962 101.76C309.271 103.069 311.046 103.805 312.898 103.807H340.417C342.268 103.805 344.043 103.069 345.352 101.76C346.661 100.451 347.398 98.677 347.4 96.8263V47.2797H347.874V39.1063H347.4V25.5855C347.398 23.7347 346.661 21.9604 345.352 20.6517C344.043 19.3431 342.268 18.6069 340.417 18.6048L312.898 18.6048Z" fill="#3F3D56"/>
<path d="M329.85 21.3962C330.203 21.3962 330.49 21.1098 330.49 20.7565C330.49 20.4031 330.203 20.1167 329.85 20.1167C329.496 20.1167 329.21 20.4031 329.21 20.7565C329.21 21.1098 329.496 21.3962 329.85 21.3962Z" fill="#3F3D56"/>
<path d="M190.638 144.689H119.03C118.013 144.686 117.039 144.281 116.32 143.563C115.6 142.844 115.195 141.87 115.193 140.853V105.971C115.195 104.955 115.6 103.98 116.319 103.262C117.038 102.543 118.013 102.138 119.03 102.135H190.637C191.654 102.137 192.628 102.542 193.348 103.261C194.067 103.98 194.472 104.954 194.475 105.971V140.852C194.472 141.869 194.067 142.843 193.348 143.562C192.629 144.281 191.654 144.686 190.638 144.689Z" fill="white"/>
<path d="M190.638 144.689H119.03C118.013 144.686 117.039 144.281 116.32 143.563C115.6 142.844 115.195 141.87 115.193 140.853V105.971C115.195 104.955 115.6 103.98 116.319 103.262C117.038 102.543 118.013 102.138 119.03 102.135H190.637C191.654 102.137 192.628 102.542 193.348 103.261C194.067 103.98 194.472 104.954 194.475 105.971V140.852C194.472 141.869 194.067 142.843 193.348 143.562C192.629 144.281 191.654 144.686 190.638 144.689ZM119.03 103.205C118.297 103.207 117.594 103.499 117.076 104.018C116.557 104.536 116.265 105.239 116.263 105.972V140.852C116.265 141.586 116.557 142.288 117.076 142.806C117.595 143.325 118.297 143.617 119.031 143.619H190.637C191.37 143.617 192.073 143.325 192.591 142.806C193.11 142.288 193.402 141.585 193.404 140.852V105.971C193.402 105.238 193.11 104.536 192.591 104.017C192.073 103.499 191.37 103.207 190.637 103.205L119.03 103.205Z" fill="#3F3D56"/>
<path d="M158.672 139.534C144.549 139.534 129.823 139.399 124.329 139.311C123.606 139.296 122.917 138.999 122.41 138.484C121.903 137.969 121.618 137.275 121.615 136.553V107.679C121.616 107.42 121.718 107.172 121.901 106.988C122.084 106.805 122.332 106.702 122.591 106.701H187.074C187.333 106.701 187.581 106.804 187.764 106.987C187.947 107.169 188.051 107.417 188.052 107.676V127.267C188.04 130.464 186.774 133.53 184.527 135.806C182.28 138.082 179.23 139.387 176.032 139.441C170.911 139.508 164.848 139.534 158.672 139.534Z" fill="#F9D126"/>
<path d="M183.246 125.467H124.981C124.493 125.466 124.018 125.314 123.619 125.033C123.22 124.752 122.917 124.355 122.752 123.896L116.157 105.4C116.03 105.043 115.991 104.661 116.042 104.286C116.093 103.911 116.234 103.554 116.452 103.244C116.67 102.934 116.959 102.681 117.295 102.507C117.631 102.332 118.004 102.24 118.383 102.24L191.213 102.138C191.56 102.138 191.902 102.213 192.216 102.36C192.529 102.506 192.807 102.719 193.03 102.984C193.252 103.249 193.414 103.56 193.503 103.894C193.592 104.229 193.607 104.579 193.547 104.919L193.603 104.943L193.394 105.431L193.392 105.436L185.419 124.033C185.238 124.459 184.935 124.822 184.549 125.077C184.162 125.332 183.709 125.467 183.246 125.467ZM191.217 103.208L118.385 103.31C118.177 103.31 117.973 103.36 117.789 103.456C117.605 103.552 117.446 103.69 117.327 103.86C117.208 104.029 117.131 104.225 117.102 104.431C117.074 104.636 117.096 104.845 117.166 105.041L123.76 123.536C123.851 123.788 124.017 124.005 124.235 124.159C124.454 124.313 124.714 124.396 124.982 124.397H183.246C183.5 124.397 183.747 124.323 183.959 124.183C184.17 124.044 184.336 123.845 184.435 123.612L192.408 105.014L192.8 105.182L192.408 105.014C192.492 104.817 192.527 104.602 192.508 104.389C192.489 104.175 192.417 103.97 192.299 103.791C192.181 103.612 192.02 103.465 191.831 103.363C191.642 103.262 191.431 103.208 191.217 103.208Z" fill="#3F3D56"/>
<path d="M154.725 129.493C157.245 129.493 159.287 127.451 159.287 124.932C159.287 122.413 157.245 120.371 154.725 120.371C152.205 120.371 150.163 122.413 150.163 124.932C150.163 127.451 152.205 129.493 154.725 129.493Z" fill="white"/>
<path d="M327.07 89.8966C329.59 89.8966 331.633 87.8545 331.633 85.3355C331.633 82.8165 329.59 80.7744 327.07 80.7744C324.551 80.7744 322.508 82.8165 322.508 85.3355C322.508 87.8545 324.551 89.8966 327.07 89.8966Z" fill="white"/>
<path d="M499.628 151.493L487.441 139.465C486.847 138.875 486.143 138.407 485.369 138.09C484.595 137.772 483.765 137.61 482.929 137.613H482.886C482.042 137.616 481.208 137.785 480.431 138.112C479.654 138.439 478.949 138.917 478.358 139.518C475.633 142.275 474.083 145.981 474.034 149.857C473.985 153.732 475.441 157.476 478.095 160.301C478.224 160.44 478.358 160.574 478.491 160.708C479.233 161.444 480.051 162.099 480.932 162.661C483.341 164.217 486.151 165.04 489.02 165.031H489.11C491.079 165.024 493.027 164.627 494.842 163.863C496.656 163.099 498.301 161.983 499.681 160.579C500.877 159.366 501.543 157.728 501.533 156.025C501.523 154.322 500.838 152.692 499.628 151.493ZM498.921 159.825C496.659 162.104 493.679 163.533 490.485 163.872C487.291 164.211 484.078 163.44 481.387 161.687C480.617 161.178 479.899 160.595 479.241 159.948C476.615 157.355 475.126 153.825 475.103 150.136C475.08 146.446 476.524 142.898 479.118 140.273C479.611 139.77 480.199 139.371 480.847 139.099C481.496 138.826 482.193 138.685 482.896 138.684H482.929C483.625 138.681 484.316 138.816 484.961 139.08C485.605 139.345 486.192 139.734 486.686 140.225L498.873 152.259C499.882 153.256 500.454 154.613 500.463 156.032C500.472 157.45 499.917 158.814 498.921 159.825Z" fill="#3F3D56"/>
<path d="M459.641 112.015L447.453 99.9808C446.254 98.7909 444.631 98.1252 442.941 98.1294H442.904C442.059 98.1328 441.224 98.3034 440.446 98.6312C439.668 98.9591 438.962 99.4378 438.37 100.04C436.118 102.327 434.657 105.275 434.202 108.453C433.748 111.631 434.323 114.871 435.844 117.697L435.849 117.703C436.477 118.859 437.256 119.926 438.167 120.876C438.269 120.994 438.386 121.111 438.504 121.229C441.303 124.006 445.089 125.561 449.032 125.552H449.129C451.098 125.544 453.046 125.146 454.86 124.381C456.674 123.616 458.319 122.499 459.699 121.095C460.292 120.495 460.761 119.784 461.078 119.003C461.396 118.222 461.557 117.386 461.551 116.543C461.546 115.7 461.374 114.866 461.046 114.089C460.719 113.312 460.241 112.607 459.641 112.015V112.015ZM458.934 120.346C457.653 121.649 456.126 122.685 454.442 123.395C452.759 124.105 450.951 124.475 449.123 124.482H449.032C446.288 124.481 443.605 123.669 441.321 122.148C439.037 120.626 437.254 118.464 436.196 115.932C435.139 113.4 434.853 110.612 435.376 107.919C435.899 105.225 437.207 102.746 439.136 100.794C440.134 99.7856 441.491 99.2141 442.91 99.205C444.329 99.196 445.693 99.7502 446.704 100.746L458.891 112.775C459.9 113.774 460.47 115.132 460.478 116.552C460.486 117.971 459.931 119.336 458.934 120.346L458.934 120.346Z" fill="#3F3D56"/>
<path d="M500.407 155.275L486.971 142.009C486.09 141.141 484.9 140.657 483.663 140.665C482.426 140.673 481.243 141.171 480.373 142.05C479.284 143.149 478.423 144.452 477.838 145.885C477.254 147.317 476.958 148.851 476.966 150.398C476.975 151.945 477.289 153.475 477.889 154.9C478.49 156.326 479.366 157.619 480.467 158.706C481.568 159.794 482.872 160.653 484.306 161.236C485.739 161.819 487.274 162.113 488.821 162.103C490.368 162.092 491.899 161.777 493.324 161.175C494.749 160.573 496.042 159.696 497.128 158.594L500.407 155.275Z" fill="#F9D126"/>
<path d="M460.422 115.794L446.986 102.528C446.105 101.66 444.915 101.176 443.678 101.184C442.441 101.192 441.258 101.69 440.388 102.569C439.299 103.668 438.438 104.971 437.853 106.404C437.269 107.836 436.973 109.37 436.981 110.917C436.99 112.464 437.304 113.994 437.904 115.419C438.505 116.845 439.381 118.138 440.482 119.226C441.583 120.313 442.887 121.172 444.321 121.755C445.754 122.338 447.289 122.632 448.836 122.622C450.383 122.611 451.914 122.296 453.339 121.694C454.764 121.092 456.057 120.215 457.143 119.113L460.422 115.794Z" fill="#F9D126"/>
<path d="M485.642 163.538L485.321 164.384C483.812 163.811 482.349 163.237 480.932 162.661C455.84 152.424 443.862 140.444 435.849 117.703L435.844 117.697C435.464 116.627 435.095 115.532 434.736 114.412L435.582 114.139C435.864 115.216 436.278 116.255 436.813 117.232C437.252 118.479 437.703 119.693 438.167 120.876C445.698 140.069 456.804 151.039 478.095 160.301C479.166 160.767 480.263 161.228 481.387 161.687C482.692 162.537 484.13 163.163 485.642 163.538Z" fill="#3F3D56"/>
<path d="M447.23 124.578L446.478 125.34L474.277 152.789L475.029 152.027L447.23 124.578Z" fill="#3F3D56"/>
<path d="M222.833 574.943L154.079 688.413L154.221 699.941C149.193 699.98 144.212 699.896 139.279 699.689L142.701 551.503L142.607 550.362L142.733 550.142L143.056 536.136L67.6132 426.6L142.969 525.655L143.237 528.614L145.817 416.654L80.6511 303.097L146.006 396.991L145.558 245.571L145.416 196H146.077L147.249 245.571L149.673 347.837L209.056 273.575L149.862 363.582L151.16 463.731L205.814 365.989L151.365 478.453L152.081 534.137L231.559 397.99L152.325 553.565L153.938 677.39L222.833 574.943Z" fill="#E6E6E6"/>
<path d="M536.854 541.197L515.098 583.914L460.593 690.925H448.083L448.35 679.342L382.625 583.914L372.908 569.806L383.64 583.914L448.264 668.862L448.531 671.82L450.561 583.914L451.112 559.861L385.946 446.303L451.301 540.197L450.616 308.244V307.473L450.64 308.236L454.967 491.043L514.35 416.781L455.156 506.788L456.156 583.914L456.455 606.937L469.327 583.914L511.109 509.196L474.93 583.914L456.659 621.659L457.375 677.344L511.919 583.914L536.854 541.197Z" fill="#E6E6E6"/>
<path d="M503.413 689.422C503.413 699.315 411.82 729.018 298.835 729.018C185.849 729.018 94.2557 699.315 94.2557 689.422C94.2557 679.529 185.849 693.193 298.835 693.193C411.82 693.193 503.413 679.529 503.413 689.422Z" fill="#3F3D56"/>
<path opacity="0.2" d="M503.413 689.422C503.413 699.315 411.82 729.018 298.835 729.018C185.849 729.018 94.2557 699.315 94.2557 689.422C94.2557 679.529 185.849 693.193 298.835 693.193C411.82 693.193 503.413 679.529 503.413 689.422Z" fill="black"/>
<path d="M298.835 707.338C411.82 707.338 503.413 699.318 503.413 689.425C503.413 679.532 411.82 671.513 298.835 671.513C185.849 671.513 94.2557 679.532 94.2557 689.425C94.2557 699.318 185.849 707.338 298.835 707.338Z" fill="#3F3D56"/>
<path opacity="0.2" d="M297.261 699.085C343.759 699.085 381.453 695.562 381.453 691.217C381.453 686.871 343.759 683.348 297.261 683.348C250.763 683.348 213.069 686.871 213.069 691.217C213.069 695.562 250.763 699.085 297.261 699.085Z" fill="black"/>
<path d="M461.225 510.448H369.259V511.031H149.337V542.898C149.337 624.813 215.742 691.217 297.656 691.217H297.657C323.581 691.228 349.055 684.44 371.536 671.531C394.018 658.621 412.721 640.043 425.78 617.648H461.225C475.441 617.648 489.074 612.001 499.126 601.949C509.178 591.897 514.825 578.264 514.825 564.048C514.825 549.832 509.178 536.199 499.126 526.147C489.074 516.095 475.441 510.448 461.225 510.448ZM461.225 601.124H434.105C441.962 582.719 446.001 562.91 445.976 542.898V526.972H461.225C471.058 526.972 480.489 530.878 487.442 537.831C494.395 544.784 498.301 554.215 498.301 564.048C498.301 573.881 494.395 583.312 487.442 590.265C480.489 597.218 471.058 601.124 461.225 601.124Z" fill="#3F3D56"/>
<path d="M163.105 524.797V542.895C163.105 617.086 223.464 677.445 297.655 677.445C371.846 677.445 432.205 617.086 432.205 542.895V524.797H163.105Z" fill="#F9D126"/>
<path d="M262.474 652.789L231.67 621.043C228.562 617.839 226.853 613.532 226.92 609.068C226.988 604.605 228.825 600.351 232.029 597.242L278.618 552.037C279.728 550.96 281.039 550.11 282.476 549.536L292.595 545.492C294.778 544.62 297.171 544.416 299.469 544.906C301.768 545.397 303.869 546.559 305.506 548.246L337.673 581.398C339.26 583.033 340.342 585.091 340.79 587.325C341.238 589.559 341.032 591.875 340.199 593.996L336.795 602.652C336.176 604.225 335.229 605.647 334.016 606.823L286.274 653.148C283.071 656.256 278.763 657.965 274.3 657.898C269.836 657.83 265.582 655.993 262.474 652.789Z" fill="#E6E6E6"/>
<path d="M324.924 575.978L309.96 560.556L307.646 562.801L322.611 578.223L324.924 575.978Z" fill="#3F3D56"/>
<path d="M317.747 570.2C320.471 563.738 328.587 562.346 334.624 561.065C341.042 559.703 348.351 557.333 351.017 550.659C351.592 549.293 351.815 547.804 351.664 546.329C351.514 544.854 350.995 543.441 350.155 542.219C348.587 539.969 345.945 538.138 343.089 538.394C337.113 538.929 336.048 545.988 338.332 550.442C341.413 556.455 349.328 556.979 355.251 557.127C360.972 557.271 367.112 557.051 372.34 554.466C374.803 553.268 376.862 551.375 378.262 549.02C379.662 546.666 380.343 543.954 380.22 541.218C380.036 535.444 377.489 530.058 375.968 524.572C374.506 519.299 374.046 513.452 377.938 509.066C381.709 504.817 387.653 503.139 393.072 502.282C394.464 502.062 395.864 501.912 397.268 501.799C398.772 501.678 398.785 499.316 397.268 499.438C387.22 500.246 374.052 503.708 372.609 515.574C371.949 520.998 373.998 526.349 375.652 531.412C377.189 536.119 378.987 541.54 377.02 546.394C374.956 551.491 369.611 553.564 364.548 554.342C361.818 554.719 359.062 554.868 356.308 554.788C353.116 554.871 349.927 554.551 346.816 553.834C344.151 553.103 341.581 551.704 340.318 549.146C339.389 547.267 339.092 544.732 340.133 542.834C340.406 542.349 340.774 541.924 341.217 541.587C341.659 541.249 342.165 541.005 342.705 540.871C343.245 540.736 343.806 540.712 344.355 540.802C344.904 540.892 345.429 541.094 345.898 541.394C347.038 542.03 347.969 542.984 348.579 544.139C349.188 545.294 349.45 546.602 349.331 547.902C348.468 554.589 340.823 557.275 335.227 558.522C329.063 559.896 322.107 560.903 317.704 565.947C316.769 567.027 316.014 568.251 315.47 569.572C315.389 569.874 315.43 570.196 315.585 570.468C315.739 570.739 315.994 570.939 316.295 571.024C316.596 571.1 316.915 571.056 317.186 570.903C317.456 570.749 317.657 570.498 317.747 570.2Z" fill="#3F3D56"/>
<path d="M222.512 560.599C227.293 560.599 231.168 556.724 231.168 551.943C231.168 547.163 227.293 543.288 222.512 543.288C217.732 543.288 213.857 547.163 213.857 551.943C213.857 556.724 217.732 560.599 222.512 560.599Z" fill="#E6E6E6"/>
<path d="M381.451 592.859C386.231 592.859 390.106 588.984 390.106 584.204C390.106 579.424 386.231 575.549 381.451 575.549C376.671 575.549 372.796 579.424 372.796 584.204C372.796 588.984 376.671 592.859 381.451 592.859Z" fill="#E6E6E6"/>
<path d="M338.178 636.14C341.654 636.14 344.472 633.322 344.472 629.845C344.472 626.369 341.654 623.55 338.178 623.55C334.701 623.55 331.883 626.369 331.883 629.845C331.883 633.322 334.701 636.14 338.178 636.14Z" fill="#E6E6E6"/>
<path d="M113.786 686.678C139.49 692.412 167.858 688.176 167.858 688.176C167.858 688.176 154.55 674.642 128.846 668.908C103.141 663.174 74.7737 667.41 74.7737 667.41C74.7737 667.41 88.0813 680.944 113.786 686.678Z" fill="#E6E6E6"/>
<path d="M116.321 696.351C144.306 697.158 168.052 688.139 168.052 688.139C152.361 681.347 135.531 677.569 118.442 677.004C90.4566 676.196 66.71 685.215 66.71 685.215C82.4015 692.008 99.2315 695.785 116.321 696.351Z" fill="#F9D126"/>
<path d="M118.309 677.036C138.302 687.115 167.744 688.375 167.744 688.375C167.744 688.375 164.773 673.294 144.781 663.214C124.788 653.135 95.3456 651.875 95.3456 651.875C95.3456 651.875 98.3169 666.957 118.309 677.036Z" fill="#F9D126"/>
<path d="M598 245.571V196H49.571H0V245.571V432.053V481.624V686.989H49.571V481.624H598V432.053H49.571V245.571H598Z" fill="#E6E6E6"/>
<path d="M598 199.932H548.429V686.2H598V199.932Z" fill="#E6E6E6"/>
<path opacity="0.3" d="M162.711 525.191V543.288C162.711 617.48 223.07 677.838 297.261 677.838C371.452 677.838 431.811 617.48 431.811 543.288V525.191H162.711Z" fill="#F9D126"/>
<path d="M94.5242 558.745C89.9546 565.836 84.8694 566.063 80.5648 563.289C80.4648 563.225 80.3662 563.159 80.2689 563.093C80.0727 562.959 79.8824 562.821 79.6979 562.678C76.0269 559.842 74.6855 555.294 78.9352 548.699C83.3331 541.875 96.104 537.915 97.0559 537.627H97.0573L97.1118 537.61C97.1118 537.61 99.0934 551.654 94.5242 558.745Z" fill="#E6E6E6"/>
<path d="M411.621 376.848C407.051 383.939 401.966 384.166 397.662 381.392C397.562 381.328 397.463 381.262 397.366 381.196C397.169 381.062 396.979 380.924 396.795 380.781C393.124 377.945 391.782 373.397 396.032 366.803C400.43 359.978 413.201 356.018 414.153 355.73H414.154L414.209 355.713C414.209 355.713 416.19 369.757 411.621 376.848Z" fill="#E6E6E6"/>
<path d="M230.677 324.221C236.392 330.427 235.333 335.406 231.566 338.875C231.479 338.955 231.39 339.034 231.302 339.112C231.123 339.268 230.941 339.418 230.757 339.56C227.089 342.4 222.35 342.555 217.035 336.784C211.535 330.811 210.914 317.455 210.874 316.461L210.875 316.46L210.873 316.403C210.873 316.403 224.963 318.016 230.677 324.221Z" fill="#E6E6E6"/>
<path d="M417.951 523.912L404.394 530.75C403.098 531.462 401.573 531.631 400.152 531.22C398.732 530.809 397.533 529.851 396.817 528.557L387.488 510.063C387.265 509.621 387.138 509.136 387.113 508.641L386.935 505.129C386.914 504.342 387.12 503.566 387.529 502.894C387.938 502.222 388.532 501.682 389.24 501.34L403.397 494.198C404.074 493.844 404.835 493.685 405.597 493.741C406.359 493.796 407.09 494.063 407.707 494.512L410.102 496.331C410.535 496.658 410.886 497.079 411.131 497.563L420.691 516.515C421.306 517.859 421.364 519.393 420.85 520.78C420.337 522.166 419.294 523.293 417.951 523.912Z" fill="#E6E6E6"/>
<path d="M400.256 497.707L393.67 501.029L394.133 501.948L400.719 498.625L400.256 497.707Z" fill="#3F3D56"/>
<path d="M407.152 501.051L392.543 508.337L394.65 512.562L409.259 505.276L407.152 501.051Z" fill="#F9D126"/>
<path d="M410.3 506.558L395.69 513.844L397.797 518.068L412.407 510.782L410.3 506.558Z" fill="#F9D126"/>
<path d="M413.447 512.853L398.837 520.139L400.944 524.363L415.554 517.077L413.447 512.853Z" fill="#F9D126"/>
</svg>
