<svg width="362" height="340" viewBox="0 0 362 340" fill="none" xmlns="http://www.w3.org/2000/svg">
<g clip-path="url(#clip0_2_937)">
<path d="M350.147 274.695C350.147 295.766 337.831 303.123 322.64 303.123C322.286 303.123 321.934 303.12 321.584 303.11C320.881 303.094 320.183 303.063 319.495 303.013C305.783 302.027 295.131 294.29 295.131 274.695C295.131 254.419 320.604 228.832 322.525 226.932L322.529 226.93C322.601 226.856 322.64 226.819 322.64 226.819C322.64 226.819 350.147 253.623 350.147 274.695Z" fill="#3F3D56"/>
<path d="M321.636 299.9L331.698 285.602L321.611 301.469L321.584 303.11C320.881 303.094 320.183 303.063 319.495 303.013L320.579 281.933L320.571 281.769L320.59 281.738L320.691 279.747L310.58 263.84L320.722 278.254L320.747 278.676L321.567 262.749L312.91 246.312L321.672 259.951L322.525 226.932L322.529 226.819V226.93L322.387 252.968L331.004 242.645L322.351 255.21L322.123 269.471L330.17 255.786L322.089 271.571L321.963 279.498L333.644 260.448L321.919 282.265L321.636 299.9Z" fill="#F2F2F2"/>
<path d="M64.3611 297.346C64.3611 309.971 56.9814 314.38 47.8789 314.38C47.6669 314.38 47.4562 314.377 47.2465 314.372C46.825 314.362 46.4068 314.344 45.9944 314.313C37.7785 313.723 31.3955 309.087 31.3955 297.346C31.3955 285.196 46.6588 269.864 47.8101 268.726L47.8124 268.725C47.8559 268.681 47.8788 268.658 47.8788 268.658C47.8788 268.658 64.3611 284.72 64.3611 297.346Z" fill="#3F3D56"/>
<path d="M47.2774 312.448L53.3065 303.881L47.2625 313.388L47.2465 314.372C46.8249 314.362 46.4068 314.344 45.9944 314.313L46.6439 301.682L46.6394 301.585L46.6508 301.566L46.7115 300.373L40.6527 290.841L46.7299 299.478L46.7447 299.731L47.2362 290.187L42.0491 280.339L47.2992 288.511L47.8101 268.726L47.8124 268.658V268.725L47.7276 284.327L52.8906 278.141L47.7058 285.67L47.5695 294.215L52.3912 286.015L47.5489 295.473L47.4733 300.224L54.4726 288.809L47.447 301.882L47.2774 312.448Z" fill="#F2F2F2"/>
<path d="M193.697 92.9722H63.6024V219.042H193.697V92.9722Z" fill="url(#paint0_linear_2_937)"/>
<path d="M190.905 95.8115H66.3942V216.202H190.905V95.8115Z" fill="white"/>
<path d="M186.438 100.355H70.8608V211.659H186.438V100.355Z" fill="rgb(247, 185, 71)"/>
<path d="M149.804 125.078H163.907L128.65 186.936L93.3921 125.078H120.364L128.65 139.422L136.759 125.078H149.804Z" fill="#41B883"/>
<path d="M93.3921 125.078L128.65 186.936L163.907 125.078H149.804L128.65 162.193L107.319 125.078H93.3921Z" fill="#41B883"/>
<path d="M107.319 125.078L128.65 162.372L149.804 125.078H136.759L128.65 139.422L120.364 125.078H107.319Z" fill="#35495E"/>
<g opacity="0.5">
<path d="M174.155 0H3.30103V75.9358H174.155V0Z" fill="url(#paint1_linear_2_937)"/>
</g>
<path d="M171.921 0.975586H5.53442V73.6642H171.921V0.975586Z" fill="white"/>
<path d="M167.141 5.5188H10.3153V69.1214H167.141V5.5188Z" fill="rgb(247, 185, 71)"/>
<path d="M140.374 26.4092L145.071 26.4355C145.071 26.4355 136.337 38.473 135.624 39.4541C135.328 39.7836 135.073 40.1478 134.862 40.5391C134.476 41.6515 134.171 42.791 133.948 43.9486L129.649 43.9705C129.649 43.9705 130.318 41.5293 130.291 40.229C130.266 39.0932 129.696 37.9586 129.376 36.8195C129.053 35.6662 128.614 33.4097 128.614 33.4097H133.034L133.643 35.8895L140.374 26.4092" fill="white"/>
<path d="M131.478 28.948C132.345 29.4796 132.877 32.412 132.877 32.412C132.877 32.412 128.34 32.4801 125.872 32.4801H123.738L121.148 43.9488H117.186C117.186 43.9488 119.651 31.4852 120.234 29.2255C120.422 28.4939 121.526 28.6194 123.389 28.6194H126.365C128.287 28.6194 130.533 28.3698 131.478 28.948M113.033 34.5336C113.081 33.9705 112.933 33.4083 112.615 32.9449C112.151 32.2182 111.723 32.0491 110.504 32.0103C107.062 31.9003 107.129 34.4948 107.129 34.4948L113.033 34.5336ZM116.767 31.5624C117.271 33.4131 116.31 37.7618 116.31 37.7618C116.31 37.7618 111.289 37.6766 108.538 37.7618C107.683 37.7884 106.66 37.6672 106.405 38.0719C106.047 38.6389 106.536 39.5118 106.95 39.8805C107.427 40.305 108.357 40.3534 108.691 40.3964C110.923 40.6849 115.595 40.471 115.595 40.471L114.786 44.1159C114.786 44.1159 108.183 44.4527 104.881 43.651C104.246 43.5124 103.663 43.1894 103.205 42.7213C103.092 42.5975 102.994 42.4286 102.888 42.2827C102.71 42.0335 102.561 41.7646 102.443 41.4812C101.689 39.437 102.531 35.5209 103.357 33.4223C103.453 33.1792 103.573 32.8707 103.7 32.6085C103.859 32.2818 103.993 31.9128 104.119 31.7174C104.204 31.5827 104.31 31.4959 104.398 31.3688C104.501 31.221 104.611 31.0788 104.729 30.9427C105.049 30.5932 105.407 30.2813 105.795 30.013C107.171 28.965 109.661 28.1515 112.652 28.4629C113.779 28.5806 115.48 28.9898 116.31 30.1678C116.526 30.6084 116.68 31.078 116.767 31.5626V31.5624ZM98.5953 28.6052L102.437 28.5822C102.437 28.5822 100.296 38.9117 99.2048 43.9488H94.7855C91.697 43.9488 88.9465 44.3378 87.7762 42.0889C86.641 39.9053 87.7244 36.3144 88.2332 33.8747C88.5929 32.1481 89.3505 28.6192 89.3505 28.6192L93.3307 28.5822C93.3307 28.5822 92.206 34.0763 91.738 36.8196C91.5704 37.8022 91.2248 38.7275 91.5858 39.454C91.9286 40.1455 92.4087 40.195 93.8714 40.2292C94.3348 40.2403 95.8525 40.2292 95.8525 40.2292L98.5953 28.6052M80.6143 36.0444C81.0165 34.5909 81.6032 33.0147 81.5286 31.7049C81.467 31.0848 81.2533 30.4902 80.9072 29.9758C80.5612 29.4614 80.0937 29.0435 79.5477 28.7604C78.6559 28.459 77.6994 28.4154 76.7846 28.6343C75.8699 28.8532 75.0328 29.326 74.3667 30.0002C73.2863 31.1905 72.9205 32.5809 72.538 34.495C72.2533 35.9159 72.02 37.4161 72.538 38.5242C73.4552 40.4834 76.3156 40.0556 79.3953 40.0743C79.8524 38.8283 80.2302 37.4288 80.6143 36.0444V36.0444ZM85.9477 30.3103C86.3864 33.5555 84.7029 37.1375 83.5431 40.2524C84.7257 40.361 85.762 40.2356 85.8365 40.3253C85.9142 40.4415 85.0439 44.0434 84.7406 44.0527C83.8021 44.0775 80.6921 44.1038 79.3953 44.1038C75.1635 44.1038 71.2047 44.3842 69.1859 42.2441C68.3718 41.2765 67.8434 40.0944 67.6618 38.8343C67.4944 37.0642 67.6494 35.2779 68.1191 33.5651C68.4451 32.1577 68.9577 30.802 69.643 29.5351C71.4212 26.3783 74.5145 24.035 79.6999 24.5759C80.8733 24.7257 82.0097 25.0934 83.0525 25.6607C83.1147 25.698 83.333 25.8746 83.383 25.9056C84.6022 26.6946 85.713 28.5775 85.9477 30.3103H85.9477ZM67.2245 28.6239C66.9686 29.8095 66.7126 31.1535 66.4429 32.325H62.1762C62.5067 31.0264 62.7598 29.7352 63.0905 28.6054C64.4558 28.6054 65.7252 28.6239 67.2248 28.6239M62.0238 33.41H66.1382C65.6002 36.4384 64.535 41.3233 63.7 44.7237C63.1774 46.8518 62.8285 48.4046 61.4143 49.5281C61.2877 49.629 61.2147 49.581 61.1094 49.6832C60.8489 49.9359 59.6435 50.229 58.9763 50.3031C57.7621 50.3725 56.5449 50.3684 55.3312 50.2908C55.6801 48.9937 56.0749 47.436 56.3859 46.2734C59.6362 46.6736 59.7185 43.5489 60.3477 40.5392C60.7118 38.8002 61.8152 34.1074 62.0238 33.4101" fill="white"/>
<path d="M52.4236 41.3142L52.3354 41.5466C50.8331 44.5223 48.1707 46.3479 44.3734 46.4284C42.8021 46.4501 41.2441 46.1333 39.8018 45.4987C37.456 44.3996 35.5291 42.5485 34.3164 40.2292C32.7452 37.1342 32.4618 32.8288 35.7288 29.613C35.7793 29.613 35.3325 30.3103 35.383 30.3103L35.293 30.6079C32.9388 38.1043 40.192 44.5286 47.2427 43.7938C49.1838 43.5446 50.9975 42.6765 52.4236 41.3142" fill="#21609B"/>
<path d="M48.1569 38.2143C49.9308 38.2006 51.6279 37.4768 52.8809 36.1996C51.9209 38.6779 49.1414 40.2708 45.4143 39.7642C42.2934 39.3395 39.3205 36.1454 39.0143 32.9448C38.7904 30.6156 39.5885 29.2254 40.9037 27.5391C40.5592 28.1558 40.3317 28.8329 40.2333 29.5351C39.7336 34.5737 44.1907 38.1878 48.1569 38.2143" fill="#21609B"/>
<path d="M52.7026 31.9561C52.4269 32.5994 50.8393 33.8142 50.1381 33.9661C47.3617 34.5677 45.5837 33.2287 44.6522 31.7049C44.4796 31.3815 44.3324 31.0448 44.212 30.6978C43.8508 29.4486 44.0168 27.5592 45.0944 26.5813C44.7894 27.4507 44.7199 28.3875 44.8933 29.2936C45.0566 29.8718 45.3042 30.4219 45.6278 30.9255C46.043 31.5719 46.6221 32.0924 47.3038 32.4321C47.5697 32.5986 47.8521 32.7362 48.1464 32.8425C48.8458 33.052 50.3225 33.6036 52.7028 31.9561" fill="#21609B"/>
<path d="M308.158 0.407715H209.889V100.355H308.158V0.407715Z" fill="url(#paint2_linear_2_937)"/>
<path d="M305.366 3.24731H212.681V97.5154H305.366V3.24731Z" fill="white"/>
<path d="M300.899 7.79028H217.147V92.9723H300.899V7.79028Z" fill="rgb(247, 185, 71)"/>
<path d="M228.821 32.3808L259.07 21.4194L290.132 32.1859L285.103 72.8889L259.07 87.5528L233.444 73.0838L228.821 32.3808Z" fill="#E23237"/>
<path d="M290.132 32.1859L259.07 21.4194V87.5528L285.103 72.9134L290.132 32.1859Z" fill="#B52E31"/>
<path d="M259.117 29.1411L240.269 71.7929L247.31 71.6711L251.094 62.0493H268.003L272.146 71.7929L278.876 71.9147L259.117 29.1411V29.1411ZM259.165 42.8063L265.536 56.3494H253.561L259.165 42.8063Z" fill="white"/>
<path d="M358.967 119.095H228.873V219.042H358.967V119.095Z" fill="url(#paint3_linear_2_937)"/>
<path d="M356.176 121.934H231.665V216.202H356.176V121.934Z" fill="white"/>
<path d="M351.709 126.477H236.131V211.659H351.709V126.477Z" fill="rgb(247, 185, 71)"/>
<path d="M259.073 168.877C259.057 174.266 264.215 179.313 272.362 182.175C270.708 190.509 272.024 197.236 276.481 199.869C281.062 202.576 287.906 200.735 294.414 194.985C300.723 200.543 307.11 202.742 311.58 200.13C316.174 197.445 317.59 190.272 315.943 181.666C324.448 178.837 329.213 174.562 329.23 169.103C329.247 163.839 324.078 159.268 316.04 156.425C317.869 147.475 316.363 140.912 311.721 138.169C307.246 135.525 300.771 137.796 294.334 143.458C287.674 137.405 281.276 135.544 276.622 138.264C272.135 140.886 270.835 147.727 272.443 156.226C264.553 158.995 259.09 163.635 259.073 168.877Z" fill="white"/>
<path d="M314.327 159.218C313.664 158.984 312.996 158.768 312.323 158.568C312.436 158.107 312.541 157.643 312.637 157.178C314.179 149.687 313.205 143.645 309.821 141.646C306.577 139.729 301.255 141.7 295.872 146.435C295.341 146.902 294.823 147.383 294.316 147.878C293.979 147.547 293.635 147.222 293.286 146.904C287.676 141.805 282.043 139.646 278.65 141.629C275.397 143.53 274.418 149.204 275.762 156.313C275.896 157.017 276.047 157.717 276.216 158.413C275.418 158.641 274.646 158.884 273.908 159.143C267.304 161.461 263.08 165.113 263.069 168.916C263.056 172.843 267.566 176.797 274.43 179.207C274.986 179.402 275.547 179.582 276.113 179.748C275.927 180.497 275.761 181.251 275.616 182.009C274.292 188.985 275.292 194.531 278.525 196.442C281.864 198.414 287.484 196.416 292.966 191.573C293.399 191.19 293.834 190.785 294.27 190.358C294.815 190.897 295.375 191.42 295.949 191.927C301.23 196.578 306.454 198.466 309.696 196.572C313.044 194.615 314.148 188.664 312.761 181.415C312.655 180.862 312.532 180.297 312.392 179.72C312.787 179.603 313.174 179.482 313.552 179.356C320.702 176.972 325.361 173.096 325.374 169.116C325.386 165.3 321.049 161.595 314.327 159.218H314.327Z" fill="#53C1DE"/>
<path d="M312.723 176.784C312.382 176.897 312.032 177.007 311.675 177.113C310.813 174.365 309.767 171.679 308.545 169.075C309.736 166.514 310.758 163.874 311.602 161.174C312.239 161.364 312.857 161.564 313.453 161.775C319.212 163.812 322.72 166.808 322.712 169.107C322.705 171.557 318.897 174.725 312.723 176.784H312.723ZM310.148 181.933C310.762 185.138 310.842 188.035 310.421 190.297C310.044 192.33 309.294 193.684 308.369 194.225C306.402 195.374 302.208 193.858 297.692 189.88C297.174 189.424 296.653 188.938 296.129 188.423C298.024 186.303 299.776 184.055 301.373 181.695C304.213 181.46 307.034 181.027 309.816 180.399C309.941 180.921 310.052 181.432 310.148 181.933V181.933ZM284.232 193.947C282.312 194.63 280.784 194.645 279.862 194.1C277.9 192.941 277.097 188.488 278.23 182.522C278.365 181.817 278.518 181.116 278.691 180.42C281.458 181.034 284.262 181.456 287.084 181.683C288.713 184.045 290.492 186.296 292.411 188.421C292.024 188.8 291.627 189.169 291.221 189.529C288.797 191.67 286.37 193.187 284.232 193.947H284.232ZM275.299 176.648C272.264 175.582 269.759 174.202 268.044 172.699C266.503 171.348 265.727 170.009 265.73 168.924C265.737 166.617 269.129 163.685 274.776 161.702C275.485 161.455 276.201 161.228 276.923 161.023C277.752 163.758 278.758 166.435 279.935 169.036C278.727 171.666 277.692 174.374 276.835 177.143C276.319 176.991 275.807 176.826 275.299 176.648ZM278.376 155.801C277.224 149.711 278.016 145.122 279.976 143.976C282.065 142.756 286.668 144.52 291.513 148.923C291.822 149.205 292.133 149.499 292.445 149.804C290.526 151.903 288.746 154.129 287.116 156.467C284.319 156.713 281.541 157.143 278.798 157.755C278.641 157.107 278.501 156.456 278.376 155.801V155.801ZM305.231 162.637C304.625 161.565 303.997 160.507 303.346 159.462C305.333 159.723 307.237 160.069 309.024 160.49C308.444 162.34 307.773 164.159 307.013 165.94C306.441 164.827 305.846 163.726 305.231 162.637ZM294.305 151.744C295.596 153.185 296.815 154.692 297.957 156.258C295.504 156.132 293.05 156.124 290.593 156.233C291.809 154.613 293.053 153.109 294.305 151.744ZM283.241 162.585C282.626 163.661 282.036 164.752 281.472 165.856C280.703 163.984 280.045 162.144 279.509 160.367C281.288 159.968 283.185 159.643 285.161 159.398C284.496 160.445 283.856 161.507 283.241 162.585ZM285.157 178.768C283.229 178.549 281.314 178.23 279.418 177.811C279.974 176.006 280.657 174.13 281.455 172.223C282.015 173.332 282.6 174.427 283.211 175.508C283.834 176.61 284.483 177.697 285.157 178.768ZM294.27 186.479C293.013 185.09 291.76 183.555 290.536 181.904C291.729 181.955 292.944 181.983 294.181 181.987C295.451 181.992 296.705 181.967 297.942 181.915C296.796 183.499 295.57 185.022 294.27 186.479ZM307.019 172.208C307.805 174.03 308.498 175.893 309.094 177.789C307.174 178.221 305.233 178.552 303.279 178.778C303.94 177.718 304.581 176.645 305.201 175.56C305.832 174.456 306.437 173.339 307.019 172.208ZM302.9 174.2C301.951 175.864 300.949 177.496 299.896 179.095C298.047 179.224 296.136 179.287 294.189 179.281C292.251 179.274 290.365 179.207 288.549 179.081C287.478 177.48 286.468 175.839 285.519 174.159C284.575 172.489 283.694 170.784 282.877 169.044C283.702 167.311 284.591 165.611 285.543 163.944V163.945C286.494 162.279 287.506 160.652 288.579 159.063C290.432 158.926 292.332 158.858 294.253 158.864C296.182 158.87 298.084 158.952 299.936 159.101C300.988 160.693 301.984 162.321 302.923 163.986C303.867 165.654 304.757 167.351 305.593 169.079C304.756 170.818 303.858 172.525 302.9 174.2H302.9ZM308.485 143.987C310.567 145.218 311.363 150.156 310.032 156.623C309.945 157.045 309.85 157.464 309.748 157.882C307.005 157.241 304.224 156.784 301.422 156.517C299.823 154.165 298.071 151.926 296.176 149.815C296.644 149.358 297.123 148.914 297.613 148.482C302.225 144.426 306.529 142.832 308.485 143.987Z" fill="white"/>
<path d="M294.239 163.357C295.339 163.361 296.414 163.696 297.327 164.321C298.24 164.945 298.95 165.832 299.368 166.867C299.786 167.902 299.893 169.04 299.675 170.137C299.457 171.234 298.924 172.241 298.143 173.03C297.363 173.819 296.369 174.355 295.29 174.57C294.21 174.784 293.091 174.669 292.076 174.237C291.061 173.806 290.194 173.077 289.585 172.145C288.977 171.212 288.654 170.117 288.658 168.998C288.66 168.255 288.806 167.519 289.088 166.834C289.37 166.148 289.781 165.526 290.3 165.002C290.818 164.478 291.432 164.063 292.108 163.781C292.784 163.499 293.508 163.355 294.239 163.357Z" fill="#53C1DE"/>
<g opacity="0.7">
<g opacity="0.1">
<path d="M276.744 263.171V271.809V274.689V313.081V315.961V324.119H265.419H261.645V315.961V313.081V274.689V271.809V263.171H265.419H276.744Z" fill="url(#paint4_linear_2_937)"/>
</g>
<g opacity="0.1">
<path d="M260.701 263.171V271.809V274.689V313.081V315.961V324.119H249.377H245.602V315.961V313.081V274.689V271.809V263.171H249.377H260.701Z" fill="url(#paint5_linear_2_937)"/>
</g>
</g>
<path d="M59.8354 307.638H33.2566C29.6406 307.638 26.7094 310.619 26.7094 314.297V318.149C26.7094 321.827 29.6406 324.808 33.2566 324.808H59.8354C63.4513 324.808 66.3826 321.827 66.3826 318.149V314.297C66.3826 310.619 63.4513 307.638 59.8354 307.638Z" fill="rgb(247, 185, 71)"/>
<g opacity="0.7">
<g opacity="0.1">
<path d="M101.109 263.636V272.275V275.155V313.547V316.426V324.584H112.434H116.208V316.426V313.547V275.155V272.275V263.636H112.434H101.109Z" fill="url(#paint6_linear_2_937)"/>
</g>
<g opacity="0.1">
<path d="M117.152 263.636V272.275V275.155V313.547V316.426V324.584H128.476H132.251V316.426V313.547V275.155V272.275V263.636H128.476H117.152Z" fill="url(#paint7_linear_2_937)"/>
</g>
<g opacity="0.1">
<path d="M162.366 320.617L149.842 272.856L149.112 270.074L146.923 261.727L132.334 265.685L134.523 274.032L135.104 276.247L144.98 313.909L145.71 316.691L147.777 324.574L162.366 320.617Z" fill="url(#paint8_linear_2_937)"/>
</g>
</g>
<path d="M116.992 265.126H102.655V322.999H116.992V265.126Z" fill="#535461"/>
<path d="M116.992 273.329H102.655V276.063H116.992V273.329Z" fill="rgb(247, 185, 71)"/>
<path d="M116.992 312.518H102.655V315.252H116.992V312.518Z" fill="rgb(247, 185, 71)"/>
<path opacity="0.1" d="M116.992 265.126H113.408V322.999H116.992V265.126Z" fill="black"/>
<path d="M132.225 265.126H117.888V322.999H132.225V265.126Z" fill="#535461"/>
<path d="M132.225 273.329H117.888V276.063H132.225V273.329Z" fill="rgb(247, 185, 71)"/>
<path d="M132.225 312.518H117.888V315.252H132.225V312.518Z" fill="rgb(247, 185, 71)"/>
<path opacity="0.1" d="M132.225 265.126H128.641V322.999H132.225V265.126Z" fill="black"/>
<path d="M146.157 263.313L132.304 267.071L146.968 322.989L160.821 319.231L146.157 263.313Z" fill="#535461"/>
<path d="M148.236 271.238L134.383 274.996L135.075 277.638L148.928 273.88L148.236 271.238Z" fill="rgb(247, 185, 71)"/>
<path d="M158.165 309.104L144.312 312.862L145.005 315.504L158.858 311.746L158.165 309.104Z" fill="rgb(247, 185, 71)"/>
<path opacity="0.1" d="M146.157 263.313L142.694 264.253L157.358 320.171L160.821 319.231L146.157 263.313Z" fill="black"/>
<path d="M260.485 322.999H274.822V265.126H260.485V322.999Z" fill="#535461"/>
<path d="M260.485 276.063H274.822V273.329H260.485V276.063Z" fill="rgb(247, 185, 71)"/>
<path d="M260.485 315.252H274.822V312.518H260.485V315.252Z" fill="rgb(247, 185, 71)"/>
<path opacity="0.1" d="M260.485 322.999H264.069V265.126H260.485V322.999Z" fill="black"/>
<path d="M245.251 322.999H259.589V265.126H245.251V322.999Z" fill="#535461"/>
<path d="M245.251 276.063H259.589V273.329H245.251V276.063Z" fill="rgb(247, 185, 71)"/>
<path d="M245.251 315.252H259.589V312.518H245.251V315.252Z" fill="rgb(247, 185, 71)"/>
<path opacity="0.1" d="M245.251 322.999H248.836V265.126H245.251V322.999Z" fill="black"/>
<path d="M295.001 295.364H346.982C346.982 295.364 357.237 308.671 341.324 328.451H300.306C300.306 328.451 285.454 314.785 295.001 295.364Z" fill="rgb(247, 185, 71)"/>
<g opacity="0.1">
<path d="M346.982 295.364H295.001C294.883 295.604 294.771 295.844 294.66 296.083H345.214C345.214 296.083 355.217 309.068 340.123 328.451H341.324C357.237 308.671 346.982 295.364 346.982 295.364Z" fill="black"/>
</g>
<path d="M361.37 322.488H0.898438V334.916H361.37V322.488Z" fill="#E0E0E0"/>
<path d="M346.096 334.916H16.1726V340H346.096V334.916Z" fill="#E0E0E0"/>
<path opacity="0.1" d="M346.096 334.916H16.1726V336.611H346.096V334.916Z" fill="black"/>
</g>
<defs>
<linearGradient id="paint0_linear_2_937" x1="128.65" y1="219.042" x2="128.65" y2="92.9722" gradientUnits="userSpaceOnUse">
<stop stop-color="#808080" stop-opacity="0.25"/>
<stop offset="0.53514" stop-color="#808080" stop-opacity="0.12"/>
<stop offset="1" stop-color="#808080" stop-opacity="0.1"/>
</linearGradient>
<linearGradient id="paint1_linear_2_937" x1="88.7279" y1="75.9358" x2="88.7279" y2="0" gradientUnits="userSpaceOnUse">
<stop stop-opacity="0.25"/>
<stop offset="0.53514" stop-color="#808080" stop-opacity="0.12"/>
<stop offset="1" stop-color="#808080" stop-opacity="0.1"/>
</linearGradient>
<linearGradient id="paint2_linear_2_937" x1="259.023" y1="100.355" x2="259.023" y2="0.407715" gradientUnits="userSpaceOnUse">
<stop stop-color="#808080" stop-opacity="0.25"/>
<stop offset="0.53514" stop-color="#808080" stop-opacity="0.12"/>
<stop offset="1" stop-color="#808080" stop-opacity="0.1"/>
</linearGradient>
<linearGradient id="paint3_linear_2_937" x1="293.92" y1="219.042" x2="293.92" y2="119.095" gradientUnits="userSpaceOnUse">
<stop stop-color="#808080" stop-opacity="0.25"/>
<stop offset="0.53514" stop-color="#808080" stop-opacity="0.12"/>
<stop offset="1" stop-color="#808080" stop-opacity="0.1"/>
</linearGradient>
<linearGradient id="paint4_linear_2_937" x1="269.194" y1="324.119" x2="269.194" y2="263.171" gradientUnits="userSpaceOnUse">
<stop stop-color="#808080" stop-opacity="0.25"/>
<stop offset="0.53514" stop-color="#808080" stop-opacity="0.12"/>
<stop offset="1" stop-color="#808080" stop-opacity="0.1"/>
</linearGradient>
<linearGradient id="paint5_linear_2_937" x1="253.151" y1="324.119" x2="253.151" y2="263.171" gradientUnits="userSpaceOnUse">
<stop stop-color="#808080" stop-opacity="0.25"/>
<stop offset="0.53514" stop-color="#808080" stop-opacity="0.12"/>
<stop offset="1" stop-color="#808080" stop-opacity="0.1"/>
</linearGradient>
<linearGradient id="paint6_linear_2_937" x1="108.659" y1="324.585" x2="108.659" y2="263.637" gradientUnits="userSpaceOnUse">
<stop stop-color="#808080" stop-opacity="0.25"/>
<stop offset="0.53514" stop-color="#808080" stop-opacity="0.12"/>
<stop offset="1" stop-color="#808080" stop-opacity="0.1"/>
</linearGradient>
<linearGradient id="paint7_linear_2_937" x1="124.702" y1="324.585" x2="124.702" y2="263.637" gradientUnits="userSpaceOnUse">
<stop stop-color="#808080" stop-opacity="0.25"/>
<stop offset="0.53514" stop-color="#808080" stop-opacity="0.12"/>
<stop offset="1" stop-color="#808080" stop-opacity="0.1"/>
</linearGradient>
<linearGradient id="paint8_linear_2_937" x1="147.35" y1="324.574" x2="147.35" y2="261.727" gradientUnits="userSpaceOnUse">
<stop stop-color="#808080" stop-opacity="0.25"/>
<stop offset="0.53514" stop-color="#808080" stop-opacity="0.12"/>
<stop offset="1" stop-color="#808080" stop-opacity="0.1"/>
</linearGradient>
<clipPath id="clip0_2_937">
<rect width="360.472" height="340" fill="white" transform="translate(0.898438)"/>
</clipPath>
</defs>
</svg>
