<svg xmlns="http://www.w3.org/2000/svg" version="1.1" xmlns:xlink="http://www.w3.org/1999/xlink" xmlns:svgjs="http://svgjs.com/svgjs" width="1440" height="560" preserveAspectRatio="none" viewBox="0 0 1440 560"><g mask="url(&quot;#SvgjsMask1008&quot;)" fill="none"><rect width="1440" height="560" x="0" y="0" fill="rgba(247, 185, 71, 1)"></rect><path d="M36.32 206.45L101.27 243.95L101.27 318.95L36.32 356.45L-28.63 318.95L-28.63 243.95zM166.23 -18.55L231.18 18.95L231.18 93.95L166.23 131.45L101.27 93.95L101.27 18.95zM231.18 93.95L296.13 131.45L296.13 206.45L231.18 243.95L166.23 206.45L166.23 131.45zM296.13 206.45L361.09 243.95L361.09 318.95L296.13 356.45L231.18 318.95L231.18 243.95zM361.09 318.95L426.04 356.45L426.04 431.45L361.09 468.95L296.13 431.45L296.13 356.45zM491 318.95L555.95 356.45L555.95 431.45L491 468.95L426.04 431.45L426.04 356.45zM555.95 -18.55L620.9 18.95L620.9 93.95L555.95 131.45L491 93.95L491 18.95zM620.9 543.95L685.86 581.45L685.86 656.45L620.9 693.95L555.95 656.45L555.95 581.45zM685.86 -18.55L750.81 18.95L750.81 93.95L685.86 131.45L620.9 93.95L620.9 18.95zM945.67 -18.55L1010.63 18.95L1010.63 93.95L945.67 131.45L880.72 93.95L880.72 18.95zM1010.63 93.95L1075.58 131.45L1075.58 206.45L1010.63 243.95L945.67 206.45L945.67 131.45zM1270.44 318.95L1335.39 356.45L1335.39 431.45L1270.44 468.95L1205.49 431.45L1205.49 356.45zM1335.39 -18.55L1400.35 18.95L1400.35 93.95L1335.39 131.45L1270.44 93.95L1270.44 18.95zM1335.39 206.45L1400.35 243.95L1400.35 318.95L1335.39 356.45L1270.44 318.95L1270.44 243.95zM1335.39 431.45L1400.35 468.95L1400.35 543.95L1335.39 581.45L1270.44 543.95L1270.44 468.95zM1530.26 93.95L1595.21 131.45L1595.21 206.45L1530.26 243.95L1465.3 206.45L1465.3 131.45z" stroke="rgba(192, 125, 0, 1)" stroke-width="2"></path><path d="M28.82 206.45 a7.5 7.5 0 1 0 15 0 a7.5 7.5 0 1 0 -15 0zM93.77 243.95 a7.5 7.5 0 1 0 15 0 a7.5 7.5 0 1 0 -15 0zM93.77 318.95 a7.5 7.5 0 1 0 15 0 a7.5 7.5 0 1 0 -15 0zM28.82 356.45 a7.5 7.5 0 1 0 15 0 a7.5 7.5 0 1 0 -15 0zM-36.13 318.95 a7.5 7.5 0 1 0 15 0 a7.5 7.5 0 1 0 -15 0zM-36.13 243.95 a7.5 7.5 0 1 0 15 0 a7.5 7.5 0 1 0 -15 0zM158.73 -18.55 a7.5 7.5 0 1 0 15 0 a7.5 7.5 0 1 0 -15 0zM223.68 18.95 a7.5 7.5 0 1 0 15 0 a7.5 7.5 0 1 0 -15 0zM223.68 93.95 a7.5 7.5 0 1 0 15 0 a7.5 7.5 0 1 0 -15 0zM158.73 131.45 a7.5 7.5 0 1 0 15 0 a7.5 7.5 0 1 0 -15 0zM93.77 93.95 a7.5 7.5 0 1 0 15 0 a7.5 7.5 0 1 0 -15 0zM93.77 18.95 a7.5 7.5 0 1 0 15 0 a7.5 7.5 0 1 0 -15 0zM288.63 131.45 a7.5 7.5 0 1 0 15 0 a7.5 7.5 0 1 0 -15 0zM288.63 206.45 a7.5 7.5 0 1 0 15 0 a7.5 7.5 0 1 0 -15 0zM223.68 243.95 a7.5 7.5 0 1 0 15 0 a7.5 7.5 0 1 0 -15 0zM158.73 206.45 a7.5 7.5 0 1 0 15 0 a7.5 7.5 0 1 0 -15 0zM353.59 243.95 a7.5 7.5 0 1 0 15 0 a7.5 7.5 0 1 0 -15 0zM353.59 318.95 a7.5 7.5 0 1 0 15 0 a7.5 7.5 0 1 0 -15 0zM288.63 356.45 a7.5 7.5 0 1 0 15 0 a7.5 7.5 0 1 0 -15 0zM223.68 318.95 a7.5 7.5 0 1 0 15 0 a7.5 7.5 0 1 0 -15 0zM418.54 356.45 a7.5 7.5 0 1 0 15 0 a7.5 7.5 0 1 0 -15 0zM418.54 431.45 a7.5 7.5 0 1 0 15 0 a7.5 7.5 0 1 0 -15 0zM353.59 468.95 a7.5 7.5 0 1 0 15 0 a7.5 7.5 0 1 0 -15 0zM288.63 431.45 a7.5 7.5 0 1 0 15 0 a7.5 7.5 0 1 0 -15 0zM483.5 318.95 a7.5 7.5 0 1 0 15 0 a7.5 7.5 0 1 0 -15 0zM548.45 356.45 a7.5 7.5 0 1 0 15 0 a7.5 7.5 0 1 0 -15 0zM548.45 431.45 a7.5 7.5 0 1 0 15 0 a7.5 7.5 0 1 0 -15 0zM483.5 468.95 a7.5 7.5 0 1 0 15 0 a7.5 7.5 0 1 0 -15 0zM548.45 -18.55 a7.5 7.5 0 1 0 15 0 a7.5 7.5 0 1 0 -15 0zM613.4 18.95 a7.5 7.5 0 1 0 15 0 a7.5 7.5 0 1 0 -15 0zM613.4 93.95 a7.5 7.5 0 1 0 15 0 a7.5 7.5 0 1 0 -15 0zM548.45 131.45 a7.5 7.5 0 1 0 15 0 a7.5 7.5 0 1 0 -15 0zM483.5 93.95 a7.5 7.5 0 1 0 15 0 a7.5 7.5 0 1 0 -15 0zM483.5 18.95 a7.5 7.5 0 1 0 15 0 a7.5 7.5 0 1 0 -15 0zM613.4 543.95 a7.5 7.5 0 1 0 15 0 a7.5 7.5 0 1 0 -15 0zM678.36 581.45 a7.5 7.5 0 1 0 15 0 a7.5 7.5 0 1 0 -15 0zM678.36 656.45 a7.5 7.5 0 1 0 15 0 a7.5 7.5 0 1 0 -15 0zM613.4 693.95 a7.5 7.5 0 1 0 15 0 a7.5 7.5 0 1 0 -15 0zM548.45 656.45 a7.5 7.5 0 1 0 15 0 a7.5 7.5 0 1 0 -15 0zM548.45 581.45 a7.5 7.5 0 1 0 15 0 a7.5 7.5 0 1 0 -15 0zM678.36 -18.55 a7.5 7.5 0 1 0 15 0 a7.5 7.5 0 1 0 -15 0zM743.31 18.95 a7.5 7.5 0 1 0 15 0 a7.5 7.5 0 1 0 -15 0zM743.31 93.95 a7.5 7.5 0 1 0 15 0 a7.5 7.5 0 1 0 -15 0zM678.36 131.45 a7.5 7.5 0 1 0 15 0 a7.5 7.5 0 1 0 -15 0zM938.17 -18.55 a7.5 7.5 0 1 0 15 0 a7.5 7.5 0 1 0 -15 0zM1003.13 18.95 a7.5 7.5 0 1 0 15 0 a7.5 7.5 0 1 0 -15 0zM1003.13 93.95 a7.5 7.5 0 1 0 15 0 a7.5 7.5 0 1 0 -15 0zM938.17 131.45 a7.5 7.5 0 1 0 15 0 a7.5 7.5 0 1 0 -15 0zM873.22 93.95 a7.5 7.5 0 1 0 15 0 a7.5 7.5 0 1 0 -15 0zM873.22 18.95 a7.5 7.5 0 1 0 15 0 a7.5 7.5 0 1 0 -15 0zM1068.08 131.45 a7.5 7.5 0 1 0 15 0 a7.5 7.5 0 1 0 -15 0zM1068.08 206.45 a7.5 7.5 0 1 0 15 0 a7.5 7.5 0 1 0 -15 0zM1003.13 243.95 a7.5 7.5 0 1 0 15 0 a7.5 7.5 0 1 0 -15 0zM938.17 206.45 a7.5 7.5 0 1 0 15 0 a7.5 7.5 0 1 0 -15 0zM1262.94 318.95 a7.5 7.5 0 1 0 15 0 a7.5 7.5 0 1 0 -15 0zM1327.89 356.45 a7.5 7.5 0 1 0 15 0 a7.5 7.5 0 1 0 -15 0zM1327.89 431.45 a7.5 7.5 0 1 0 15 0 a7.5 7.5 0 1 0 -15 0zM1262.94 468.95 a7.5 7.5 0 1 0 15 0 a7.5 7.5 0 1 0 -15 0zM1197.99 431.45 a7.5 7.5 0 1 0 15 0 a7.5 7.5 0 1 0 -15 0zM1197.99 356.45 a7.5 7.5 0 1 0 15 0 a7.5 7.5 0 1 0 -15 0zM1327.89 -18.55 a7.5 7.5 0 1 0 15 0 a7.5 7.5 0 1 0 -15 0zM1392.85 18.95 a7.5 7.5 0 1 0 15 0 a7.5 7.5 0 1 0 -15 0zM1392.85 93.95 a7.5 7.5 0 1 0 15 0 a7.5 7.5 0 1 0 -15 0zM1327.89 131.45 a7.5 7.5 0 1 0 15 0 a7.5 7.5 0 1 0 -15 0zM1262.94 93.95 a7.5 7.5 0 1 0 15 0 a7.5 7.5 0 1 0 -15 0zM1262.94 18.95 a7.5 7.5 0 1 0 15 0 a7.5 7.5 0 1 0 -15 0zM1327.89 206.45 a7.5 7.5 0 1 0 15 0 a7.5 7.5 0 1 0 -15 0zM1392.85 243.95 a7.5 7.5 0 1 0 15 0 a7.5 7.5 0 1 0 -15 0zM1392.85 318.95 a7.5 7.5 0 1 0 15 0 a7.5 7.5 0 1 0 -15 0zM1262.94 243.95 a7.5 7.5 0 1 0 15 0 a7.5 7.5 0 1 0 -15 0zM1392.85 468.95 a7.5 7.5 0 1 0 15 0 a7.5 7.5 0 1 0 -15 0zM1392.85 543.95 a7.5 7.5 0 1 0 15 0 a7.5 7.5 0 1 0 -15 0zM1327.89 581.45 a7.5 7.5 0 1 0 15 0 a7.5 7.5 0 1 0 -15 0zM1262.94 543.95 a7.5 7.5 0 1 0 15 0 a7.5 7.5 0 1 0 -15 0zM1522.76 93.95 a7.5 7.5 0 1 0 15 0 a7.5 7.5 0 1 0 -15 0zM1587.71 131.45 a7.5 7.5 0 1 0 15 0 a7.5 7.5 0 1 0 -15 0zM1587.71 206.45 a7.5 7.5 0 1 0 15 0 a7.5 7.5 0 1 0 -15 0zM1522.76 243.95 a7.5 7.5 0 1 0 15 0 a7.5 7.5 0 1 0 -15 0zM1457.8 206.45 a7.5 7.5 0 1 0 15 0 a7.5 7.5 0 1 0 -15 0zM1457.8 131.45 a7.5 7.5 0 1 0 15 0 a7.5 7.5 0 1 0 -15 0z" fill="rgba(192, 125, 0, 1)"></path><path d="M63.08 67.24L106.39 92.24L106.39 142.24L63.08 167.24L19.78 142.24L19.78 92.24zM63.08 217.24L106.39 242.24L106.39 292.24L63.08 317.24L19.78 292.24L19.78 242.24zM19.78 292.24L63.08 317.24L63.08 367.24L19.78 392.24L-23.52 367.24L-23.52 317.24zM106.39 -7.76L149.69 17.24L149.69 67.24L106.39 92.24L63.08 67.24L63.08 17.24zM149.69 67.24L192.99 92.24L192.99 142.24L149.69 167.24L106.39 142.24L106.39 92.24zM106.39 142.24L149.69 167.24L149.69 217.24L106.39 242.24L63.08 217.24L63.08 167.24zM149.69 217.24L192.99 242.24L192.99 292.24L149.69 317.24L106.39 292.24L106.39 242.24zM106.39 442.24L149.69 467.24L149.69 517.24L106.39 542.24L63.08 517.24L63.08 467.24zM149.69 517.24L192.99 542.24L192.99 592.24L149.69 617.24L106.39 592.24L106.39 542.24zM322.9 217.24L366.2 242.24L366.2 292.24L322.9 317.24L279.6 292.24L279.6 242.24zM322.9 517.24L366.2 542.24L366.2 592.24L322.9 617.24L279.6 592.24L279.6 542.24zM409.5 67.24L452.81 92.24L452.81 142.24L409.5 167.24L366.2 142.24L366.2 92.24zM409.5 217.24L452.81 242.24L452.81 292.24L409.5 317.24L366.2 292.24L366.2 242.24zM409.5 367.24L452.81 392.24L452.81 442.24L409.5 467.24L366.2 442.24L366.2 392.24zM496.11 67.24L539.41 92.24L539.41 142.24L496.11 167.24L452.81 142.24L452.81 92.24zM496.11 517.24L539.41 542.24L539.41 592.24L496.11 617.24L452.81 592.24L452.81 542.24zM582.71 367.24L626.01 392.24L626.01 442.24L582.71 467.24L539.41 442.24L539.41 392.24zM539.41 442.24L582.71 467.24L582.71 517.24L539.41 542.24L496.11 517.24L496.11 467.24zM669.32 67.24L712.62 92.24L712.62 142.24L669.32 167.24L626.01 142.24L626.01 92.24zM669.32 217.24L712.62 242.24L712.62 292.24L669.32 317.24L626.01 292.24L626.01 242.24zM626.01 292.24L669.32 317.24L669.32 367.24L626.01 392.24L582.71 367.24L582.71 317.24zM712.62 142.24L755.92 167.24L755.92 217.24L712.62 242.24L669.32 217.24L669.32 167.24zM799.23 142.24L842.53 167.24L842.53 217.24L799.23 242.24L755.92 217.24L755.92 167.24zM799.23 442.24L842.53 467.24L842.53 517.24L799.23 542.24L755.92 517.24L755.92 467.24zM842.53 517.24L885.83 542.24L885.83 592.24L842.53 617.24L799.23 592.24L799.23 542.24zM885.83 442.24L929.13 467.24L929.13 517.24L885.83 542.24L842.53 517.24L842.53 467.24zM929.13 517.24L972.44 542.24L972.44 592.24L929.13 617.24L885.83 592.24L885.83 542.24zM972.44 142.24L1015.74 167.24L1015.74 217.24L972.44 242.24L929.13 217.24L929.13 167.24zM1015.74 517.24L1059.04 542.24L1059.04 592.24L1015.74 617.24L972.44 592.24L972.44 542.24zM1059.04 292.24L1102.34 317.24L1102.34 367.24L1059.04 392.24L1015.74 367.24L1015.74 317.24zM1059.04 442.24L1102.34 467.24L1102.34 517.24L1059.04 542.24L1015.74 517.24L1015.74 467.24zM1188.95 67.24L1232.25 92.24L1232.25 142.24L1188.95 167.24L1145.64 142.24L1145.64 92.24zM1275.55 67.24L1318.86 92.24L1318.86 142.24L1275.55 167.24L1232.25 142.24L1232.25 92.24zM1232.25 292.24L1275.55 317.24L1275.55 367.24L1232.25 392.24L1188.95 367.24L1188.95 317.24zM1362.16 217.24L1405.46 242.24L1405.46 292.24L1362.16 317.24L1318.86 292.24L1318.86 242.24zM1362.16 367.24L1405.46 392.24L1405.46 442.24L1362.16 467.24L1318.86 442.24L1318.86 392.24zM1405.46 142.24L1448.76 167.24L1448.76 217.24L1405.46 242.24L1362.16 217.24L1362.16 167.24zM1448.76 367.24L1492.07 392.24L1492.07 442.24L1448.76 467.24L1405.46 442.24L1405.46 392.24zM1448.76 517.24L1492.07 542.24L1492.07 592.24L1448.76 617.24L1405.46 592.24L1405.46 542.24z" stroke="rgba(255, 248, 217, 1)" stroke-width="2"></path></g><defs><mask id="SvgjsMask1008"><rect width="1440" height="560" fill="#ffffff"></rect></mask></defs></svg>