<svg xmlns="http://www.w3.org/2000/svg" version="1.1" xmlns:xlink="http://www.w3.org/1999/xlink" xmlns:svgjs="http://svgjs.com/svgjs" width="1440" height="581" preserveAspectRatio="none" viewBox="0 0 1440 581"><g mask="url(&quot;#SvgjsMask1060&quot;)" fill="none"><path d="M-69.64 383.75L-69.64 383.75" stroke="rgba(216, 156, 46, 1)" stroke-width="1.5"></path><path d="M-69.64 383.75L59.04 412.48" stroke="rgba(216, 156, 46, 1)" stroke-width="1.5"></path><path d="M-69.64 383.75L-88.24 557.31" stroke="rgba(216, 156, 46, 1)" stroke-width="1.5"></path><path d="M-69.64 383.75L-105.88 697.03" stroke="rgba(216, 156, 46, 1)" stroke-width="1.5"></path><path d="M-69.64 383.75L255.46 374.37" stroke="rgba(216, 156, 46, 1)" stroke-width="1.5"></path><path d="M-69.64 383.75L231.82 541.89" stroke="rgba(216, 156, 46, 1)" stroke-width="1.5"></path><path d="M-69.64 383.75L96.6 685.49" stroke="rgba(216, 156, 46, 1)" stroke-width="1.5"></path><path d="M-88.24 557.31L-88.24 557.31" stroke="rgba(216, 156, 46, 1)" stroke-width="1.5"></path><path d="M-88.24 557.31L-105.88 697.03" stroke="rgba(216, 156, 46, 1)" stroke-width="1.5"></path><path d="M-88.24 557.31L59.04 412.48" stroke="rgba(216, 156, 46, 1)" stroke-width="1.5"></path><path d="M-88.24 557.31L96.6 685.49" stroke="rgba(216, 156, 46, 1)" stroke-width="1.5"></path><path d="M-105.88 697.03L-105.88 697.03" stroke="rgba(216, 156, 46, 1)" stroke-width="1.5"></path><path d="M-105.88 697.03L96.6 685.49" stroke="rgba(216, 156, 46, 1)" stroke-width="1.5"></path><path d="M-105.88 697.03L202.44 668.82" stroke="rgba(216, 156, 46, 1)" stroke-width="1.5"></path><path d="M59.04 412.48L59.04 412.48" stroke="rgba(216, 156, 46, 1)" stroke-width="1.5"></path><path d="M59.04 412.48L255.46 374.37" stroke="rgba(216, 156, 46, 1)" stroke-width="1.5"></path><path d="M96.6 685.49L96.6 685.49" stroke="rgba(216, 156, 46, 1)" stroke-width="1.5"></path><path d="M96.6 685.49L202.44 668.82" stroke="rgba(216, 156, 46, 1)" stroke-width="1.5"></path><path d="M96.6 685.49L231.82 541.89" stroke="rgba(216, 156, 46, 1)" stroke-width="1.5"></path><path d="M255.46 374.37L255.46 374.37" stroke="rgba(216, 156, 46, 1)" stroke-width="1.5"></path><path d="M255.46 374.37L343.92 401.12" stroke="rgba(216, 156, 46, 1)" stroke-width="1.5"></path><path d="M255.46 374.37L231.82 541.89" stroke="rgba(216, 156, 46, 1)" stroke-width="1.5"></path><path d="M231.82 541.89L231.82 541.89" stroke="rgba(216, 156, 46, 1)" stroke-width="1.5"></path><path d="M231.82 541.89L202.44 668.82" stroke="rgba(216, 156, 46, 1)" stroke-width="1.5"></path><path d="M231.82 541.89L372.69 531.89" stroke="rgba(216, 156, 46, 1)" stroke-width="1.5"></path><path d="M231.82 541.89L338.44 670.65" stroke="rgba(216, 156, 46, 1)" stroke-width="1.5"></path><path d="M231.82 541.89L343.92 401.12" stroke="rgba(216, 156, 46, 1)" stroke-width="1.5"></path><path d="M202.44 668.82L202.44 668.82" stroke="rgba(216, 156, 46, 1)" stroke-width="1.5"></path><path d="M343.92 401.12L343.92 401.12" stroke="rgba(216, 156, 46, 1)" stroke-width="1.5"></path><path d="M343.92 401.12L372.69 531.89" stroke="rgba(216, 156, 46, 1)" stroke-width="1.5"></path><path d="M343.92 401.12L537.34 397.3" stroke="rgba(216, 156, 46, 1)" stroke-width="1.5"></path><path d="M372.69 531.89L372.69 531.89" stroke="rgba(216, 156, 46, 1)" stroke-width="1.5"></path><path d="M372.69 531.89L498.45 538.85" stroke="rgba(216, 156, 46, 1)" stroke-width="1.5"></path><path d="M372.69 531.89L338.44 670.65" stroke="rgba(216, 156, 46, 1)" stroke-width="1.5"></path><path d="M338.44 670.65L338.44 670.65" stroke="rgba(216, 156, 46, 1)" stroke-width="1.5"></path><path d="M338.44 670.65L202.44 668.82" stroke="rgba(216, 156, 46, 1)" stroke-width="1.5"></path><path d="M338.44 670.65L491.47 664.55" stroke="rgba(216, 156, 46, 1)" stroke-width="1.5"></path><path d="M537.34 397.3L537.34 397.3" stroke="rgba(216, 156, 46, 1)" stroke-width="1.5"></path><path d="M537.34 397.3L498.45 538.85" stroke="rgba(216, 156, 46, 1)" stroke-width="1.5"></path><path d="M537.34 397.3L700.49 397.45" stroke="rgba(216, 156, 46, 1)" stroke-width="1.5"></path><path d="M498.45 538.85L498.45 538.85" stroke="rgba(216, 156, 46, 1)" stroke-width="1.5"></path><path d="M498.45 538.85L491.47 664.55" stroke="rgba(216, 156, 46, 1)" stroke-width="1.5"></path><path d="M491.47 664.55L491.47 664.55" stroke="rgba(216, 156, 46, 1)" stroke-width="1.5"></path><path d="M491.47 664.55L372.69 531.89" stroke="rgba(216, 156, 46, 1)" stroke-width="1.5"></path><path d="M491.47 664.55L697.77 703.08" stroke="rgba(216, 156, 46, 1)" stroke-width="1.5"></path><path d="M491.47 664.55L664.2 526.55" stroke="rgba(216, 156, 46, 1)" stroke-width="1.5"></path><path d="M491.47 664.55L537.34 397.3" stroke="rgba(216, 156, 46, 1)" stroke-width="1.5"></path><path d="M646.92 257.1L646.92 257.1" stroke="rgba(216, 156, 46, 1)" stroke-width="1.5"></path><path d="M646.92 257.1L700.49 397.45" stroke="rgba(216, 156, 46, 1)" stroke-width="1.5"></path><path d="M646.92 257.1L537.34 397.3" stroke="rgba(216, 156, 46, 1)" stroke-width="1.5"></path><path d="M700.49 397.45L700.49 397.45" stroke="rgba(216, 156, 46, 1)" stroke-width="1.5"></path><path d="M700.49 397.45L664.2 526.55" stroke="rgba(216, 156, 46, 1)" stroke-width="1.5"></path><path d="M700.49 397.45L838.58 340.06" stroke="rgba(216, 156, 46, 1)" stroke-width="1.5"></path><path d="M700.49 397.45L840.23 497.27" stroke="rgba(216, 156, 46, 1)" stroke-width="1.5"></path><path d="M700.49 397.45L839.76 197.27" stroke="rgba(216, 156, 46, 1)" stroke-width="1.5"></path><path d="M664.2 526.55L664.2 526.55" stroke="rgba(216, 156, 46, 1)" stroke-width="1.5"></path><path d="M664.2 526.55L498.45 538.85" stroke="rgba(216, 156, 46, 1)" stroke-width="1.5"></path><path d="M664.2 526.55L840.23 497.27" stroke="rgba(216, 156, 46, 1)" stroke-width="1.5"></path><path d="M664.2 526.55L697.77 703.08" stroke="rgba(216, 156, 46, 1)" stroke-width="1.5"></path><path d="M664.2 526.55L537.34 397.3" stroke="rgba(216, 156, 46, 1)" stroke-width="1.5"></path><path d="M697.77 703.08L697.77 703.08" stroke="rgba(216, 156, 46, 1)" stroke-width="1.5"></path><path d="M697.77 703.08L840.23 497.27" stroke="rgba(216, 156, 46, 1)" stroke-width="1.5"></path><path d="M839.76 197.27L839.76 197.27" stroke="rgba(216, 156, 46, 1)" stroke-width="1.5"></path><path d="M839.76 197.27L952.49 202.71" stroke="rgba(216, 156, 46, 1)" stroke-width="1.5"></path><path d="M839.76 197.27L838.58 340.06" stroke="rgba(216, 156, 46, 1)" stroke-width="1.5"></path><path d="M839.76 197.27L938.83 41.71" stroke="rgba(216, 156, 46, 1)" stroke-width="1.5"></path><path d="M839.76 197.27L646.92 257.1" stroke="rgba(216, 156, 46, 1)" stroke-width="1.5"></path><path d="M838.58 340.06L838.58 340.06" stroke="rgba(216, 156, 46, 1)" stroke-width="1.5"></path><path d="M838.58 340.06L978.09 389.19" stroke="rgba(216, 156, 46, 1)" stroke-width="1.5"></path><path d="M840.23 497.27L840.23 497.27" stroke="rgba(216, 156, 46, 1)" stroke-width="1.5"></path><path d="M840.23 497.27L943.73 556.96" stroke="rgba(216, 156, 46, 1)" stroke-width="1.5"></path><path d="M840.23 497.27L838.58 340.06" stroke="rgba(216, 156, 46, 1)" stroke-width="1.5"></path><path d="M840.23 497.27L978.09 389.19" stroke="rgba(216, 156, 46, 1)" stroke-width="1.5"></path><path d="M980.19 -82.71L980.19 -82.71" stroke="rgba(216, 156, 46, 1)" stroke-width="1.5"></path><path d="M980.19 -82.71L938.83 41.71" stroke="rgba(216, 156, 46, 1)" stroke-width="1.5"></path><path d="M980.19 -82.71L1139.85 -97.84" stroke="rgba(216, 156, 46, 1)" stroke-width="1.5"></path><path d="M980.19 -82.71L1110.65 99.57" stroke="rgba(216, 156, 46, 1)" stroke-width="1.5"></path><path d="M980.19 -82.71L1257.45 -62.88" stroke="rgba(216, 156, 46, 1)" stroke-width="1.5"></path><path d="M938.83 41.71L938.83 41.71" stroke="rgba(216, 156, 46, 1)" stroke-width="1.5"></path><path d="M938.83 41.71L952.49 202.71" stroke="rgba(216, 156, 46, 1)" stroke-width="1.5"></path><path d="M938.83 41.71L1110.65 99.57" stroke="rgba(216, 156, 46, 1)" stroke-width="1.5"></path><path d="M938.83 41.71L1139.85 -97.84" stroke="rgba(216, 156, 46, 1)" stroke-width="1.5"></path><path d="M938.83 41.71L1131.86 241.74" stroke="rgba(216, 156, 46, 1)" stroke-width="1.5"></path><path d="M952.49 202.71L952.49 202.71" stroke="rgba(216, 156, 46, 1)" stroke-width="1.5"></path><path d="M952.49 202.71L838.58 340.06" stroke="rgba(216, 156, 46, 1)" stroke-width="1.5"></path><path d="M978.09 389.19L978.09 389.19" stroke="rgba(216, 156, 46, 1)" stroke-width="1.5"></path><path d="M978.09 389.19L1115.51 370.14" stroke="rgba(216, 156, 46, 1)" stroke-width="1.5"></path><path d="M943.73 556.96L943.73 556.96" stroke="rgba(216, 156, 46, 1)" stroke-width="1.5"></path><path d="M943.73 556.96L944.44 647.46" stroke="rgba(216, 156, 46, 1)" stroke-width="1.5"></path><path d="M943.73 556.96L1111.3 544.42" stroke="rgba(216, 156, 46, 1)" stroke-width="1.5"></path><path d="M943.73 556.96L978.09 389.19" stroke="rgba(216, 156, 46, 1)" stroke-width="1.5"></path><path d="M943.73 556.96L1088.61 677.15" stroke="rgba(216, 156, 46, 1)" stroke-width="1.5"></path><path d="M944.44 647.46L944.44 647.46" stroke="rgba(216, 156, 46, 1)" stroke-width="1.5"></path><path d="M944.44 647.46L1088.61 677.15" stroke="rgba(216, 156, 46, 1)" stroke-width="1.5"></path><path d="M944.44 647.46L840.23 497.27" stroke="rgba(216, 156, 46, 1)" stroke-width="1.5"></path><path d="M944.44 647.46L1111.3 544.42" stroke="rgba(216, 156, 46, 1)" stroke-width="1.5"></path><path d="M944.44 647.46L697.77 703.08" stroke="rgba(216, 156, 46, 1)" stroke-width="1.5"></path><path d="M1139.85 -97.84L1139.85 -97.84" stroke="rgba(216, 156, 46, 1)" stroke-width="1.5"></path><path d="M1139.85 -97.84L1257.45 -62.88" stroke="rgba(216, 156, 46, 1)" stroke-width="1.5"></path><path d="M1139.85 -97.84L1110.65 99.57" stroke="rgba(216, 156, 46, 1)" stroke-width="1.5"></path><path d="M1110.65 99.57L1110.65 99.57" stroke="rgba(216, 156, 46, 1)" stroke-width="1.5"></path><path d="M1110.65 99.57L1250.34 82.34" stroke="rgba(216, 156, 46, 1)" stroke-width="1.5"></path><path d="M1110.65 99.57L1131.86 241.74" stroke="rgba(216, 156, 46, 1)" stroke-width="1.5"></path><path d="M1110.65 99.57L952.49 202.71" stroke="rgba(216, 156, 46, 1)" stroke-width="1.5"></path><path d="M1110.65 99.57L1257.45 -62.88" stroke="rgba(216, 156, 46, 1)" stroke-width="1.5"></path><path d="M1131.86 241.74L1131.86 241.74" stroke="rgba(216, 156, 46, 1)" stroke-width="1.5"></path><path d="M1131.86 241.74L1115.51 370.14" stroke="rgba(216, 156, 46, 1)" stroke-width="1.5"></path><path d="M1131.86 241.74L1239.04 350.07" stroke="rgba(216, 156, 46, 1)" stroke-width="1.5"></path><path d="M1131.86 241.74L1299.51 223.19" stroke="rgba(216, 156, 46, 1)" stroke-width="1.5"></path><path d="M1131.86 241.74L952.49 202.71" stroke="rgba(216, 156, 46, 1)" stroke-width="1.5"></path><path d="M1131.86 241.74L1250.34 82.34" stroke="rgba(216, 156, 46, 1)" stroke-width="1.5"></path><path d="M1115.51 370.14L1115.51 370.14" stroke="rgba(216, 156, 46, 1)" stroke-width="1.5"></path><path d="M1115.51 370.14L1239.04 350.07" stroke="rgba(216, 156, 46, 1)" stroke-width="1.5"></path><path d="M1115.51 370.14L1111.3 544.42" stroke="rgba(216, 156, 46, 1)" stroke-width="1.5"></path><path d="M1111.3 544.42L1111.3 544.42" stroke="rgba(216, 156, 46, 1)" stroke-width="1.5"></path><path d="M1111.3 544.42L1088.61 677.15" stroke="rgba(216, 156, 46, 1)" stroke-width="1.5"></path><path d="M1088.61 677.15L1088.61 677.15" stroke="rgba(216, 156, 46, 1)" stroke-width="1.5"></path><path d="M1088.61 677.15L1295.41 684.24" stroke="rgba(216, 156, 46, 1)" stroke-width="1.5"></path><path d="M1088.61 677.15L1295.53 487.78" stroke="rgba(216, 156, 46, 1)" stroke-width="1.5"></path><path d="M1257.45 -62.88L1257.45 -62.88" stroke="rgba(216, 156, 46, 1)" stroke-width="1.5"></path><path d="M1257.45 -62.88L1250.34 82.34" stroke="rgba(216, 156, 46, 1)" stroke-width="1.5"></path><path d="M1250.34 82.34L1250.34 82.34" stroke="rgba(216, 156, 46, 1)" stroke-width="1.5"></path><path d="M1250.34 82.34L1389.66 87.47" stroke="rgba(216, 156, 46, 1)" stroke-width="1.5"></path><path d="M1250.34 82.34L1299.51 223.19" stroke="rgba(216, 156, 46, 1)" stroke-width="1.5"></path><path d="M1250.34 82.34L1390.96 209.17" stroke="rgba(216, 156, 46, 1)" stroke-width="1.5"></path><path d="M1299.51 223.19L1299.51 223.19" stroke="rgba(216, 156, 46, 1)" stroke-width="1.5"></path><path d="M1299.51 223.19L1390.96 209.17" stroke="rgba(216, 156, 46, 1)" stroke-width="1.5"></path><path d="M1299.51 223.19L1239.04 350.07" stroke="rgba(216, 156, 46, 1)" stroke-width="1.5"></path><path d="M1299.51 223.19L1389.66 87.47" stroke="rgba(216, 156, 46, 1)" stroke-width="1.5"></path><path d="M1299.51 223.19L1428.85 348.68" stroke="rgba(216, 156, 46, 1)" stroke-width="1.5"></path><path d="M1239.04 350.07L1239.04 350.07" stroke="rgba(216, 156, 46, 1)" stroke-width="1.5"></path><path d="M1295.53 487.78L1295.53 487.78" stroke="rgba(216, 156, 46, 1)" stroke-width="1.5"></path><path d="M1295.53 487.78L1392.98 557.49" stroke="rgba(216, 156, 46, 1)" stroke-width="1.5"></path><path d="M1295.53 487.78L1239.04 350.07" stroke="rgba(216, 156, 46, 1)" stroke-width="1.5"></path><path d="M1295.53 487.78L1428.85 348.68" stroke="rgba(216, 156, 46, 1)" stroke-width="1.5"></path><path d="M1295.53 487.78L1111.3 544.42" stroke="rgba(216, 156, 46, 1)" stroke-width="1.5"></path><path d="M1295.53 487.78L1295.41 684.24" stroke="rgba(216, 156, 46, 1)" stroke-width="1.5"></path><path d="M1295.53 487.78L1401.71 662.58" stroke="rgba(216, 156, 46, 1)" stroke-width="1.5"></path><path d="M1295.41 684.24L1295.41 684.24" stroke="rgba(216, 156, 46, 1)" stroke-width="1.5"></path><path d="M1295.41 684.24L1401.71 662.58" stroke="rgba(216, 156, 46, 1)" stroke-width="1.5"></path><path d="M1295.41 684.24L1392.98 557.49" stroke="rgba(216, 156, 46, 1)" stroke-width="1.5"></path><path d="M1410.6 -44.52L1410.6 -44.52" stroke="rgba(216, 156, 46, 1)" stroke-width="1.5"></path><path d="M1410.6 -44.52L1389.66 87.47" stroke="rgba(216, 156, 46, 1)" stroke-width="1.5"></path><path d="M1410.6 -44.52L1547.5 -111.17" stroke="rgba(216, 156, 46, 1)" stroke-width="1.5"></path><path d="M1410.6 -44.52L1257.45 -62.88" stroke="rgba(216, 156, 46, 1)" stroke-width="1.5"></path><path d="M1410.6 -44.52L1562.52 42.46" stroke="rgba(216, 156, 46, 1)" stroke-width="1.5"></path><path d="M1410.6 -44.52L1250.34 82.34" stroke="rgba(216, 156, 46, 1)" stroke-width="1.5"></path><path d="M1389.66 87.47L1389.66 87.47" stroke="rgba(216, 156, 46, 1)" stroke-width="1.5"></path><path d="M1389.66 87.47L1390.96 209.17" stroke="rgba(216, 156, 46, 1)" stroke-width="1.5"></path><path d="M1389.66 87.47L1562.52 42.46" stroke="rgba(216, 156, 46, 1)" stroke-width="1.5"></path><path d="M1389.66 87.47L1257.45 -62.88" stroke="rgba(216, 156, 46, 1)" stroke-width="1.5"></path><path d="M1390.96 209.17L1390.96 209.17" stroke="rgba(216, 156, 46, 1)" stroke-width="1.5"></path><path d="M1390.96 209.17L1428.85 348.68" stroke="rgba(216, 156, 46, 1)" stroke-width="1.5"></path><path d="M1390.96 209.17L1578.76 231.06" stroke="rgba(216, 156, 46, 1)" stroke-width="1.5"></path><path d="M1428.85 348.68L1428.85 348.68" stroke="rgba(216, 156, 46, 1)" stroke-width="1.5"></path><path d="M1428.85 348.68L1558.25 341.04" stroke="rgba(216, 156, 46, 1)" stroke-width="1.5"></path><path d="M1392.98 557.49L1392.98 557.49" stroke="rgba(216, 156, 46, 1)" stroke-width="1.5"></path><path d="M1392.98 557.49L1401.71 662.58" stroke="rgba(216, 156, 46, 1)" stroke-width="1.5"></path><path d="M1392.98 557.49L1428.85 348.68" stroke="rgba(216, 156, 46, 1)" stroke-width="1.5"></path><path d="M1392.98 557.49L1610.33 515.46" stroke="rgba(216, 156, 46, 1)" stroke-width="1.5"></path><path d="M1401.71 662.58L1401.71 662.58" stroke="rgba(216, 156, 46, 1)" stroke-width="1.5"></path><path d="M1401.71 662.58L1573.44 687.84" stroke="rgba(216, 156, 46, 1)" stroke-width="1.5"></path><path d="M1547.5 -111.17L1547.5 -111.17" stroke="rgba(216, 156, 46, 1)" stroke-width="1.5"></path><path d="M1547.5 -111.17L1562.52 42.46" stroke="rgba(216, 156, 46, 1)" stroke-width="1.5"></path><path d="M1547.5 -111.17L1389.66 87.47" stroke="rgba(216, 156, 46, 1)" stroke-width="1.5"></path><path d="M1562.52 42.46L1562.52 42.46" stroke="rgba(216, 156, 46, 1)" stroke-width="1.5"></path><path d="M1578.76 231.06L1578.76 231.06" stroke="rgba(216, 156, 46, 1)" stroke-width="1.5"></path><path d="M1578.76 231.06L1558.25 341.04" stroke="rgba(216, 156, 46, 1)" stroke-width="1.5"></path><path d="M1578.76 231.06L1562.52 42.46" stroke="rgba(216, 156, 46, 1)" stroke-width="1.5"></path><path d="M1578.76 231.06L1428.85 348.68" stroke="rgba(216, 156, 46, 1)" stroke-width="1.5"></path><path d="M1578.76 231.06L1389.66 87.47" stroke="rgba(216, 156, 46, 1)" stroke-width="1.5"></path><path d="M1558.25 341.04L1558.25 341.04" stroke="rgba(216, 156, 46, 1)" stroke-width="1.5"></path><path d="M1558.25 341.04L1610.33 515.46" stroke="rgba(216, 156, 46, 1)" stroke-width="1.5"></path><path d="M1610.33 515.46L1610.33 515.46" stroke="rgba(216, 156, 46, 1)" stroke-width="1.5"></path><path d="M1610.33 515.46L1573.44 687.84" stroke="rgba(216, 156, 46, 1)" stroke-width="1.5"></path><path d="M1573.44 687.84L1573.44 687.84" stroke="rgba(216, 156, 46, 1)" stroke-width="1.5"></path><path d="M1573.44 687.84L1392.98 557.49" stroke="rgba(216, 156, 46, 1)" stroke-width="1.5"></path><path d="M1573.44 687.84L1295.41 684.24" stroke="rgba(216, 156, 46, 1)" stroke-width="1.5"></path><circle r="5" cx="-69.64" cy="383.75" fill="rgba(216, 156, 46, 1)"></circle><circle r="5" cx="-88.24" cy="557.31" fill="rgba(216, 156, 46, 1)"></circle><circle r="5" cx="-105.88" cy="697.03" fill="rgba(216, 156, 46, 1)"></circle><circle r="5" cx="59.04" cy="412.48" fill="rgba(216, 156, 46, 1)"></circle><circle r="5" cx="96.6" cy="685.49" fill="rgba(216, 156, 46, 1)"></circle><circle r="5" cx="255.46" cy="374.37" fill="rgba(216, 156, 46, 1)"></circle><circle r="5" cx="231.82" cy="541.89" fill="rgba(216, 156, 46, 1)"></circle><circle r="5" cx="202.44" cy="668.82" fill="rgba(216, 156, 46, 1)"></circle><circle r="5" cx="343.92" cy="401.12" fill="rgba(216, 156, 46, 1)"></circle><circle r="5" cx="372.69" cy="531.89" fill="rgba(216, 156, 46, 1)"></circle><circle r="5" cx="338.44" cy="670.65" fill="rgba(216, 156, 46, 1)"></circle><circle r="5" cx="537.34" cy="397.3" fill="rgba(216, 156, 46, 1)"></circle><circle r="5" cx="498.45" cy="538.85" fill="rgba(216, 156, 46, 1)"></circle><circle r="5" cx="491.47" cy="664.55" fill="rgba(216, 156, 46, 1)"></circle><circle r="5" cx="646.92" cy="257.1" fill="rgba(216, 156, 46, 1)"></circle><circle r="5" cx="700.49" cy="397.45" fill="rgba(216, 156, 46, 1)"></circle><circle r="5" cx="664.2" cy="526.55" fill="rgba(216, 156, 46, 1)"></circle><circle r="5" cx="697.77" cy="703.08" fill="rgba(216, 156, 46, 1)"></circle><circle r="5" cx="839.76" cy="197.27" fill="rgba(216, 156, 46, 1)"></circle><circle r="5" cx="838.58" cy="340.06" fill="rgba(216, 156, 46, 1)"></circle><circle r="5" cx="840.23" cy="497.27" fill="rgba(216, 156, 46, 1)"></circle><circle r="5" cx="980.19" cy="-82.71" fill="rgba(216, 156, 46, 1)"></circle><circle r="5" cx="938.83" cy="41.71" fill="rgba(216, 156, 46, 1)"></circle><circle r="5" cx="952.49" cy="202.71" fill="rgba(216, 156, 46, 1)"></circle><circle r="5" cx="978.09" cy="389.19" fill="rgba(216, 156, 46, 1)"></circle><circle r="5" cx="943.73" cy="556.96" fill="rgba(216, 156, 46, 1)"></circle><circle r="5" cx="944.44" cy="647.46" fill="rgba(216, 156, 46, 1)"></circle><circle r="5" cx="1139.85" cy="-97.84" fill="rgba(216, 156, 46, 1)"></circle><circle r="5" cx="1110.65" cy="99.57" fill="rgba(216, 156, 46, 1)"></circle><circle r="5" cx="1131.86" cy="241.74" fill="rgba(216, 156, 46, 1)"></circle><circle r="5" cx="1115.51" cy="370.14" fill="rgba(216, 156, 46, 1)"></circle><circle r="5" cx="1111.3" cy="544.42" fill="rgba(216, 156, 46, 1)"></circle><circle r="5" cx="1088.61" cy="677.15" fill="rgba(216, 156, 46, 1)"></circle><circle r="5" cx="1257.45" cy="-62.88" fill="rgba(216, 156, 46, 1)"></circle><circle r="5" cx="1250.34" cy="82.34" fill="rgba(216, 156, 46, 1)"></circle><circle r="5" cx="1299.51" cy="223.19" fill="rgba(216, 156, 46, 1)"></circle><circle r="5" cx="1239.04" cy="350.07" fill="rgba(216, 156, 46, 1)"></circle><circle r="5" cx="1295.53" cy="487.78" fill="rgba(216, 156, 46, 1)"></circle><circle r="5" cx="1295.41" cy="684.24" fill="rgba(216, 156, 46, 1)"></circle><circle r="5" cx="1410.6" cy="-44.52" fill="rgba(216, 156, 46, 1)"></circle><circle r="5" cx="1389.66" cy="87.47" fill="rgba(216, 156, 46, 1)"></circle><circle r="5" cx="1390.96" cy="209.17" fill="rgba(216, 156, 46, 1)"></circle><circle r="5" cx="1428.85" cy="348.68" fill="rgba(216, 156, 46, 1)"></circle><circle r="5" cx="1392.98" cy="557.49" fill="rgba(216, 156, 46, 1)"></circle><circle r="5" cx="1401.71" cy="662.58" fill="rgba(216, 156, 46, 1)"></circle><circle r="5" cx="1547.5" cy="-111.17" fill="rgba(216, 156, 46, 1)"></circle><circle r="5" cx="1562.52" cy="42.46" fill="rgba(216, 156, 46, 1)"></circle><circle r="5" cx="1578.76" cy="231.06" fill="rgba(216, 156, 46, 1)"></circle><circle r="5" cx="1558.25" cy="341.04" fill="rgba(216, 156, 46, 1)"></circle><circle r="5" cx="1610.33" cy="515.46" fill="rgba(216, 156, 46, 1)"></circle><circle r="5" cx="1573.44" cy="687.84" fill="rgba(216, 156, 46, 1)"></circle><path d="M205.53 561.66L205.53 561.66" stroke="hsl(38.89999999999998, 91.7%, 81.1%)" stroke-width="1.5"></path><path d="M205.53 561.66L239.01 670.4" stroke="hsl(38.89999999999998, 91.7%, 81.1%)" stroke-width="1.5"></path><path d="M503.34 675.28L503.34 675.28" stroke="hsl(38.89999999999998, 91.7%, 81.1%)" stroke-width="1.5"></path><path d="M503.34 675.28L638.92 708.36" stroke="hsl(38.89999999999998, 91.7%, 81.1%)" stroke-width="1.5"></path><path d="M503.34 675.28L343.87 673.8" stroke="hsl(38.89999999999998, 91.7%, 81.1%)" stroke-width="1.5"></path><path d="M503.34 675.28L662.26 498.01" stroke="hsl(38.89999999999998, 91.7%, 81.1%)" stroke-width="1.5"></path><path d="M503.34 675.28L239.01 670.4" stroke="hsl(38.89999999999998, 91.7%, 81.1%)" stroke-width="1.5"></path><path d="M503.34 675.28L205.53 561.66" stroke="hsl(38.89999999999998, 91.7%, 81.1%)" stroke-width="1.5"></path><path d="M677.51 406.8L677.51 406.8" stroke="hsl(38.89999999999998, 91.7%, 81.1%)" stroke-width="1.5"></path><path d="M677.51 406.8L662.26 498.01" stroke="hsl(38.89999999999998, 91.7%, 81.1%)" stroke-width="1.5"></path><path d="M677.51 406.8L831.66 338.18" stroke="hsl(38.89999999999998, 91.7%, 81.1%)" stroke-width="1.5"></path><path d="M677.51 406.8L843.66 542.9" stroke="hsl(38.89999999999998, 91.7%, 81.1%)" stroke-width="1.5"></path><path d="M677.51 406.8L961.94 365.77" stroke="hsl(38.89999999999998, 91.7%, 81.1%)" stroke-width="1.5"></path><path d="M677.51 406.8L638.92 708.36" stroke="hsl(38.89999999999998, 91.7%, 81.1%)" stroke-width="1.5"></path><path d="M677.51 406.8L952.64 556.17" stroke="hsl(38.89999999999998, 91.7%, 81.1%)" stroke-width="1.5"></path><path d="M1110.74 195.74L1110.74 195.74" stroke="hsl(38.89999999999998, 91.7%, 81.1%)" stroke-width="1.5"></path><path d="M1110.74 195.74L1135.5 97.46" stroke="hsl(38.89999999999998, 91.7%, 81.1%)" stroke-width="1.5"></path><path d="M1110.74 195.74L1137.2 372.65" stroke="hsl(38.89999999999998, 91.7%, 81.1%)" stroke-width="1.5"></path><path d="M1110.74 195.74L1297.58 250.91" stroke="hsl(38.89999999999998, 91.7%, 81.1%)" stroke-width="1.5"></path><path d="M1130.72 537.92L1130.72 537.92" stroke="hsl(38.89999999999998, 91.7%, 81.1%)" stroke-width="1.5"></path><path d="M1130.72 537.92L1137.2 372.65" stroke="hsl(38.89999999999998, 91.7%, 81.1%)" stroke-width="1.5"></path><path d="M1130.72 537.92L1131.92 704.88" stroke="hsl(38.89999999999998, 91.7%, 81.1%)" stroke-width="1.5"></path><path d="M1130.72 537.92L1001.8 649.17" stroke="hsl(38.89999999999998, 91.7%, 81.1%)" stroke-width="1.5"></path><path d="M1130.72 537.92L952.64 556.17" stroke="hsl(38.89999999999998, 91.7%, 81.1%)" stroke-width="1.5"></path><path d="M1130.72 537.92L1309.09 492.8" stroke="hsl(38.89999999999998, 91.7%, 81.1%)" stroke-width="1.5"></path><path d="M1434.77 198.03L1434.77 198.03" stroke="hsl(38.89999999999998, 91.7%, 81.1%)" stroke-width="1.5"></path><path d="M1434.77 198.03L1297.58 250.91" stroke="hsl(38.89999999999998, 91.7%, 81.1%)" stroke-width="1.5"></path><path d="M1434.77 198.03L1431.78 49.88" stroke="hsl(38.89999999999998, 91.7%, 81.1%)" stroke-width="1.5"></path><path d="M1434.77 198.03L1582.8 217.05" stroke="hsl(38.89999999999998, 91.7%, 81.1%)" stroke-width="1.5"></path><path d="M1434.77 198.03L1301.02 81.6" stroke="hsl(38.89999999999998, 91.7%, 81.1%)" stroke-width="1.5"></path><path d="M1567.5 498.84L1567.5 498.84" stroke="hsl(38.89999999999998, 91.7%, 81.1%)" stroke-width="1.5"></path><path d="M1567.5 498.84L1436.93 507.53" stroke="hsl(38.89999999999998, 91.7%, 81.1%)" stroke-width="1.5"></path><path d="M1567.5 498.84L1571.02 360.98" stroke="hsl(38.89999999999998, 91.7%, 81.1%)" stroke-width="1.5"></path><path d="M1567.5 498.84L1451.88 401.45" stroke="hsl(38.89999999999998, 91.7%, 81.1%)" stroke-width="1.5"></path><path d="M-69.67 491.68L-69.67 491.68" stroke="hsl(38.89999999999998, 91.7%, 81.1%)" stroke-width="1.5"></path><path d="M-69.67 491.68L70.47 549.62" stroke="hsl(38.89999999999998, 91.7%, 81.1%)" stroke-width="1.5"></path><path d="M-69.67 491.68L-99.66 641.07" stroke="hsl(38.89999999999998, 91.7%, 81.1%)" stroke-width="1.5"></path><path d="M-69.67 491.68L46.51 701.39" stroke="hsl(38.89999999999998, 91.7%, 81.1%)" stroke-width="1.5"></path><path d="M-99.66 641.07L-99.66 641.07" stroke="hsl(38.89999999999998, 91.7%, 81.1%)" stroke-width="1.5"></path><path d="M-99.66 641.07L46.51 701.39" stroke="hsl(38.89999999999998, 91.7%, 81.1%)" stroke-width="1.5"></path><path d="M-99.66 641.07L70.47 549.62" stroke="hsl(38.89999999999998, 91.7%, 81.1%)" stroke-width="1.5"></path><path d="M-99.66 641.07L205.53 561.66" stroke="hsl(38.89999999999998, 91.7%, 81.1%)" stroke-width="1.5"></path><path d="M-99.66 641.07L239.01 670.4" stroke="hsl(38.89999999999998, 91.7%, 81.1%)" stroke-width="1.5"></path><path d="M-99.66 641.07L343.87 673.8" stroke="hsl(38.89999999999998, 91.7%, 81.1%)" stroke-width="1.5"></path><path d="M70.47 549.62L70.47 549.62" stroke="hsl(38.89999999999998, 91.7%, 81.1%)" stroke-width="1.5"></path><path d="M70.47 549.62L205.53 561.66" stroke="hsl(38.89999999999998, 91.7%, 81.1%)" stroke-width="1.5"></path><path d="M70.47 549.62L46.51 701.39" stroke="hsl(38.89999999999998, 91.7%, 81.1%)" stroke-width="1.5"></path><path d="M46.51 701.39L46.51 701.39" stroke="hsl(38.89999999999998, 91.7%, 81.1%)" stroke-width="1.5"></path><path d="M46.51 701.39L239.01 670.4" stroke="hsl(38.89999999999998, 91.7%, 81.1%)" stroke-width="1.5"></path><path d="M46.51 701.39L205.53 561.66" stroke="hsl(38.89999999999998, 91.7%, 81.1%)" stroke-width="1.5"></path><path d="M239.01 670.4L239.01 670.4" stroke="hsl(38.89999999999998, 91.7%, 81.1%)" stroke-width="1.5"></path><path d="M239.01 670.4L343.87 673.8" stroke="hsl(38.89999999999998, 91.7%, 81.1%)" stroke-width="1.5"></path><path d="M239.01 670.4L70.47 549.62" stroke="hsl(38.89999999999998, 91.7%, 81.1%)" stroke-width="1.5"></path><path d="M343.87 673.8L343.87 673.8" stroke="hsl(38.89999999999998, 91.7%, 81.1%)" stroke-width="1.5"></path><path d="M343.87 673.8L205.53 561.66" stroke="hsl(38.89999999999998, 91.7%, 81.1%)" stroke-width="1.5"></path><path d="M662.26 498.01L662.26 498.01" stroke="hsl(38.89999999999998, 91.7%, 81.1%)" stroke-width="1.5"></path><path d="M662.26 498.01L843.66 542.9" stroke="hsl(38.89999999999998, 91.7%, 81.1%)" stroke-width="1.5"></path><path d="M638.92 708.36L638.92 708.36" stroke="hsl(38.89999999999998, 91.7%, 81.1%)" stroke-width="1.5"></path><path d="M638.92 708.36L825.21 710.28" stroke="hsl(38.89999999999998, 91.7%, 81.1%)" stroke-width="1.5"></path><path d="M638.92 708.36L662.26 498.01" stroke="hsl(38.89999999999998, 91.7%, 81.1%)" stroke-width="1.5"></path><path d="M638.92 708.36L843.66 542.9" stroke="hsl(38.89999999999998, 91.7%, 81.1%)" stroke-width="1.5"></path><path d="M831.66 338.18L831.66 338.18" stroke="hsl(38.89999999999998, 91.7%, 81.1%)" stroke-width="1.5"></path><path d="M831.66 338.18L961.94 365.77" stroke="hsl(38.89999999999998, 91.7%, 81.1%)" stroke-width="1.5"></path><path d="M843.66 542.9L843.66 542.9" stroke="hsl(38.89999999999998, 91.7%, 81.1%)" stroke-width="1.5"></path><path d="M843.66 542.9L952.64 556.17" stroke="hsl(38.89999999999998, 91.7%, 81.1%)" stroke-width="1.5"></path><path d="M843.66 542.9L825.21 710.28" stroke="hsl(38.89999999999998, 91.7%, 81.1%)" stroke-width="1.5"></path><path d="M825.21 710.28L825.21 710.28" stroke="hsl(38.89999999999998, 91.7%, 81.1%)" stroke-width="1.5"></path><path d="M825.21 710.28L1001.8 649.17" stroke="hsl(38.89999999999998, 91.7%, 81.1%)" stroke-width="1.5"></path><path d="M961.94 365.77L961.94 365.77" stroke="hsl(38.89999999999998, 91.7%, 81.1%)" stroke-width="1.5"></path><path d="M961.94 365.77L1137.2 372.65" stroke="hsl(38.89999999999998, 91.7%, 81.1%)" stroke-width="1.5"></path><path d="M961.94 365.77L952.64 556.17" stroke="hsl(38.89999999999998, 91.7%, 81.1%)" stroke-width="1.5"></path><path d="M961.94 365.77L843.66 542.9" stroke="hsl(38.89999999999998, 91.7%, 81.1%)" stroke-width="1.5"></path><path d="M952.64 556.17L952.64 556.17" stroke="hsl(38.89999999999998, 91.7%, 81.1%)" stroke-width="1.5"></path><path d="M952.64 556.17L1001.8 649.17" stroke="hsl(38.89999999999998, 91.7%, 81.1%)" stroke-width="1.5"></path><path d="M1001.8 649.17L1001.8 649.17" stroke="hsl(38.89999999999998, 91.7%, 81.1%)" stroke-width="1.5"></path><path d="M1001.8 649.17L1131.92 704.88" stroke="hsl(38.89999999999998, 91.7%, 81.1%)" stroke-width="1.5"></path><path d="M1001.8 649.17L843.66 542.9" stroke="hsl(38.89999999999998, 91.7%, 81.1%)" stroke-width="1.5"></path><path d="M1001.8 649.17L961.94 365.77" stroke="hsl(38.89999999999998, 91.7%, 81.1%)" stroke-width="1.5"></path><path d="M1135.5 97.46L1135.5 97.46" stroke="hsl(38.89999999999998, 91.7%, 81.1%)" stroke-width="1.5"></path><path d="M1135.5 97.46L1301.02 81.6" stroke="hsl(38.89999999999998, 91.7%, 81.1%)" stroke-width="1.5"></path><path d="M1135.5 97.46L1259.58 -86.92" stroke="hsl(38.89999999999998, 91.7%, 81.1%)" stroke-width="1.5"></path><path d="M1137.2 372.65L1137.2 372.65" stroke="hsl(38.89999999999998, 91.7%, 81.1%)" stroke-width="1.5"></path><path d="M1137.2 372.65L1242.04 359.61" stroke="hsl(38.89999999999998, 91.7%, 81.1%)" stroke-width="1.5"></path><path d="M1131.92 704.88L1131.92 704.88" stroke="hsl(38.89999999999998, 91.7%, 81.1%)" stroke-width="1.5"></path><path d="M1131.92 704.88L1304.84 695.23" stroke="hsl(38.89999999999998, 91.7%, 81.1%)" stroke-width="1.5"></path><path d="M1131.92 704.88L952.64 556.17" stroke="hsl(38.89999999999998, 91.7%, 81.1%)" stroke-width="1.5"></path><path d="M1131.92 704.88L1309.09 492.8" stroke="hsl(38.89999999999998, 91.7%, 81.1%)" stroke-width="1.5"></path><path d="M1131.92 704.88L825.21 710.28" stroke="hsl(38.89999999999998, 91.7%, 81.1%)" stroke-width="1.5"></path><path d="M1259.58 -86.92L1259.58 -86.92" stroke="hsl(38.89999999999998, 91.7%, 81.1%)" stroke-width="1.5"></path><path d="M1259.58 -86.92L1426.58 -65.66" stroke="hsl(38.89999999999998, 91.7%, 81.1%)" stroke-width="1.5"></path><path d="M1301.02 81.6L1301.02 81.6" stroke="hsl(38.89999999999998, 91.7%, 81.1%)" stroke-width="1.5"></path><path d="M1301.02 81.6L1431.78 49.88" stroke="hsl(38.89999999999998, 91.7%, 81.1%)" stroke-width="1.5"></path><path d="M1301.02 81.6L1297.58 250.91" stroke="hsl(38.89999999999998, 91.7%, 81.1%)" stroke-width="1.5"></path><path d="M1301.02 81.6L1259.58 -86.92" stroke="hsl(38.89999999999998, 91.7%, 81.1%)" stroke-width="1.5"></path><path d="M1301.02 81.6L1426.58 -65.66" stroke="hsl(38.89999999999998, 91.7%, 81.1%)" stroke-width="1.5"></path><path d="M1297.58 250.91L1297.58 250.91" stroke="hsl(38.89999999999998, 91.7%, 81.1%)" stroke-width="1.5"></path><path d="M1297.58 250.91L1242.04 359.61" stroke="hsl(38.89999999999998, 91.7%, 81.1%)" stroke-width="1.5"></path><path d="M1297.58 250.91L1137.2 372.65" stroke="hsl(38.89999999999998, 91.7%, 81.1%)" stroke-width="1.5"></path><path d="M1242.04 359.61L1242.04 359.61" stroke="hsl(38.89999999999998, 91.7%, 81.1%)" stroke-width="1.5"></path><path d="M1309.09 492.8L1309.09 492.8" stroke="hsl(38.89999999999998, 91.7%, 81.1%)" stroke-width="1.5"></path><path d="M1309.09 492.8L1436.93 507.53" stroke="hsl(38.89999999999998, 91.7%, 81.1%)" stroke-width="1.5"></path><path d="M1309.09 492.8L1242.04 359.61" stroke="hsl(38.89999999999998, 91.7%, 81.1%)" stroke-width="1.5"></path><path d="M1309.09 492.8L1451.88 401.45" stroke="hsl(38.89999999999998, 91.7%, 81.1%)" stroke-width="1.5"></path><path d="M1309.09 492.8L1304.84 695.23" stroke="hsl(38.89999999999998, 91.7%, 81.1%)" stroke-width="1.5"></path><path d="M1309.09 492.8L1137.2 372.65" stroke="hsl(38.89999999999998, 91.7%, 81.1%)" stroke-width="1.5"></path><path d="M1304.84 695.23L1304.84 695.23" stroke="hsl(38.89999999999998, 91.7%, 81.1%)" stroke-width="1.5"></path><path d="M1304.84 695.23L1455.51 706.94" stroke="hsl(38.89999999999998, 91.7%, 81.1%)" stroke-width="1.5"></path><path d="M1304.84 695.23L1436.93 507.53" stroke="hsl(38.89999999999998, 91.7%, 81.1%)" stroke-width="1.5"></path><path d="M1304.84 695.23L1130.72 537.92" stroke="hsl(38.89999999999998, 91.7%, 81.1%)" stroke-width="1.5"></path><path d="M1304.84 695.23L1609.97 666.2" stroke="hsl(38.89999999999998, 91.7%, 81.1%)" stroke-width="1.5"></path><path d="M1426.58 -65.66L1426.58 -65.66" stroke="hsl(38.89999999999998, 91.7%, 81.1%)" stroke-width="1.5"></path><path d="M1426.58 -65.66L1431.78 49.88" stroke="hsl(38.89999999999998, 91.7%, 81.1%)" stroke-width="1.5"></path><path d="M1426.58 -65.66L1564.28 -95.82" stroke="hsl(38.89999999999998, 91.7%, 81.1%)" stroke-width="1.5"></path><path d="M1431.78 49.88L1431.78 49.88" stroke="hsl(38.89999999999998, 91.7%, 81.1%)" stroke-width="1.5"></path><path d="M1431.78 49.88L1573.15 41.12" stroke="hsl(38.89999999999998, 91.7%, 81.1%)" stroke-width="1.5"></path><path d="M1431.78 49.88L1564.28 -95.82" stroke="hsl(38.89999999999998, 91.7%, 81.1%)" stroke-width="1.5"></path><path d="M1451.88 401.45L1451.88 401.45" stroke="hsl(38.89999999999998, 91.7%, 81.1%)" stroke-width="1.5"></path><path d="M1451.88 401.45L1436.93 507.53" stroke="hsl(38.89999999999998, 91.7%, 81.1%)" stroke-width="1.5"></path><path d="M1451.88 401.45L1571.02 360.98" stroke="hsl(38.89999999999998, 91.7%, 81.1%)" stroke-width="1.5"></path><path d="M1436.93 507.53L1436.93 507.53" stroke="hsl(38.89999999999998, 91.7%, 81.1%)" stroke-width="1.5"></path><path d="M1436.93 507.53L1571.02 360.98" stroke="hsl(38.89999999999998, 91.7%, 81.1%)" stroke-width="1.5"></path><path d="M1436.93 507.53L1455.51 706.94" stroke="hsl(38.89999999999998, 91.7%, 81.1%)" stroke-width="1.5"></path><path d="M1455.51 706.94L1455.51 706.94" stroke="hsl(38.89999999999998, 91.7%, 81.1%)" stroke-width="1.5"></path><path d="M1455.51 706.94L1609.97 666.2" stroke="hsl(38.89999999999998, 91.7%, 81.1%)" stroke-width="1.5"></path><path d="M1564.28 -95.82L1564.28 -95.82" stroke="hsl(38.89999999999998, 91.7%, 81.1%)" stroke-width="1.5"></path><path d="M1564.28 -95.82L1573.15 41.12" stroke="hsl(38.89999999999998, 91.7%, 81.1%)" stroke-width="1.5"></path><path d="M1564.28 -95.82L1259.58 -86.92" stroke="hsl(38.89999999999998, 91.7%, 81.1%)" stroke-width="1.5"></path><path d="M1564.28 -95.82L1582.8 217.05" stroke="hsl(38.89999999999998, 91.7%, 81.1%)" stroke-width="1.5"></path><path d="M1564.28 -95.82L1301.02 81.6" stroke="hsl(38.89999999999998, 91.7%, 81.1%)" stroke-width="1.5"></path><path d="M1573.15 41.12L1573.15 41.12" stroke="hsl(38.89999999999998, 91.7%, 81.1%)" stroke-width="1.5"></path><path d="M1573.15 41.12L1582.8 217.05" stroke="hsl(38.89999999999998, 91.7%, 81.1%)" stroke-width="1.5"></path><path d="M1573.15 41.12L1426.58 -65.66" stroke="hsl(38.89999999999998, 91.7%, 81.1%)" stroke-width="1.5"></path><path d="M1582.8 217.05L1582.8 217.05" stroke="hsl(38.89999999999998, 91.7%, 81.1%)" stroke-width="1.5"></path><path d="M1582.8 217.05L1571.02 360.98" stroke="hsl(38.89999999999998, 91.7%, 81.1%)" stroke-width="1.5"></path><path d="M1582.8 217.05L1431.78 49.88" stroke="hsl(38.89999999999998, 91.7%, 81.1%)" stroke-width="1.5"></path><path d="M1582.8 217.05L1451.88 401.45" stroke="hsl(38.89999999999998, 91.7%, 81.1%)" stroke-width="1.5"></path><path d="M1571.02 360.98L1571.02 360.98" stroke="hsl(38.89999999999998, 91.7%, 81.1%)" stroke-width="1.5"></path><path d="M1609.97 666.2L1609.97 666.2" stroke="hsl(38.89999999999998, 91.7%, 81.1%)" stroke-width="1.5"></path><path d="M1609.97 666.2L1567.5 498.84" stroke="hsl(38.89999999999998, 91.7%, 81.1%)" stroke-width="1.5"></path><path d="M1609.97 666.2L1436.93 507.53" stroke="hsl(38.89999999999998, 91.7%, 81.1%)" stroke-width="1.5"></path><circle r="25" cx="205.53" cy="561.66" fill="url(#SvgjsRadialGradient1061)"></circle><circle r="25" cx="503.34" cy="675.28" fill="url(#SvgjsRadialGradient1061)"></circle><circle r="25" cx="677.51" cy="406.8" fill="url(#SvgjsRadialGradient1061)"></circle><circle r="25" cx="1110.74" cy="195.74" fill="url(#SvgjsRadialGradient1061)"></circle><circle r="25" cx="1130.72" cy="537.92" fill="url(#SvgjsRadialGradient1061)"></circle><circle r="25" cx="1434.77" cy="198.03" fill="url(#SvgjsRadialGradient1061)"></circle><circle r="25" cx="1567.5" cy="498.84" fill="url(#SvgjsRadialGradient1061)"></circle><circle r="5" cx="-69.67" cy="491.68" fill="#fbdca3"></circle><circle r="5" cx="-99.66" cy="641.07" fill="#fbdca3"></circle><circle r="5" cx="70.47" cy="549.62" fill="#fbdca3"></circle><circle r="5" cx="46.51" cy="701.39" fill="#fbdca3"></circle><circle r="5" cx="239.01" cy="670.4" fill="#fbdca3"></circle><circle r="5" cx="343.87" cy="673.8" fill="#fbdca3"></circle><circle r="5" cx="662.26" cy="498.01" fill="#fbdca3"></circle><circle r="5" cx="638.92" cy="708.36" fill="#fbdca3"></circle><circle r="5" cx="831.66" cy="338.18" fill="#fbdca3"></circle><circle r="5" cx="843.66" cy="542.9" fill="#fbdca3"></circle><circle r="5" cx="825.21" cy="710.28" fill="#fbdca3"></circle><circle r="5" cx="961.94" cy="365.77" fill="#fbdca3"></circle><circle r="5" cx="952.64" cy="556.17" fill="#fbdca3"></circle><circle r="5" cx="1001.8" cy="649.17" fill="#fbdca3"></circle><circle r="5" cx="1135.5" cy="97.46" fill="#fbdca3"></circle><circle r="5" cx="1137.2" cy="372.65" fill="#fbdca3"></circle><circle r="5" cx="1131.92" cy="704.88" fill="#fbdca3"></circle><circle r="5" cx="1259.58" cy="-86.92" fill="#fbdca3"></circle><circle r="5" cx="1301.02" cy="81.6" fill="#fbdca3"></circle><circle r="5" cx="1297.58" cy="250.91" fill="#fbdca3"></circle><circle r="5" cx="1242.04" cy="359.61" fill="#fbdca3"></circle><circle r="5" cx="1309.09" cy="492.8" fill="#fbdca3"></circle><circle r="5" cx="1304.84" cy="695.23" fill="#fbdca3"></circle><circle r="5" cx="1426.58" cy="-65.66" fill="#fbdca3"></circle><circle r="5" cx="1431.78" cy="49.88" fill="#fbdca3"></circle><circle r="5" cx="1451.88" cy="401.45" fill="#fbdca3"></circle><circle r="5" cx="1436.93" cy="507.53" fill="#fbdca3"></circle><circle r="5" cx="1455.51" cy="706.94" fill="#fbdca3"></circle><circle r="5" cx="1564.28" cy="-95.82" fill="#fbdca3"></circle><circle r="5" cx="1573.15" cy="41.12" fill="#fbdca3"></circle><circle r="5" cx="1582.8" cy="217.05" fill="#fbdca3"></circle><circle r="5" cx="1571.02" cy="360.98" fill="#fbdca3"></circle><circle r="5" cx="1609.97" cy="666.2" fill="#fbdca3"></circle></g><defs><mask id="SvgjsMask1060"><rect width="1440" height="581" fill="#ffffff"></rect></mask><radialGradient id="SvgjsRadialGradient1061"><stop stop-color="#ffffff" offset="0.1"></stop><stop stop-color="rgba(247, 185, 71, 1)" offset="0.2"></stop><stop stop-color="rgba(247, 185, 71, 0)" offset="1"></stop></radialGradient></defs></svg>