<svg width="387" height="311" viewBox="0 0 387 311" fill="none" xmlns="http://www.w3.org/2000/svg">
<g clip-path="url(#clip0_2_691)">
<path d="M254.32 174.092C246.167 178.964 231.64 185.069 216.795 178.795L207.199 174.74L226.429 153.262C211.084 136.405 202.594 114.455 202.618 91.6976C202.641 68.9399 211.176 47.0075 226.555 30.1815C241.935 13.3556 263.056 2.8436 285.796 0.697508C308.536 -1.44858 331.263 4.92522 349.54 18.5748C367.817 32.2244 380.333 52.1701 384.645 74.5187C388.956 96.8674 384.755 120.015 372.859 139.443C360.964 158.871 342.229 173.186 320.311 179.592C298.393 185.999 274.865 184.038 254.32 174.092V174.092ZM217.476 91.6463C217.434 102.137 219.571 112.523 223.752 122.151C227.934 131.779 234.071 140.441 241.775 147.592L247.079 152.558L234.979 166.073C241.282 164.798 246.772 161.401 249.555 159.428L253.375 156.72L257.483 158.969C268.838 165.163 281.575 168.41 294.521 168.408C337.004 168.408 371.566 133.973 371.566 91.6464C371.566 49.3198 337.004 14.8845 294.521 14.8845C252.038 14.8845 217.476 49.3198 217.476 91.6464V91.6463Z" fill="#3F3D56"/>
<path d="M210.006 91.6463C210.006 45.1416 247.845 7.44214 294.521 7.44214C341.197 7.44214 379.036 45.1416 379.036 91.6463C379.036 138.151 341.197 175.85 294.521 175.85C280.315 175.871 266.336 172.308 253.886 165.492C248.044 169.634 233.792 177.894 219.712 171.944L236.66 153.015C228.235 145.151 221.522 135.645 216.937 125.088C212.352 114.532 209.993 103.149 210.006 91.6463Z" fill="#F9D126"/>
<path opacity="0.1" d="M364.638 91.8289C364.638 47.8327 330.77 11.7241 287.593 7.95585C290.055 7.74101 292.545 7.62476 295.063 7.62476C341.739 7.62476 379.578 45.3242 379.578 91.8289C379.578 138.334 341.739 176.033 295.063 176.033C292.549 176.033 290.063 175.915 287.605 175.701C330.776 171.927 364.638 135.821 364.638 91.8289Z" fill="black"/>
<path d="M99.7661 291.07C78.6485 291.079 58.1691 283.857 41.7602 270.613C25.3512 257.369 14.0097 238.909 9.63648 218.325C5.26325 197.741 8.12402 176.285 17.7394 157.552C27.3547 138.82 43.1403 123.949 62.4506 115.433C81.7609 106.917 103.422 105.272 123.805 110.775C144.188 116.277 162.053 128.593 174.406 145.657C186.759 162.722 192.85 183.498 191.658 204.505C190.466 225.511 182.063 245.471 167.858 261.039L187.088 282.516L177.492 286.572C162.647 292.845 148.12 286.741 139.967 281.869C127.436 287.921 113.692 291.067 99.7661 291.07ZM99.7661 122.661C57.2834 122.661 22.7211 157.097 22.7211 199.423C22.7211 241.75 57.2834 276.185 99.7661 276.185C112.712 276.186 125.449 272.94 136.804 266.746L140.912 264.497L144.732 267.205C147.516 269.178 153.005 272.575 159.308 273.849L147.208 260.335L152.512 255.369C160.217 248.218 166.353 239.556 170.535 229.928C174.717 220.3 176.853 209.914 176.811 199.423C176.811 157.097 142.249 122.661 99.7661 122.661Z" fill="#3F3D56"/>
<path d="M184.281 199.423C184.281 152.918 146.442 115.219 99.766 115.219C53.0898 115.219 15.2512 152.918 15.2512 199.423C15.2512 245.928 53.0898 283.627 99.766 283.627C113.972 283.648 127.951 280.085 140.401 273.269C146.244 277.411 160.496 285.671 174.575 279.721L157.627 260.792C166.052 252.928 172.765 243.422 177.35 232.865C181.935 222.309 184.294 210.926 184.281 199.423Z" fill="#F9D126"/>
<path opacity="0.1" d="M30.1907 198.998C30.1907 155.002 64.0591 118.893 107.236 115.125C104.774 114.91 102.284 114.794 99.766 114.794C53.0897 114.794 15.2512 152.493 15.2512 198.998C15.2512 245.503 53.0897 283.202 99.766 283.202C102.28 283.202 104.766 283.084 107.224 282.87C64.0529 279.096 30.1907 242.99 30.1907 198.998Z" fill="black"/>
<path d="M314.362 64.8947C308.832 55.5857 297.892 55.1518 297.892 55.1518C297.892 55.1518 287.232 53.7936 280.393 67.9714C274.019 81.1864 265.222 93.9456 278.977 97.0392L281.461 89.3346L283 97.6127C284.958 97.7531 286.923 97.7865 288.885 97.7129C303.616 97.2391 317.644 97.8516 317.192 92.5851C316.592 85.5841 319.682 73.8519 314.362 64.8947Z" fill="#2F2E41"/>
<path d="M278.191 146.419C278.029 147.443 277.793 148.454 277.486 149.444C277.14 150.414 276.606 151.31 276.289 152.29C275.281 155.412 276.679 158.892 278.912 161.302C280.848 163.384 283.348 164.862 286.109 165.56C288.142 165.993 290.215 166.211 292.294 166.208C298.042 166.402 303.938 166.576 309.385 164.735C311.106 164.139 312.768 163.387 314.351 162.487C314.851 162.25 315.291 161.905 315.639 161.477C316.004 160.849 316.167 160.125 316.104 159.403C316.092 156.975 315.598 154.56 315.715 152.134C315.78 150.791 316.033 149.449 315.908 148.11C315.737 146.589 315.097 145.158 314.078 144.013C313.058 142.868 311.708 142.065 310.213 141.714C308.668 141.384 307.065 141.564 305.492 141.714C301.409 142.105 297.308 142.288 293.206 142.262C289.014 142.235 284.849 141.598 280.678 141.531C279.445 141.511 279.47 141.89 279.077 143.079C278.716 144.174 278.42 145.289 278.191 146.419Z" fill="#2F2E41"/>
<path d="M290.086 86.4673C289.885 87.5181 289.667 88.6073 289.033 89.4708C288.304 90.4643 287.115 91.032 286.331 91.9827C285.15 93.4139 285.082 95.4278 285.077 97.2804C285.073 98.987 285.108 100.807 286.063 102.224C286.743 103.104 287.587 103.845 288.548 104.407C292.13 106.812 296.001 109.261 300.321 109.34C302.11 109.373 304.029 108.913 305.207 107.57C305.715 106.939 306.115 106.228 306.39 105.467C307.494 102.754 308.163 99.8859 308.373 96.9663C308.532 95.5938 308.404 94.2033 307.996 92.8829C307.471 91.4253 306.41 90.2261 305.709 88.8441C304.88 87.2009 304.577 85.3439 304.84 83.5236C304.875 83.3955 304.864 83.2592 304.81 83.1381C304.752 83.0732 304.68 83.0225 304.6 82.99C304.519 82.9575 304.432 82.944 304.345 82.9505L295.781 82.3362C294.983 82.2967 294.189 82.2062 293.403 82.0652C292.942 81.9717 291.722 81.3184 291.282 81.4921C290.467 81.8137 290.253 85.5959 290.086 86.4673Z" fill="#A0616A"/>
<path opacity="0.1" d="M290.086 86.7336C289.885 87.7844 289.667 88.8736 289.033 89.7371C288.304 90.7306 287.115 91.2983 286.331 92.2491C285.15 93.6802 285.082 95.6941 285.077 97.5467C285.073 99.2534 285.108 101.074 286.063 102.49C286.743 103.37 287.587 104.112 288.548 104.673C292.13 107.079 296.001 109.527 300.321 109.607C302.11 109.639 304.029 109.179 305.207 107.836C305.715 107.205 306.115 106.494 306.389 105.733C307.494 103.021 308.163 100.152 308.373 97.2327C308.532 95.8602 308.404 94.4697 307.996 93.1492C307.471 91.6917 306.41 90.4924 305.709 89.1105C304.88 87.4672 304.577 85.6103 304.84 83.79C304.875 83.6618 304.864 83.5256 304.81 83.4044C304.752 83.3396 304.68 83.2889 304.6 83.2564C304.519 83.2238 304.432 83.2103 304.345 83.2169L295.781 82.6026C294.983 82.5631 294.189 82.4726 293.403 82.3316C292.942 82.2381 291.722 81.5848 291.282 81.7585C290.467 82.0801 290.253 85.8622 290.086 86.7336Z" fill="black"/>
<path d="M298.276 87.6114C305.216 87.6114 310.841 82.0067 310.841 75.0929C310.841 68.1792 305.216 62.5745 298.276 62.5745C291.337 62.5745 285.712 68.1792 285.712 75.0929C285.712 82.0067 291.337 87.6114 298.276 87.6114Z" fill="#A0616A"/>
<path d="M291.848 103.131C292.469 103.848 293.217 104.443 294.055 104.888C294.929 105.248 295.867 105.426 296.812 105.411C299.077 105.475 301.533 105.061 303.108 103.439C305.139 101.348 305.072 97.9748 306.664 95.5351C306.792 95.3139 306.968 95.1231 307.177 94.9761C307.444 94.8312 307.746 94.7621 308.05 94.7762C310.06 94.7575 311.812 96.0567 313.392 97.2948C314.136 97.8049 314.775 98.4529 315.273 99.2034C315.585 99.811 315.799 100.464 315.907 101.138C316.691 104.953 316.945 108.854 317.198 112.74C317.337 114.887 317.476 117.035 317.466 119.186C317.432 126.272 315.779 133.24 314.135 140.135C313.923 141.023 313.633 142.016 312.822 142.442C312.461 142.603 312.072 142.698 311.677 142.72C306.968 143.271 302.25 143.823 297.509 143.895C295.659 143.924 293.81 143.879 291.962 143.762C291.644 143.757 291.328 143.703 291.027 143.599C290.619 143.404 290.268 143.107 290.009 142.737C287.444 139.518 287.293 135.067 287.309 130.957C287.349 120.909 287.71 110.869 288.39 100.837C288.447 100.009 288.459 99.0036 287.86 98.3522C289.026 100.074 290.362 101.675 291.848 103.131Z" fill="white"/>
<path d="M289.187 88.6769C288.763 89.4423 285.634 91.3428 285.03 91.9771C281.655 95.5212 275.496 95.3882 272.409 99.1842C271.323 100.52 270.759 102.198 270.344 103.866C269.757 106.226 269.444 108.799 270.427 111.024C271.373 113.165 273.365 114.645 274.717 116.557C276.201 118.657 276.869 121.206 277.508 123.694C277.98 125.531 278.457 127.414 278.273 129.301C278.064 131.447 277.021 133.412 276.406 135.48C275.79 137.547 275.684 140.009 277.107 141.633C278.153 142.827 279.792 143.3 281.359 143.566C283.367 143.866 285.391 144.042 287.42 144.092C289.212 144.17 291.187 144.186 292.564 143.041C293.651 142.138 294.123 140.673 294.184 139.265C294.245 137.856 293.951 136.46 293.767 135.062C293.576 133.613 293.503 132.152 293.441 130.691C293.166 124.14 293.128 117.583 293.328 111.023C293.429 109.66 293.362 108.289 293.129 106.942C292.744 105.187 291.792 103.619 290.998 102.006C289.411 98.9693 288.692 95.556 288.92 92.1395C289.16 88.6283 290.697 85.9534 289.187 88.6769Z" fill="white"/>
<path d="M306.831 88.9431C307.477 89.605 309.674 89.8232 310.496 90.2494C311.269 90.6054 312.076 90.8838 312.905 91.0805C315.904 91.9426 318.757 93.2471 321.369 94.9508C321.912 95.2671 322.391 95.68 322.784 96.1688C323.198 96.8399 323.465 97.5906 323.567 98.3717C323.97 100.359 324.374 102.37 324.284 104.395C324.188 106.544 323.538 108.626 322.893 110.68L320.484 118.353C318.686 124.081 316.877 129.865 316.371 135.845C316.091 139.159 316.215 142.495 316.741 145.78C316.791 145.939 316.805 146.108 316.784 146.274C316.763 146.44 316.707 146.599 316.62 146.742C316.461 146.898 316.252 146.994 316.03 147.012C314.867 147.193 313.742 146.603 312.688 146.08C309.469 144.484 306.032 143.363 302.488 142.755C303.873 140.761 304.942 138.566 305.656 136.248C306.062 134.776 306.382 133.282 306.614 131.773L307.734 125.315C308.19 122.955 308.511 120.571 308.696 118.174C308.78 117.275 308.728 116.368 308.54 115.484C308.281 114.643 307.938 113.83 307.516 113.058C305.669 109.23 304.803 104.862 305.529 100.678C305.847 98.8462 306.465 97.0124 306.208 95.1716C305.96 93.4018 306.217 92.0263 305.762 90.2748C303.89 83.0834 305.615 87.6978 306.831 88.9431Z" fill="white"/>
<path d="M272.378 105.236C271.536 106.977 270.128 108.46 269.649 110.332C269.462 111.207 269.382 112.102 269.411 112.996C269.328 114.343 269.462 115.695 269.807 117.001C270.075 117.827 270.51 118.588 270.823 119.398C271.26 120.529 271.455 121.738 271.395 122.949C271.31 124.625 270.738 126.253 270.694 127.931C270.623 130.571 271.849 133.052 273.044 135.408C273.345 134.666 273.805 133.998 274.392 133.451C274.98 132.904 275.679 132.492 276.443 132.243C277.207 131.993 278.016 131.914 278.814 132.009C279.612 132.104 280.38 132.371 281.063 132.793C281.337 132.458 281.467 132.028 281.425 131.598C281.513 128.536 281.598 125.474 281.68 122.412C281.81 117.676 281.933 112.877 280.839 108.266C280.346 106.184 279.578 104.111 278.169 102.496C277.428 101.646 274.911 99.4063 273.693 100.359C273.146 100.787 273.274 101.953 273.187 102.543C273.056 103.477 272.783 104.385 272.378 105.236Z" fill="white"/>
<path d="M324.53 100.219C324.869 101.475 325.014 102.774 324.96 104.073C324.976 106.72 324.941 109.366 324.854 112.013C324.868 113.37 324.693 114.723 324.337 116.033C324.065 116.885 323.645 117.683 323.364 118.532C322.523 121.077 322.983 123.837 323.055 126.515C323.106 127.381 323.032 128.251 322.834 129.097C322.39 130.757 321.197 132.099 320.364 133.603C319.573 135.032 319.095 136.633 318.15 137.966C317.205 139.299 315.57 140.355 313.984 139.946C312.783 139.636 311.929 138.576 311.339 137.489C310.05 135.098 309.61 132.344 310.088 129.672C310.681 126.422 312.597 123.538 313.288 120.307C314.237 115.87 312.795 111.291 312.838 106.755C312.818 106.044 312.915 105.334 313.125 104.654C313.487 103.618 314.266 102.79 314.985 101.959C315.884 100.921 316.719 99.8291 317.485 98.6901C318 97.925 318.7 95.9571 319.612 95.7935C321.651 95.4282 324.024 98.6505 324.53 100.219Z" fill="white"/>
<path d="M261.802 144.445C260.674 144.163 259.513 144.04 258.352 144.08C257.131 144.147 255.939 144.473 254.855 145.034C253.771 145.596 252.819 146.381 252.063 147.338C251.306 148.295 250.763 149.401 250.469 150.583C250.175 151.765 250.137 152.995 250.358 154.193C250.639 155.49 251.099 156.743 251.725 157.915C252.64 159.765 253.737 161.61 255.431 162.796C256.451 163.448 257.55 163.969 258.701 164.347L267.622 167.695C268.934 168.188 270.247 168.68 271.572 169.137C278.23 171.43 285.172 172.805 292.204 173.224C294.344 173.423 296.502 173.314 298.61 172.9C299.12 172.834 299.587 172.582 299.922 172.194C300.092 171.899 300.192 171.569 300.215 171.229L300.764 167.401C300.887 166.867 300.871 166.312 300.717 165.787C300.466 165.143 299.836 164.738 299.235 164.394C293.37 161.038 286.522 159.187 281.586 154.581C280.424 153.497 279.452 151.778 278.04 151.041C276.438 150.206 274.553 149.729 272.898 148.96C269.28 147.277 265.723 145.344 261.802 144.445Z" fill="#2F2E41"/>
<path opacity="0.1" d="M270.708 149.607C273.861 150.591 287.173 157.411 289.454 159.792C289.149 159.902 278.772 154.108 278.46 154.015C275.606 153.234 272.811 152.253 270.096 151.078C269.555 150.829 266.583 149.658 266.717 148.978C266.869 148.211 270.148 149.432 270.708 149.607Z" fill="black"/>
<path d="M310.044 175.209C310.223 175.222 310.4 175.17 310.543 175.063C310.606 174.982 310.652 174.89 310.679 174.792C310.706 174.693 310.713 174.591 310.7 174.49L310.685 169.274C309.18 168.559 307.496 168.33 305.843 168.11L298.13 167.083C298.308 167.106 296.925 170.392 297.137 170.831C297.51 171.604 300.367 172.289 301.173 172.654C303.975 173.924 306.887 175.319 310.044 175.209Z" fill="#A0616A"/>
<path d="M285.847 169.256C284.391 169.487 282.765 169.691 281.822 170.82C280.626 172.252 281.136 174.387 281.706 176.162C281.741 176.391 281.821 176.61 281.943 176.808C282.064 177.005 282.224 177.176 282.413 177.311C282.602 177.446 282.817 177.541 283.044 177.592C283.27 177.643 283.505 177.648 283.734 177.607C285.062 177.69 286.475 177.756 287.635 177.107C288.161 176.761 288.667 176.386 289.151 175.985C290.006 175.417 290.947 174.989 291.937 174.715C293.758 174.145 295.632 173.76 297.531 173.567C298.279 173.533 299.02 173.403 299.734 173.18C300.091 173.065 300.417 172.87 300.686 172.61C300.955 172.35 301.16 172.031 301.286 171.679C301.555 170.731 301.002 169.765 300.471 168.933C299.86 167.844 299.067 166.868 298.126 166.045C296.689 164.933 295.978 165.787 294.531 166.498C291.791 167.845 288.864 168.775 285.847 169.256Z" fill="#A0616A"/>
<path d="M282.041 170.562L272.795 167.84C271.687 167.455 270.528 167.231 269.355 167.175C268.767 167.151 268.182 167.252 267.637 167.472C267.092 167.692 266.6 168.024 266.195 168.448C265.478 169.287 265.273 170.433 265.094 171.52L264.712 173.845C264.457 175.017 264.385 176.221 264.498 177.415C264.559 178.012 264.757 178.588 265.075 179.097C265.393 179.607 265.824 180.038 266.334 180.357C267.614 181.052 269.182 180.712 270.61 180.422C273.494 179.834 276.428 179.521 279.372 179.485C280.479 179.472 281.639 179.486 282.617 178.97C283.185 178.634 283.662 178.166 284.006 177.605C284.351 177.045 284.553 176.409 284.595 175.753C284.777 173.766 284.112 171.172 282.041 170.562Z" fill="#2F2E41"/>
<path d="M313.678 168.19C314.877 167.981 315.934 167.302 317.083 166.901C318.7 166.337 320.451 166.337 322.164 166.344C322.794 166.286 323.427 166.413 323.986 166.707C324.74 167.207 324.934 168.209 325.062 169.103L325.836 174.496C326.043 175.503 326.064 176.538 325.899 177.552C325.672 178.551 324.988 179.515 323.993 179.773C322.784 180.086 321.599 179.317 320.457 178.811C317.604 177.548 314.287 177.871 311.312 176.926C311.028 176.869 310.759 176.753 310.523 176.585C310.287 176.417 310.09 176.201 309.944 175.951C309.842 175.652 309.806 175.334 309.837 175.019C309.888 173.285 309.521 170.918 310.045 169.261C310.516 167.771 312.34 168.19 313.678 168.19Z" fill="#2F2E41"/>
<path d="M333.244 142.275C335.092 141.813 337.007 141.683 338.9 141.89C340.412 142.056 341.97 142.475 343.074 143.517C344.418 144.787 344.849 146.749 344.885 148.594C344.945 152.267 343.722 155.847 341.426 158.722C340.865 159.449 340.198 160.089 339.448 160.619C338.638 161.124 337.775 161.538 336.874 161.855L316.897 169.706C311.641 171.771 306.367 173.842 300.885 175.204C300.736 175.276 300.573 175.317 300.407 175.326C300.24 175.334 300.074 175.31 299.918 175.253C299.761 175.197 299.618 175.109 299.495 174.997C299.373 174.884 299.275 174.748 299.206 174.597C297.456 172.106 295.988 169.43 294.828 166.617C294.773 166.551 294.735 166.472 294.717 166.387C294.699 166.302 294.702 166.215 294.726 166.132C294.749 166.049 294.792 165.972 294.852 165.909C294.911 165.846 294.985 165.798 295.066 165.77L309.196 157.681C310.233 157.142 311.198 156.479 312.072 155.706C312.683 155.117 313.183 154.423 313.549 153.658C313.842 153.049 313.869 151.611 314.243 151.16C314.61 150.719 315.863 150.684 316.441 150.51C317.257 150.261 318.057 149.96 318.834 149.609C321.995 148.2 324.81 146.153 327.84 144.504C329.539 143.535 331.355 142.786 333.244 142.275Z" fill="#2F2E41"/>
<path opacity="0.1" d="M325.234 148.316C322.806 150.132 319.663 151.802 317.257 153.666C316.436 154.303 302.747 161.97 302.554 162.989C304.798 163.366 319.097 153.399 321.143 152.405C323.189 151.41 325.002 150.008 326.799 148.616C327.257 148.261 329.198 147.195 327.883 146.798C327.143 146.575 325.781 147.952 325.234 148.316Z" fill="black"/>
<path d="M308.53 89.1191H287.22C286.355 89.1191 285.524 89.4618 284.912 90.0717C284.3 90.6817 283.956 91.5089 283.956 92.3715V93.5625H283.725V96.226H283.956V98.0904H283.725V99.6885H283.956V119.341C283.956 120.204 284.3 121.031 284.912 121.641C285.524 122.251 286.355 122.594 287.22 122.594H308.53C309.396 122.594 310.226 122.251 310.838 121.641C311.451 121.031 311.795 120.204 311.795 119.341V92.3715C311.795 91.5089 311.451 90.6817 310.838 90.0717C310.226 89.4618 309.396 89.1191 308.53 89.1191Z" fill="#D0CDE1"/>
<path d="M311.917 63.9975L301.109 58.3567L286.183 60.6643L283.095 74.2532L290.782 73.9582L292.93 68.9661V73.8763L296.477 73.7404L298.535 65.792L299.822 74.2532L312.432 73.9966L311.917 63.9975Z" fill="#2F2E41"/>
<path d="M275.205 140.515C275.694 141.343 276.389 142.031 277.223 142.514C277.77 142.763 278.367 142.884 278.968 142.868C279.569 142.852 280.158 142.699 280.691 142.422C281.755 141.853 282.626 140.983 283.194 139.922C284.368 137.855 284.612 135.382 284.465 133.012C284.318 130.641 283.81 128.307 283.586 125.943C283.422 124.224 283.409 122.495 283.396 120.768C283.355 120.405 283.431 120.039 283.614 119.722C283.928 119.411 284.334 119.209 284.773 119.146C287.143 118.444 288.717 116.23 289.845 114.037C290.598 112.573 291.253 110.973 291.108 109.334C290.963 107.695 289.78 106.044 288.138 105.876C286.783 105.739 285.533 106.596 284.556 107.54C282.091 109.938 280.507 113.092 280.058 116.495C279.844 118.162 279.905 119.873 279.45 121.491C278.479 124.945 275.44 127.063 273.925 130.171C272.257 133.596 273.178 137.484 275.205 140.515Z" fill="#A0616A"/>
<path d="M319.928 127.318C319.582 128.119 319.079 128.843 318.448 129.447C317.817 130.052 317.071 130.524 316.254 130.836C315.238 131.242 314.118 131.311 313.06 131.031C312.535 130.886 312.051 130.622 311.645 130.26C311.239 129.899 310.923 129.449 310.72 128.945C310.558 128.438 310.469 127.911 310.456 127.379C310.304 125.05 310.363 122.649 311.212 120.474C311.54 119.635 311.981 118.839 312.24 117.976C312.494 116.98 312.624 115.956 312.627 114.928L312.906 108.572C312.952 108.111 312.92 107.645 312.811 107.194C312.533 106.275 311.67 105.677 310.878 105.128C308.967 103.804 307.078 102.258 306.152 100.13C305.833 99.4892 305.719 98.7668 305.825 98.0596C306.086 96.7975 307.364 95.9805 308.628 95.7052C309.455 95.5251 310.309 95.5136 311.141 95.6714C311.972 95.8292 312.763 96.153 313.465 96.6234C314.167 97.0938 314.767 97.7009 315.227 98.4082C315.688 99.1156 316 99.9085 316.145 100.739C316.27 101.456 316.268 102.189 316.341 102.913C316.497 104.45 316.986 105.931 317.292 107.445C318.047 111.174 317.656 115.028 318.402 118.756C319.026 121.873 321.378 123.907 319.928 127.318Z" fill="#A0616A"/>
<path d="M298.161 103.417C299.637 103.417 300.834 102.225 300.834 100.754C300.834 99.2828 299.637 98.0903 298.161 98.0903C296.684 98.0903 295.487 99.2828 295.487 100.754C295.487 102.225 296.684 103.417 298.161 103.417Z" fill="#F9D126"/>
<path d="M36.4722 211.949L32.5001 208.102L24.5241 210.57L25.2902 219.772L41.69 219.013L36.6519 212.192L36.4722 211.949Z" fill="#FBBEBE"/>
<path d="M27.7849 211.87C34.8263 211.87 40.5344 206.182 40.5344 199.167C40.5344 192.152 34.8263 186.464 27.7849 186.464C20.7436 186.464 15.0355 192.152 15.0355 199.167C15.0355 206.182 20.7436 211.87 27.7849 211.87Z" fill="#FBBEBE"/>
<path d="M106.934 228.253C106.934 228.253 122.597 255.071 126.325 259.097C128.098 261.078 129.986 262.954 131.981 264.713C131.981 264.713 130.228 270.505 127.437 270.298C125.846 270.202 124.286 269.819 122.833 269.167C122.833 269.167 121.588 265.95 119.415 264.539C117.242 263.128 99.4895 245.728 99.9044 240.166C100.319 234.605 106.934 228.253 106.934 228.253Z" fill="#2F2E41"/>
<path d="M51.1538 266.523C51.1538 266.523 67.8541 279.438 90.5502 267.303L92.5061 265.869C92.5061 265.869 89.2054 273.267 88.8991 275.273C88.544 277.598 79.9503 291.222 78.5479 291.875C77.1456 292.527 76.8365 293.13 76.8365 293.13L82.7878 299.656L84.9882 298.043C84.9882 298.043 93.5681 285.931 96.0776 283.716C98.587 281.5 110.543 258.652 110.543 258.652C110.543 258.652 115.114 250.043 103.706 249.395C92.2977 248.748 87.0481 251.846 87.0481 251.846L66.8011 255.05L51.1538 266.523Z" fill="#2F2E41"/>
<path d="M132.175 263.445L140.621 269.268C140.621 269.268 151.398 272.632 144.76 274.87C138.122 277.109 120.628 277.919 120.232 274.83C119.835 271.742 120.922 266.88 121.794 267.146C122.667 267.412 128.724 268.979 132.175 263.445Z" fill="#2F2E41"/>
<path d="M85.7357 296.042L87.2991 304.596C87.2991 304.596 91.7447 313.067 86.407 310.439C81.0693 307.81 70.0722 297.826 71.6961 295.733C73.32 293.64 76.9042 291.37 77.2682 292.052C77.6322 292.735 80.3261 297.301 85.7357 296.042Z" fill="#2F2E41"/>
<path d="M69.629 257.859C69.629 257.859 58.2767 271.064 51.3845 267.856C44.4922 264.648 16.2949 227.494 19.5145 220.627C22.7342 213.76 23.8137 215.222 23.8137 215.222L38.3729 216.563L34.1839 209.871C34.1839 209.871 36.1398 208.437 38.0036 210.45C39.8674 212.463 47.3502 217.491 49.957 224.592C52.5637 231.693 60.2169 231.339 60.2169 231.339L69.629 257.859Z" fill="white"/>
<path d="M115.473 230.629L95.7946 251.441L78.1661 220.431L94.9249 200.258L115.473 230.629Z" fill="#3F3D56"/>
<path d="M113.988 230.403L96.2144 248.692L80.1084 220.509L94.879 201.981L113.988 230.403Z" fill="white"/>
<path d="M94.8304 250.646L95.7946 251.441L95.1763 252.645L67.6592 260.805L67.399 259.866L68.6509 258.576L94.8304 250.646Z" fill="#B3B3B3"/>
<path d="M96.0391 251.262L67.5443 260.138L50.1742 227.437L78.1662 220.431L96.0391 251.262Z" fill="#D0CDE1"/>
<path d="M93.8939 246.827L92.6713 247.723L79.1031 224.251L80.5054 223.598L93.8939 246.827Z" fill="#3F3D56"/>
<path d="M91.0889 248.132L79.035 251.713L65.3514 227.574L77.2763 224.839L91.0889 248.132Z" fill="#3F3D56"/>
<path d="M57.1307 230.222L59.6264 229.519C59.6264 229.519 73.5443 227.951 73.7474 232.308C73.9506 236.665 57.7583 234.644 57.7583 234.644L55.5992 231.721L57.1307 230.222Z" fill="#FBBEBE"/>
<path d="M69.3381 249.811L72.8117 248.39C72.8117 248.39 83.2972 243.706 80.2893 240.655C77.2814 237.603 68.0046 242.903 68.0046 242.903L66.2286 244.58L69.3381 249.811Z" fill="#FBBEBE"/>
<path d="M66.2423 243.068C66.2423 243.068 71.8983 248.685 70.6113 250.004C69.3243 251.323 48.2199 268.675 42.9883 263.123C37.7567 257.571 12.2677 229.696 22.1859 227.305C32.1041 224.915 34.7246 230.504 34.7246 230.504L47.8178 252.822L66.2423 243.068Z" fill="white"/>
<path d="M49.3066 226.008L58.5974 229.147L58.4457 235.83L48.6196 234.773L49.3066 226.008Z" fill="white"/>
<path opacity="0.2" d="M57.6806 246.53L47.6704 252.367L36.2335 234.842L47.2734 249.278L57.6806 246.53Z" fill="black"/>
<path d="M104.199 231.948L93.5712 216.459L98.0763 210.902L109.119 226.838L104.199 231.948Z" fill="#F9D126"/>
<path d="M103.899 238.176L87.7198 214.741L88.5178 213.78L104.622 237.271L103.899 238.176Z" fill="#E6E6E6"/>
<path d="M101.814 240.456L85.6349 217.021L86.4329 216.06L102.537 239.551L101.814 240.456Z" fill="#E6E6E6"/>
<path d="M100.038 242.133L83.8588 218.698L84.6568 217.738L100.761 241.229L100.038 242.133Z" fill="#E6E6E6"/>
<path d="M93.587 179.706L92.7358 179.643C92.7028 180.084 92.6792 180.527 92.6511 180.97L88.8304 180.842L92.8381 188.325L97.3392 181.126L93.5045 180.998C93.532 180.567 93.5549 180.135 93.587 179.706Z" fill="#3F3D56"/>
<path d="M115.997 118.714L116.675 119.23C117.693 117.902 118.756 116.576 119.835 115.289L119.18 114.744C118.093 116.04 117.022 117.376 115.997 118.714Z" fill="#3F3D56"/>
<path d="M122.536 110.917L123.166 111.491C124.299 110.255 125.475 109.028 126.661 107.842L126.056 107.242C124.861 108.436 123.677 109.672 122.536 110.917Z" fill="#3F3D56"/>
<path d="M129.735 103.725L130.312 104.352C131.551 103.219 132.83 102.099 134.113 101.025L133.564 100.374C132.271 101.456 130.983 102.584 129.735 103.725Z" fill="#3F3D56"/>
<path d="M110.17 127.058L110.891 127.513C111.789 126.098 112.731 124.684 113.692 123.307L112.991 122.822C112.023 124.208 111.074 125.633 110.17 127.058Z" fill="#3F3D56"/>
<path d="M137.537 97.1937L138.057 97.8681C139.39 96.8477 140.763 95.8452 142.135 94.8883L141.646 94.1914C140.263 95.1555 138.88 96.1656 137.537 97.1937Z" fill="#3F3D56"/>
<path d="M105.104 135.887L105.863 136.275C106.632 134.785 107.446 133.292 108.28 131.838L107.539 131.416C106.698 132.881 105.879 134.385 105.104 135.887Z" fill="#3F3D56"/>
<path d="M96.8698 159.827L96.0432 159.615C95.6214 161.247 95.2308 162.912 94.8823 164.562L95.7177 164.737C96.0636 163.099 96.4513 161.447 96.8698 159.827Z" fill="#3F3D56"/>
<path d="M145.882 91.3736L146.34 92.0912C147.755 91.1942 149.21 90.3164 150.664 89.4823L150.238 88.7451C148.773 89.5857 147.308 90.4699 145.882 91.3736Z" fill="#3F3D56"/>
<path d="M94.7858 169.693L93.9434 169.555C93.6693 171.216 93.4286 172.908 93.2279 174.584L94.0757 174.685C94.2748 173.021 94.5139 171.341 94.7858 169.693Z" fill="#3F3D56"/>
<path d="M100.843 145.132L101.634 145.453C102.267 143.9 102.944 142.34 103.646 140.817L102.87 140.461C102.163 141.997 101.481 143.569 100.843 145.132Z" fill="#3F3D56"/>
<path d="M97.4236 154.726L98.2402 154.974C98.7324 153.369 99.2675 151.754 99.8304 150.175L99.0259 149.89C98.4588 151.481 97.9196 153.108 97.4236 154.726Z" fill="#3F3D56"/>
<path d="M203.63 74.4209C205.304 74.3631 207.008 74.3401 208.693 74.3559L208.701 73.5053C207.003 73.4895 205.286 73.5126 203.601 73.5707L203.63 74.4209Z" fill="#3F3D56"/>
<path d="M154.706 86.3122L155.099 87.0672C156.59 86.2977 158.116 85.552 159.635 84.8507L159.276 84.0791C157.745 84.7855 156.208 85.5368 154.706 86.3122Z" fill="#3F3D56"/>
<path d="M223.83 75.4812C225.496 75.716 227.176 75.991 228.826 76.2985L228.982 75.4625C227.321 75.1526 225.628 74.8754 223.95 74.6389L223.83 75.4812Z" fill="#3F3D56"/>
<path d="M233.78 77.3359C235.415 77.7164 237.065 78.1391 238.683 78.5924L238.914 77.7735C237.284 77.3168 235.622 76.8911 233.975 76.5078L233.78 77.3359Z" fill="#3F3D56"/>
<path d="M243.524 80.0653C245.118 80.5892 246.723 81.1566 248.295 81.7517L248.598 80.9568C247.015 80.3571 245.398 79.7854 243.792 79.2576L243.524 80.0653Z" fill="#3F3D56"/>
<path d="M213.754 74.5102C215.435 74.598 217.134 74.7243 218.803 74.885L218.886 74.0386C217.204 73.8764 215.492 73.7493 213.799 73.6609L213.754 74.5102Z" fill="#3F3D56"/>
<path d="M193.438 74.3664L193.542 75.2107C195.206 75.0068 196.9 74.8367 198.577 74.7055L198.51 73.8574C196.82 73.9897 195.114 74.161 193.438 74.3664Z" fill="#3F3D56"/>
<path d="M173.523 78.6215L173.775 79.4338C175.379 78.939 177.017 78.4734 178.641 78.05L178.425 77.2273C176.789 77.6536 175.139 78.1227 173.523 78.6215Z" fill="#3F3D56"/>
<path d="M163.939 82.051L164.263 82.838C165.816 82.2034 167.401 81.596 168.976 81.0322L168.687 80.2319C167.1 80.7997 165.503 81.4118 163.939 82.051Z" fill="#3F3D56"/>
<path d="M183.386 76.0521L183.564 76.8839C185.205 76.5336 186.877 76.2149 188.535 75.9368L188.393 75.0979C186.723 75.3782 185.038 75.6993 183.386 76.0521Z" fill="#3F3D56"/>
<path d="M261.032 87.0106L256.262 79.9863L254.584 83.4265C254.178 83.2459 253.774 83.0613 253.369 82.8863L253.029 83.6671C253.426 83.8379 253.817 84.0169 254.211 84.192L252.541 87.6158L261.032 87.0106Z" fill="#3F3D56"/>
</g>
<path d="M15.5856 191.155C15.5856 191.155 19.2335 182.779 26.2251 184.712C33.2167 186.645 37.1685 189.544 37.4725 192.443C37.7764 195.342 37.3205 199.691 37.3205 199.691C37.3205 199.691 36.5605 193.732 31.6968 195.02C26.833 196.309 19.2335 195.342 19.2335 195.342L18.0175 206.939C18.0175 206.939 16.6496 204.845 15.1297 206.134C13.6098 207.422 10.7219 193.732 15.5856 191.155Z" fill="#2F2E41"/>
<defs>
<clipPath id="clip0_2_691">
<rect width="386.506" height="310.944" fill="white"/>
</clipPath>
</defs>
</svg>
