<svg width="633" height="633" viewBox="0 0 633 633" fill="none" xmlns="http://www.w3.org/2000/svg">
<circle cx="316.5" cy="316.5" r="316.5" fill="#FFF8D9"/>
<circle cx="316" cy="317" r="291" fill="#F9D126"/>
<path d="M496.873 528.384C454.981 537.645 400.159 535.894 341.334 528.452C293.217 522.365 238.953 507.139 194.912 489.414C199.459 484.815 205.41 481.865 211.823 481.031C212.003 481.004 212.189 480.978 212.373 480.957C215.62 480.569 218.902 480.569 222.149 480.959C263.278 485.576 255.73 508.088 311.213 482.84C345.718 467.137 382.835 464.928 407.341 470.261C407.793 470.359 408.238 470.459 408.683 470.562C422.859 473.869 432.554 479.76 434.65 487.016C440.371 506.807 414.763 518.821 458.717 519.688C470.912 519.929 484.576 525.373 496.873 528.384Z" fill="#3F3D56"/>
<path d="M264.759 306.899C264.759 306.899 256.464 345.357 267.775 344.603C279.086 343.849 273.808 309.162 273.808 309.162L264.759 306.899Z" fill="#A0616A"/>
<path d="M310.003 490.139L315.282 518.04L327.347 516.532L323.577 486.369L310.003 490.139Z" fill="#A0616A"/>
<path d="M371.084 462.993L374.1 483.353H389.935L386.919 464.501L371.084 462.993Z" fill="#A0616A"/>
<path d="M297.938 288.047C297.938 288.047 285.119 312.932 289.643 374.766C294.168 436.6 294.168 495.418 294.168 495.418L326.593 493.156L335.642 339.325L371.083 472.796L394.46 470.534L388.427 340.079L369.575 277.49L297.938 288.047Z" fill="#2F2E41"/>
<path d="M319.806 505.221C319.806 505.221 322.068 498.434 318.298 498.434H310.003C310.003 498.434 300.954 515.024 295.676 516.532C290.397 518.04 273.808 532.368 289.643 533.876C305.479 535.384 329.609 527.089 329.609 524.073C329.609 521.057 327.347 508.237 327.347 508.237L319.806 505.221Z" fill="#2F2E41"/>
<path d="M386.165 478.828C386.165 478.828 372.303 474.994 373.201 477.288C374.1 479.582 371.083 486.369 371.083 486.369C371.083 486.369 363.542 529.351 386.165 525.581C408.787 521.811 392.197 489.385 392.197 489.385L388.848 476.557L386.165 478.828Z" fill="#2F2E41"/>
<path d="M322.823 125.167C335.316 125.167 345.445 115.039 345.445 102.545C345.445 90.0509 335.316 79.9226 322.823 79.9226C310.329 79.9226 300.2 90.0509 300.2 102.545C300.2 115.039 310.329 125.167 322.823 125.167Z" fill="#A0616A"/>
<path d="M307.741 114.61C307.741 114.61 311.511 136.478 309.249 141.003C306.987 145.527 327.347 154.576 327.347 154.576L337.904 128.938V114.61L307.741 114.61Z" fill="#A0616A"/>
<path d="M319.806 140.249C319.806 140.249 312.942 141.258 309.964 136.229C306.987 131.2 300.2 171.166 300.2 171.166C300.2 171.166 303.217 223.951 299.446 236.016C295.676 248.081 296.43 252.606 297.938 254.868C299.446 257.13 303.971 254.114 300.2 260.147C296.43 266.179 296.43 262.409 296.43 268.441C296.43 274.474 294.922 296.342 294.922 296.342L376.362 290.31L337.904 125.167C337.904 125.167 325.085 141.003 319.806 140.249Z" fill="#3F3D56"/>
<path d="M351.477 133.462C351.477 133.462 382.394 137.986 383.903 144.773C385.411 151.56 415.574 340.079 399.738 349.882C383.903 359.685 332.626 367.225 330.363 357.422C328.101 347.619 316.036 147.789 337.904 125.167L351.477 133.462Z" fill="#D0CDE1"/>
<path d="M395.027 332.1H388.695C388.695 332.1 390.643 309.208 388.695 307.097C388.695 307.097 370.998 305.149 353.139 324.632C353.139 324.632 356.224 303.363 379.279 302.226C386.669 301.863 390.941 304.801 393.33 308.964C398.399 317.787 395.027 332.1 395.027 332.1Z" fill="#3F3D56"/>
<path opacity="0.15" d="M395.027 332.1H388.695C388.695 332.1 390.644 309.208 388.695 307.097L393.331 308.964C398.399 317.787 395.027 332.1 395.027 332.1Z" fill="black"/>
<path d="M357.848 317.163L349.08 332.1H353.139C353.139 332.1 353.789 321.06 357.848 317.163Z" fill="#3F3D56"/>
<path opacity="0.15" d="M357.848 317.163L349.08 332.1H353.139C353.139 332.1 353.789 321.06 357.848 317.163Z" fill="black"/>
<path d="M432.694 395.256C432.813 397.765 432.322 400.265 431.261 402.542C430.2 404.818 428.603 406.803 426.605 408.326C426.605 408.326 345.915 427.484 336.985 425.86C335.887 425.655 334.821 425.305 333.814 424.821C326.697 421.444 322.211 412.222 322.211 412.222C322.211 412.222 322.076 409.839 321.876 405.956C321.493 398.445 320.873 385.322 320.53 372.968C320.193 360.762 320.126 349.31 320.831 344.764C322.617 333.236 334.956 332.262 334.956 332.262L417.108 328.691C419.806 328.663 422.495 329.015 425.095 329.736C433.976 332.404 432.694 339.244 432.694 339.244C432.694 339.244 432.369 386.489 432.694 395.256Z" fill="#575A89"/>
<path d="M425.095 329.736C420.061 331.304 407.957 334.763 403.632 333.236C398.112 331.288 355.412 332.587 339.826 334.373C324.24 336.159 329.76 378.371 329.76 378.371L320.53 372.968C320.193 360.762 320.126 349.31 320.831 344.764C322.617 333.236 334.956 332.262 334.956 332.262L417.108 328.691C419.806 328.663 422.495 329.015 425.095 329.736Z" fill="#3F3D56"/>
<path d="M366.128 360.025C366.128 360.025 358.308 316.316 372.69 310.327L374.57 310.344C374.57 310.344 370.024 316.351 371.81 327.392C373.596 338.432 372.622 363.597 372.622 363.597C372.622 363.597 367.102 366.844 366.128 360.025Z" fill="#2F2E41"/>
<path d="M371.81 311.805C371.81 311.805 380.415 298.005 396.164 305.636C411.912 313.267 413.373 330.639 413.373 330.639C413.373 330.639 402.496 298.817 371.81 311.805Z" fill="#2F2E41"/>
<path d="M414.51 361.811L411.912 345.088L413.211 329.431L416.458 345.576L417.919 361.811H414.51Z" fill="#2F2E41"/>
<path d="M385.286 359.863L394.378 357.589L403.632 358.726V362.785L395.19 365.383L385.286 364.408V359.863Z" fill="#2F2E41"/>
<path d="M332.358 418.636C332.582 420.75 333.071 422.829 333.814 424.821C326.697 421.444 322.211 412.223 322.211 412.223C322.211 412.223 322.076 409.839 321.876 405.956L327.812 408.407L332.358 418.636Z" fill="#3F3D56"/>
<path d="M336.254 427.565C335.838 427.467 335.457 427.255 335.155 426.951C336.373 427.442 336.886 427.698 336.254 427.565Z" fill="#2F2E41"/>
<path d="M309.959 134.593L280.594 163.625L291.151 257.884C291.151 257.884 270.037 369.487 282.103 369.487C294.168 369.487 292.66 370.996 294.922 362.701C297.184 354.406 309.959 134.593 309.959 134.593Z" fill="#D0CDE1"/>
<path d="M288.135 161.363L280.594 163.625C280.594 163.625 273.808 168.904 274.562 180.215C275.316 191.526 273.808 223.951 273.808 223.951C273.808 223.951 269.283 230.738 271.545 239.033L260.988 311.424L284.365 315.194L292.66 277.49L288.135 161.363Z" fill="#D0CDE1"/>
<path d="M381.64 281.261C381.64 281.261 372.591 328.767 381.64 325.751C390.689 322.735 402 289.555 394.459 284.277C386.919 278.998 381.64 281.261 381.64 281.261Z" fill="#A0616A"/>
<path d="M300.147 105.198C300.147 105.198 297.837 101.733 298.725 98.0027C299.256 95.8845 299.466 93.6986 299.347 91.5182C299.347 91.5182 301.213 85.4779 303.078 82.1024C304.943 78.7269 304.055 77.3056 309.918 76.2397C315.781 75.1738 313.382 67.5345 328.838 75.7956C329.36 76.5236 330.085 77.0809 330.923 77.3971C331.761 77.7133 332.674 77.7742 333.546 77.5721C336.744 76.9503 337.899 81.3918 337.899 81.3918C337.899 81.3918 340.031 80.1482 340.83 81.9247C341.63 83.7013 347.33 80.8585 347.33 92.8503C347.33 104.842 340.843 115.554 340.843 115.554C340.843 115.554 341.319 95.3823 330.748 93.3392C320.178 91.2961 308.808 85.3446 306.054 92.9839C304.567 97.2714 302.585 101.371 300.147 105.198Z" fill="#2F2E41"/>
<path d="M156.317 353.969C151.308 358.127 142.479 378.563 142.479 378.563C145.304 378.862 148.148 378.952 150.986 378.832L149.993 373.406L153.686 378.616C155.127 378.461 156.55 378.173 157.937 377.755L156.408 369.404L161.183 376.139C161.218 376.111 161.255 376.084 161.289 376.056C166.298 371.898 169.245 363.583 167.872 357.484C166.499 351.385 161.325 349.811 156.317 353.969Z" fill="#F9D126"/>
<path d="M289.793 444.896C284.784 449.054 275.955 469.49 275.955 469.49C278.781 469.789 281.624 469.879 284.463 469.759L283.469 464.333L287.162 469.543C288.603 469.388 290.026 469.1 291.413 468.682L289.884 460.331L294.659 467.067C294.694 467.038 294.731 467.011 294.765 466.983C299.774 462.825 302.721 454.51 301.348 448.411C299.975 442.312 294.802 440.738 289.793 444.896Z" fill="#F9D126"/>
<path d="M270.19 253.932C265.925 258.377 257.304 278.893 257.304 278.893C259.523 278.943 261.742 278.791 263.933 278.439L263.612 273.272L266.062 278.002C267.231 277.721 268.369 277.323 269.459 276.812L268.965 268.86L272.132 274.976C272.162 274.946 272.193 274.917 272.222 274.886C276.488 270.442 279.491 262.149 278.93 256.363C278.369 250.576 274.456 249.488 270.19 253.932Z" fill="#F9D126"/>
<path d="M163.085 513.759C157.145 512.127 135 514.33 135 514.33C136.014 516.304 137.205 518.183 138.56 519.941L142.949 517.195L139.958 521.604C140.763 522.498 141.656 523.309 142.624 524.023L149.379 519.798L145.512 525.498C145.553 525.51 145.594 525.523 145.635 525.534C151.575 527.165 160.296 525.851 165.115 522.6C169.934 519.348 169.025 515.39 163.085 513.759Z" fill="#3F3D56"/>
<path d="M179.406 504.433C173.465 502.802 151.32 505.004 151.32 505.004C152.334 506.979 153.525 508.857 154.88 510.615L159.269 507.87L156.279 512.278C157.083 513.172 157.976 513.983 158.944 514.697L165.699 510.472L161.833 516.172C161.873 516.184 161.914 516.197 161.955 516.208C167.895 517.839 176.617 516.526 181.436 513.274C186.255 510.022 185.346 506.064 179.406 504.433Z" fill="#3F3D56"/>
<path d="M353.099 541.153C347.159 539.522 325.014 541.725 325.014 541.725C326.028 543.699 327.219 545.577 328.574 547.335L332.963 544.59L329.973 548.999C330.777 549.893 331.67 550.703 332.638 551.417L339.393 547.192L335.526 552.892C335.567 552.904 335.608 552.917 335.649 552.929C341.589 554.56 350.311 553.246 355.13 549.994C359.948 546.743 359.04 542.785 353.099 541.153Z" fill="#3F3D56"/>
<path d="M179.406 528.33C173.465 526.699 151.32 528.902 151.32 528.902C152.334 530.876 153.525 532.754 154.88 534.512L159.269 531.767L156.279 536.176C157.083 537.07 157.976 537.88 158.944 538.594L165.699 534.369L161.833 540.069C161.873 540.081 161.914 540.094 161.955 540.106C167.895 541.737 176.617 540.423 181.436 537.171C186.255 533.92 185.346 529.961 179.406 528.33Z" fill="#3F3D56"/>
<path d="M429.668 321.284C427.849 324.08 426.693 331.126 426.003 337.246L429.431 340.9L425.754 339.599C425.302 344.18 425.125 347.755 425.125 347.755C425.125 347.755 439.885 344.558 443.383 339.181C446.881 333.805 446.646 325.441 442.859 320.499C439.072 315.557 433.166 315.908 429.668 321.284Z" fill="#F9D126"/>
<path d="M445.027 424.457C443.361 427.253 442.301 434.299 441.667 440.419L444.805 444.073L441.439 442.772C441.023 447.353 440.86 450.928 440.86 450.928C440.86 450.928 454.374 447.727 457.578 442.35C460.782 436.973 460.57 428.608 457.104 423.667C453.638 418.726 448.231 419.08 445.027 424.457Z" fill="#F9D126"/>
<path d="M371.083 140.249C371.083 140.249 388.427 137.232 392.198 159.855C395.968 182.477 405.771 226.967 405.771 226.967L403.078 294.852L377.87 286.539L378.624 234.508L365.805 156.838L371.083 140.249Z" fill="#D0CDE1"/>
<path opacity="0.15" d="M364.674 170.789L374.476 234.885L372.214 289.179L382.772 236.393L364.674 170.789Z" fill="black"/>
<path d="M441.921 117.908C436.912 122.066 428.083 142.503 428.083 142.503C430.908 142.801 433.752 142.891 436.59 142.772L435.597 137.346L439.29 142.555C440.731 142.401 442.154 142.113 443.541 141.695L442.012 133.343L446.787 140.079C446.822 140.051 446.859 140.024 446.893 139.995C451.902 135.837 454.849 127.522 453.476 121.423C452.103 115.324 446.929 113.751 441.921 117.908Z" fill="#F9D126"/>
</svg>
