<svg width="633" height="633" viewBox="0 0 633 633" fill="none" xmlns="http://www.w3.org/2000/svg">
<circle cx="316.5" cy="316.5" r="316.5" fill="#FFF8D9"/>
<circle cx="316" cy="316" r="291" fill="#F9D126"/>
<path d="M471.495 298.594C470.54 296.139 471.905 294.911 472.45 292.729C472.996 290.546 471.222 283.725 471.222 283.725C471.222 283.725 465.493 260.125 463.72 255.487C462.969 253.524 461.339 252.174 459.709 251.268C459.598 250.666 459.438 250.277 459.218 250.167C457.638 249.376 453.701 247.66 451.078 247.185C450.588 246.342 450.006 245.556 449.344 244.84C449.804 243.955 450.017 242.963 449.962 241.968C449.794 239.394 447.845 237.088 448.099 234.521C448.291 232.575 449.714 230.976 450.263 229.099C450.494 228.255 450.548 227.374 450.423 226.509C450.299 225.644 449.998 224.813 449.539 224.07C449.942 224.499 450.346 224.928 450.749 225.358C451.298 224.535 451.562 223.555 451.501 222.568C451.441 221.581 451.058 220.641 450.412 219.892C449.134 218.48 446.997 217.951 446.006 216.325C444.987 214.655 445.534 212.385 444.571 210.683C442.211 206.511 436.17 209.468 432.552 208.012C431.065 207.414 429.934 206.755 428.261 206.803C426.839 206.884 425.432 207.147 424.076 207.584C422.131 208.147 420.438 209.361 419.28 211.022C419.394 210.892 419.52 210.772 419.655 210.664C420.532 209.977 422.069 210.034 422.532 211.047C422.643 211.302 422.689 211.58 422.667 211.857C422.591 213.078 421.524 213.99 420.464 214.601C419.404 215.213 418.211 215.724 417.519 216.733C416.377 218.399 417.049 220.635 417.049 222.654C417.04 223.938 416.743 225.203 416.18 226.356C415.617 227.51 414.802 228.522 413.796 229.319L417.646 227.745C415.808 230.962 414.601 234.501 414.091 238.17L419.295 233.871C417.368 236.939 416.196 240.42 415.877 244.03L420.055 239.749C420.245 240.083 420.34 240.463 420.33 240.848L419.895 242.528C419.741 242.862 419.57 243.187 419.384 243.503C418.711 244.658 418.016 246.079 418.645 247.257L418.648 247.256C417.986 249.482 416.988 251.71 414.767 252.793C417.23 253.051 419.801 251.819 420.914 249.859C421.095 250.211 421.314 250.543 421.567 250.849C421.639 250.939 421.709 251.027 421.78 251.116L421.166 251.526L419.521 252.622C419.521 252.622 408.744 254.805 409.426 258.898C409.454 259.066 409.488 259.267 409.526 259.492L406.425 264.763L401.924 280.042C401.924 280.042 399.604 284.953 400.014 286.999C400.423 289.045 400.014 289.864 400.014 293.547C400.014 297.23 398.24 298.731 400.014 301.732C401.787 304.733 407.107 313.464 407.107 313.464L408.276 314.34C408.219 314.866 408.239 315.398 408.335 315.919C409.426 321.376 419.657 373.623 419.657 373.623C419.657 373.623 414.474 414.957 424.978 417.548C426.295 417.874 427.589 418.169 428.846 418.431L430.434 428.871L429.479 442.103C429.479 442.103 422.249 458.473 435.482 459.428C448.714 460.383 442.712 445.241 442.712 445.241C443.41 443.948 443.696 442.472 443.53 441.012C443.395 439.798 442.259 433.478 441.146 427.4C446.167 426.798 445.228 421.469 444.558 419.126C444.848 418.957 445.065 418.686 445.167 418.367C445.318 417.823 444.966 415.682 444.328 412.682C443.808 409.7 442.919 404.872 442.312 401.602L445.576 402.134L459.354 321.376C459.354 321.376 459.445 320.09 459.404 318.21C461.287 317.235 463.23 316.379 465.22 315.646C469.722 313.873 471.495 307.325 472.996 304.597C474.496 301.868 472.45 301.05 471.495 298.594ZM422.576 247.176C423.022 246.868 423.544 246.691 424.085 246.664C423.969 247.298 422.877 247.484 421.962 247.816C422.13 247.57 422.338 247.354 422.576 247.176ZM415.701 287.818C416.807 289.633 414.806 294.554 413.002 298.458C411.969 297.568 410.891 297.849 412.155 295.32C413.017 293.718 413.528 291.951 413.655 290.137C413.655 289.825 413.815 287.533 415.159 286.581C415.301 287.009 415.482 287.423 415.701 287.818ZM411.561 303.489C412.187 303.234 413.134 302.843 414.413 302.408C413.8 303.213 413.101 304.171 412.397 305.217C412.131 305.015 411.917 304.754 411.772 304.453C411.626 304.153 411.554 303.822 411.561 303.489ZM455.807 305.279C454.978 304.398 454.308 303.609 453.756 302.904C454.785 303.175 455.833 303.466 456.899 303.778C457.43 303.857 457.972 303.821 458.488 303.672C458.536 304.615 458.536 305.961 458.536 305.961L457.042 306.995C456.701 306.375 456.287 305.799 455.807 305.279V305.279ZM460.041 300.548C460.025 300.562 460.008 300.578 459.991 300.592C459.918 300.053 459.796 299.521 459.627 299.004C458.733 296.184 458.255 291.181 458.001 286.912L460.582 295.593C460.582 295.593 460.718 299.959 460.041 300.548Z" fill="#D0CDE1"/>
<path d="M407.051 264.692C407.051 264.692 393.056 240.638 392.619 238.013C392.181 235.389 385.184 230.578 385.184 230.578C382.793 228.188 378.87 227.431 374.742 227.47C376.296 226.184 370.746 225.32 370.314 224.455C369.876 223.581 368.564 223.581 366.815 222.269C365.065 220.957 360.699 222.05 360.698 222.05C360.042 220.669 359.585 219.201 359.342 217.691C361.205 215.486 362.226 212.691 362.223 209.804C362.223 209.773 362.22 209.742 362.22 209.711C362.331 209.884 362.443 210.058 362.554 210.238C363.373 205.33 364.82 201.251 362.063 196.774C360.109 193.601 357.051 191.263 353.477 190.21L350.851 192.31L351.872 189.86C351.014 189.729 350.145 189.679 349.277 189.71L346.915 192.747L347.893 189.814C345.843 190.069 343.868 190.746 342.093 191.802C340.318 192.858 338.781 194.27 337.579 195.949C334.573 200.284 334.774 206.31 337.731 210.679C337.741 210.648 337.748 210.618 337.758 210.588C337.889 212.632 338.53 214.61 339.623 216.342C340.716 218.074 342.226 219.504 344.015 220.501L344.758 226.443C344.09 227.063 343.232 227.442 342.323 227.517C341.011 227.517 339.699 231.016 339.699 231.016C339.699 231.016 338.955 231.391 338.154 233.163C336.089 234.568 329.791 238.983 327.455 242.069C326.073 242.749 324.588 244.262 324.829 247.635C325.266 253.758 324.829 282.186 324.829 282.186C324.829 282.186 320.893 306.241 322.205 307.99C323.517 309.739 321.767 315.425 321.767 315.425L323.079 315.717V317.174C323.079 317.174 319.133 335.468 325.266 334.669C335.325 333.356 327.89 318.486 327.89 318.486V316.786L329.64 317.174C329.64 317.174 330.514 311.051 332.264 310.614C332.872 310.462 333.586 308.827 334.259 306.761C334.652 309.984 334.888 311.926 334.888 311.926L337.625 311.318L338.387 314.113C338.575 314.218 338.771 314.307 338.975 314.379L338.387 317.612C338.387 317.612 337.949 321.111 338.387 323.297C338.607 324.4 346.726 347.973 354.72 371.071L354.569 376.654C354.569 376.654 350.633 381.028 351.507 384.089C352.382 387.151 349.321 412.517 349.321 412.517L346.696 425.201L347.357 425.404L346.751 427.626C346.229 427.89 345.764 428.255 345.384 428.699C341.886 432.636 337.512 444.007 337.512 444.007C337.512 444.007 329.64 455.815 341.886 455.378C354.131 454.941 355.006 450.567 355.006 450.567C355.006 450.567 356.756 439.196 356.756 438.759C356.756 438.321 355.881 433.825 355.881 433.825L355.541 433.451L355.778 427.995L358.068 428.699C358.068 428.699 360.254 417.328 362.004 416.016C362.615 415.558 364.242 410.45 366.099 403.889C367.998 409.355 369.836 428.255 370.432 429.97C370.221 430.259 370.035 430.565 369.876 430.886C367.91 434.659 365.72 438.31 363.316 441.82C363.316 441.82 349.321 450.13 363.316 452.317C363.316 452.317 371.188 452.754 375.124 450.13C379.061 447.506 389.557 443.569 389.557 442.695C389.557 441.82 386.933 428.962 384.309 430.361L382.551 426.318L384.309 425.638L373.236 375.937C373.498 374.878 373.691 373.803 373.812 372.718C373.812 370.428 379.475 325.832 380.917 314.52C387.259 316.317 393.056 303.179 393.056 303.179L394.494 300.591L396.555 301.867C396.555 301.867 398.304 297.494 400.928 297.056C403.552 296.619 408.363 273.439 408.363 270.378C408.323 268.412 407.876 266.476 407.051 264.692ZM386.674 298.958C386.244 298.275 385.744 297.637 385.184 297.056C386.327 294.078 387.205 291.004 387.808 287.872C388.682 283.061 386.496 267.316 386.496 267.316L386.457 266.247C388.604 269.065 391.306 272.821 391.306 273.876C391.306 274.386 391.425 274.888 391.653 275.343C391.881 275.799 392.211 276.195 392.619 276.5L389.994 285.685C389.994 285.685 388.245 290.058 387.808 292.245C387.546 293.542 387.399 294.859 387.37 296.181L387.99 296.565L386.674 298.958Z" fill="#D0CDE1"/>
<path d="M206.829 272.787L209.163 272.262L199.541 245.146L178.767 237.492C178.767 237.492 178.687 237.581 178.54 237.733C176.768 236.018 176.016 233.529 175.702 231.571C177.373 230.896 178.874 229.86 180.098 228.539C181.323 227.217 182.24 225.641 182.785 223.924C183.33 222.206 183.49 220.39 183.252 218.604C183.014 216.818 182.385 215.106 181.41 213.592C183.121 213.181 183.733 211.628 184.307 209.776C183.951 209.671 183.589 209.592 183.221 209.539C183.491 208.936 183.76 208.332 184.029 207.728C183.556 207.686 183.083 207.643 182.61 207.601C182.731 207.037 182.852 206.472 182.973 205.908C182.369 206.325 181.766 206.741 181.163 207.158C181.368 206.565 181.418 205.93 181.311 205.313C181.203 204.695 180.94 204.115 180.546 203.627C179.745 202.659 178.7 201.922 177.519 201.493C175.209 200.584 172.694 200.329 170.249 200.757C167.804 201.184 165.523 202.277 163.659 203.915L163.528 203.405C159.836 206.244 157.42 210.431 156.81 215.048C156.23 219.612 158.423 224.259 161.273 227.871C161.249 227.713 161.223 227.556 161.197 227.399C161.32 227.568 161.447 227.735 161.578 227.898L161.929 241.21L161.051 241.962C161.05 241.963 146.331 248.622 145.757 256.576L145.756 256.581C144.872 260.453 144.435 280.572 144.435 280.572H145.646L144.435 288.444L136.562 319.059C136.562 319.059 126.503 332.179 135.25 334.804C140.686 336.434 142.237 330.128 142.632 325.119C142.947 326.36 143.889 327.2 145.747 327.369C145.893 327.382 146.049 327.393 146.2 327.405C142.064 338.093 144.872 372.853 144.872 372.853C142.685 377.227 168.489 407.404 168.489 407.404L170.043 406.575L170.379 407.248C169.514 407.331 168.926 407.404 168.926 407.404V420.962C168.926 420.962 164.99 434.52 170.238 437.144C171.597 437.823 173.013 437.329 174.367 436.226C174.108 440.41 173.737 446.654 173.737 448.078C173.737 450.265 179.423 454.201 179.423 454.201C179.423 454.201 180.735 459.012 191.231 459.012C201.728 459.012 193.856 446.329 193.856 446.329L188.17 433.645C188.17 433.645 187.745 433.853 186.457 432.805L186.918 427.734L189.482 427.96L192.981 376.789C192.981 376.789 196.042 331.305 196.48 324.307C196.582 322.064 196.529 319.816 196.322 317.579L209.163 291.068L206.829 272.787ZM197.354 289.756L196.042 294.328V284.216L197.354 289.756ZM142.754 322.19C142.765 320.587 142.685 319.496 142.685 319.496L151.235 302.396L150.995 307.688C150.995 307.688 144.147 316.35 142.754 322.19ZM162.804 371.541L171.113 342.239L175.924 377.664L175.579 390.543C174.993 389.36 174.523 388.122 174.175 386.849C172.863 381.6 162.804 371.541 162.804 371.541Z" fill="#D0CDE1"/>
<path d="M281.157 441.149C277.059 439.461 269.105 435.846 268.14 433.917C267.176 431.989 262.355 417.044 262.355 417.044L261.114 417.134C260.954 410.345 260.27 384.032 259.222 380.886C259.222 380.886 264.284 339.185 254.159 322.552L252.335 315.183C252.934 312.229 252.857 305.388 252.472 304.233C251.99 302.786 258.016 298.206 256.329 295.314C254.642 292.421 250.062 282.538 250.062 282.538C250.062 282.538 250.544 276.271 244.035 270.486C244.035 270.486 242.134 259.718 233.563 259.558C232.404 257.536 230.783 254.321 231.26 252.889C231.771 251.356 233.724 246.578 234.828 243.903C235.414 243.639 235.977 243.325 236.51 242.967C243.327 239.913 248.132 232.571 248.132 223.995C248.132 214.814 242.627 207.045 235.042 204.439C235.38 203.549 235.518 202.595 235.446 201.645C235.375 200.695 235.096 199.773 234.629 198.942C234.162 198.112 233.519 197.395 232.744 196.841C231.969 196.287 231.082 195.909 230.146 195.736C229.209 195.562 228.246 195.596 227.324 195.836C226.402 196.075 225.544 196.514 224.81 197.121C224.077 197.729 223.486 198.49 223.078 199.351C222.671 200.212 222.458 201.152 222.454 202.105C222.037 201.116 221.871 200.039 221.972 198.971C222.072 197.902 222.435 196.875 223.029 195.981C223.623 195.088 224.429 194.355 225.375 193.848C226.321 193.342 227.378 193.077 228.451 193.079C228.874 193.079 229.295 193.121 229.71 193.203C228.281 192.523 226.653 192.388 225.131 192.823C223.61 193.257 222.299 194.232 221.444 195.564C220.59 196.895 220.25 198.493 220.489 200.057C220.728 201.622 221.529 203.045 222.743 204.061C222.818 204.299 222.907 204.532 223.009 204.76C215.871 207.641 210.779 215.165 210.779 223.995C210.779 232.186 215.161 239.251 221.493 242.53C221.459 245.195 220.798 249.687 217.124 252.424C215.226 251.557 212.592 250.605 210.901 251.037C210.027 250.355 208.709 250.13 206.914 251.925C203.298 255.541 200.164 264.942 200.164 270.727C200.164 276.512 200.888 310.018 200.888 310.018C200.888 310.018 197.031 311.464 199.682 313.634C200.23 314.09 200.917 314.345 201.63 314.357L204.262 333.882C204.262 333.882 202.575 352.684 209.083 352.925C209.594 352.953 210.101 352.828 210.54 352.567L205.709 374.378C205.709 374.378 194.62 381.61 185.943 395.831C181.473 403.157 179.245 407.663 178.132 410.316L176.542 409.33L170.998 419.936C170.998 419.936 158.704 427.409 161.356 432.953C164.007 438.497 166.418 439.943 166.418 439.943L168.105 439.22L171.239 445.005C171.239 445.005 179.434 456.817 192.692 450.791C193.314 449.955 193.65 448.94 193.65 447.898C193.65 446.856 193.314 445.842 192.692 445.005C190.523 441.872 184.978 435.122 184.978 435.122L188.594 416.803L187.846 416.339L210.771 388.6C210.771 388.6 217.52 384.502 219.931 380.886C222.341 377.271 237.286 339.908 237.286 339.908L245.723 378.958C245.723 378.958 245.241 393.18 247.41 402.34C248.593 407.478 249.364 412.702 249.716 417.963L249.098 418.008L250.544 428.855C250.544 428.855 244.277 444.282 248.615 445.488C251.702 446.285 254.845 446.849 258.016 447.175L258.498 445.488C258.498 445.488 277.059 455.612 283.809 448.139C283.809 448.139 285.255 442.836 281.157 441.149ZM215.109 322.793C215.833 323.517 215.592 326.891 215.592 326.891L214.145 336.292L212.701 342.813C212.501 339.732 212.098 336.668 211.494 333.641L210.826 315.625C210.958 315.708 211.102 315.768 211.253 315.803C211.735 315.803 211.494 311.705 211.494 311.705C211.494 311.705 211.775 310.973 212.126 309.818C213.063 312.624 214.207 314.454 215.592 314.839L215.833 317.972C215.833 317.972 212.699 319.419 215.592 319.419C215.759 319.413 215.926 319.388 216.088 319.345L215.833 320.624C215.833 320.624 214.386 322.07 215.109 322.793Z" fill="#D0CDE1"/>
<path d="M277.037 452.378C384.053 452.378 470.806 450.948 470.806 449.184C470.806 447.42 384.053 445.99 277.037 445.99C170.021 445.99 83.2675 447.42 83.2675 449.184C83.2675 450.948 170.021 452.378 277.037 452.378Z" fill="#3F3D56"/>
<path d="M344.855 465.686C462.572 465.686 558 461.992 558 457.435C558 452.878 462.572 449.184 344.855 449.184C227.138 449.184 131.71 452.878 131.71 457.435C131.71 461.992 227.138 465.686 344.855 465.686Z" fill="#3F3D56"/>
<path d="M305.517 477.93C363.288 477.93 410.12 474.236 410.12 469.679C410.12 465.122 363.288 461.427 305.517 461.427C247.746 461.427 200.913 465.122 200.913 469.679C200.913 474.236 247.746 477.93 305.517 477.93Z" fill="#3F3D56"/>
<path d="M456.699 483.785C482.424 483.785 503.279 481.879 503.279 479.527C503.279 477.175 482.424 475.268 456.699 475.268C430.974 475.268 410.12 477.175 410.12 479.527C410.12 481.879 430.974 483.785 456.699 483.785Z" fill="#3F3D56"/>
<path d="M392.819 498.159C405.02 498.159 414.911 496.252 414.911 493.9C414.911 491.548 405.02 489.641 392.819 489.641C380.618 489.641 370.728 491.548 370.728 493.9C370.728 496.252 380.618 498.159 392.819 498.159Z" fill="#3F3D56"/>
<path d="M212.891 480.059C225.092 480.059 234.982 478.153 234.982 475.801C234.982 473.449 225.092 471.542 212.891 471.542C200.69 471.542 190.799 473.449 190.799 475.801C190.799 478.153 200.69 480.059 212.891 480.059Z" fill="#3F3D56"/>
<path d="M322.019 427.624L324.148 442.529L334.795 441.465L333.73 426.027L322.019 427.624Z" fill="#FFB8B8"/>
<path d="M271.447 427.624L269.318 442.529L258.671 441.465L259.736 426.027L271.447 427.624Z" fill="#FFB8B8"/>
<path d="M256.01 273.248C256.01 273.248 246.428 284.427 248.557 301.994C250.686 319.561 254.413 359.486 254.413 359.486L257.074 430.286L274.109 429.221L276.771 369.068L285.288 320.625L308.178 377.053C308.178 377.053 319.357 429.754 319.89 429.754C320.422 429.754 335.86 428.157 335.86 428.157L328.407 365.874C328.407 365.874 316.696 275.377 309.775 273.78C302.855 272.183 256.01 273.248 256.01 273.248Z" fill="#2F2E41"/>
<path d="M335.86 439.336C335.86 439.336 326.278 432.948 322.551 440.4C318.825 447.853 322.019 453.176 322.019 453.176C322.019 453.176 325.213 455.306 323.616 457.435C322.019 459.564 321.487 473.405 335.327 471.276C349.168 469.146 342.248 454.773 342.248 454.773L335.86 439.336Z" fill="#2F2E41"/>
<path d="M257.606 439.336C257.606 439.336 267.188 432.948 270.915 440.4C274.641 447.853 271.447 453.176 271.447 453.176C271.447 453.176 268.253 455.306 269.85 457.435C271.447 459.564 271.979 473.405 258.139 471.276C244.298 469.146 251.218 454.773 251.218 454.773L257.606 439.336Z" fill="#2F2E41"/>
<path d="M269.052 169.709C269.052 169.709 273.843 183.017 270.116 190.47C266.39 197.922 275.972 206.44 275.972 206.44C275.972 206.44 300.992 193.664 297.798 187.276C294.604 180.888 289.28 172.37 290.345 167.047L269.052 169.709Z" fill="#FFB8B8"/>
<path d="M278.368 174.766C287.776 174.766 295.402 167.139 295.402 157.731C295.402 148.323 287.776 140.696 278.368 140.696C268.96 140.696 261.333 148.323 261.333 157.731C261.333 167.139 268.96 174.766 278.368 174.766Z" fill="#FFB8B8"/>
<path d="M266.124 189.671C266.124 189.671 283.216 203.894 295.963 183.741L309.243 191.268L316.163 272.183C316.163 272.183 277.303 294.541 258.671 275.377L261.333 200.318L266.124 189.671Z" fill="#D0CDE1"/>
<path d="M271.491 181.704L247.492 197.656L256.01 237.049L244.831 298.267L262.93 271.118L271.491 181.704Z" fill="#575A89"/>
<path d="M292.702 177.263L298.596 181.154L322.551 189.671L318.825 255.681L328.939 298.267L314.566 305.72C314.566 305.72 311.905 285.491 295.402 275.377C278.9 265.263 288.937 180.293 292.702 177.263Z" fill="#575A89"/>
<path d="M252.816 280.7L259.736 285.491C259.736 285.491 250.952 294.807 249.355 293.21C248.893 292.766 248.534 292.226 248.304 291.628C248.074 291.03 247.979 290.389 248.025 289.75L246.428 286.024L252.816 280.7Z" fill="#FFB8B8"/>
<path d="M298.82 279.665L296.467 283.362C296.467 283.362 289.547 286.556 291.144 288.685C292.741 290.815 306.049 295.606 308.711 290.815L311.372 286.024L298.82 279.665Z" fill="#FFB8B8"/>
<path d="M250.686 197.124L246.96 197.656L240.838 237.315C240.838 237.315 238.443 244.502 241.104 261.536C243.766 278.571 246.402 289.664 246.402 289.664L258.139 281.233L252.816 267.392L259.736 216.82L250.686 197.124Z" fill="#575A89"/>
<path d="M314.034 188.607L322.551 189.671C322.551 189.671 332.133 199.786 333.73 210.432C335.327 221.079 334.795 251.422 334.795 251.422L310.308 290.282L296.999 280.7L315.631 247.696L306.581 208.303L314.034 188.607Z" fill="#575A89"/>
<path d="M294.612 142.324C292.036 138.141 288.004 135.059 283.292 133.67L279.831 136.439L281.176 133.21C280.045 133.037 278.899 132.971 277.755 133.012L274.641 137.016L275.93 133.149C273.228 133.485 270.625 134.377 268.285 135.769C265.944 137.161 263.918 139.023 262.333 141.237C258.37 146.952 257.701 154.899 261.599 160.659C262.669 157.371 263.968 154.285 265.038 150.996C265.879 151.111 266.732 151.115 267.574 151.009L268.876 147.971L269.239 150.88C273.275 150.528 279.26 149.757 283.086 149.049L282.714 146.818L284.939 148.672C286.111 148.402 286.807 148.158 286.75 147.971C289.595 152.558 292.414 155.487 295.259 160.074C296.339 153.604 298.246 148.226 294.612 142.324Z" fill="#2F2E41"/>
<path d="M293.669 159.502C294.306 159.502 294.822 158.47 294.822 157.196C294.822 155.922 294.306 154.89 293.669 154.89C293.032 154.89 292.516 155.922 292.516 157.196C292.516 158.47 293.032 159.502 293.669 159.502Z" fill="#FFB8B8"/>
<path d="M477.922 458.276C478.413 475.076 468.597 481.232 456.278 481.592C455.992 481.6 455.708 481.606 455.424 481.608C454.853 481.612 454.287 481.602 453.727 481.579C442.586 481.116 433.767 475.203 433.311 459.579C432.839 443.411 452.907 422.403 454.413 420.849L454.415 420.848C454.473 420.788 454.502 420.759 454.502 420.759C454.502 420.759 477.432 441.478 477.922 458.276Z" fill="#F9D126"/>
<path d="M455.392 479.046L463.217 467.409L455.408 480.298L455.424 481.607C454.853 481.612 454.287 481.602 453.727 481.579L454.115 464.747L454.104 464.617L454.119 464.592L454.156 463.001L445.586 450.559L454.146 461.811L454.176 462.147L454.469 449.43L447.067 436.53L454.49 447.196L454.413 420.849L454.413 420.761L454.415 420.848L454.907 441.612L461.653 433.178L454.929 443.401L455.076 454.777L461.284 443.675L455.099 456.449L455.181 462.774L464.208 447.309L455.208 464.981L455.392 479.046Z" fill="#3F3D56"/>
<path d="M192.591 433.257C193.082 450.056 183.266 456.213 170.948 456.572C170.661 456.581 170.377 456.586 170.093 456.588C169.522 456.592 168.956 456.583 168.396 456.559C157.255 456.097 148.436 450.183 147.98 434.559C147.508 418.391 167.576 397.383 169.082 395.829L169.084 395.828C169.142 395.769 169.171 395.739 169.171 395.739C169.171 395.739 192.101 416.458 192.591 433.257Z" fill="#F9D126"/>
<path d="M170.061 454.027L177.886 442.39L170.077 455.278L170.093 456.588C169.522 456.592 168.956 456.583 168.396 456.559L168.784 439.727L168.774 439.597L168.788 439.572L168.825 437.982L160.255 425.54L168.815 436.791L168.845 437.128L169.138 424.41L161.737 411.511L169.16 422.176L169.082 395.829L169.082 395.742L169.085 395.828L169.576 416.593L176.322 408.158L169.598 418.382L169.745 429.757L175.953 418.655L169.768 431.429L169.85 437.755L178.878 422.29L169.878 439.961L170.061 454.027Z" fill="#3F3D56"/>
<path d="M405.801 481.96C406.089 491.821 400.327 495.435 393.096 495.646C392.928 495.651 392.761 495.654 392.595 495.655C392.259 495.657 391.927 495.652 391.598 495.638C385.059 495.367 379.882 491.895 379.615 482.725C379.338 473.234 391.117 460.903 392.001 459.991L392.003 459.99C392.036 459.956 392.053 459.938 392.053 459.938C392.053 459.938 405.513 472.1 405.801 481.96Z" fill="#F9D126"/>
<path d="M392.576 494.152L397.169 487.321L392.585 494.886L392.595 495.655C392.259 495.658 391.927 495.652 391.598 495.638L391.826 485.758L391.82 485.682L391.828 485.667L391.85 484.734L386.82 477.431L391.844 484.035L391.862 484.232L392.034 476.768L387.69 469.196L392.047 475.456L392.001 459.991L392.001 459.94L392.003 459.99L392.291 472.179L396.251 467.228L392.304 473.229L392.391 479.906L396.034 473.389L392.404 480.888L392.452 484.6L397.751 475.523L392.468 485.896L392.576 494.152Z" fill="#3F3D56"/>
<path d="M510.222 442.718L549.65 384.083L510.302 449.026L510.385 455.623C507.506 455.645 504.656 455.597 501.833 455.48L503.789 370.668L503.735 370.014L503.807 369.888L503.994 361.873L460.815 299.182L503.943 355.875L504.097 357.569L505.574 293.491L468.278 228.495L505.68 282.234L505.289 149.481L505.29 149.039L505.303 149.474L507.779 254.101L541.769 211.601L507.89 263.115L508.632 320.431L539.91 264.492L508.747 328.858L509.16 360.728L554.646 282.807L509.298 371.847L510.222 442.718Z" fill="#3F3D56"/>
<path d="M107.62 440.445L134.45 400.545L107.675 444.737L107.731 449.227C105.772 449.242 103.832 449.209 101.911 449.129L103.242 391.417L103.206 390.972L103.255 390.886L103.382 385.433L74 342.773L103.348 381.351L103.452 382.504L104.457 338.9L79.0785 294.672L104.529 331.24L104.263 240.906L104.264 240.605L104.273 240.901L105.957 312.097L129.087 283.177L106.033 318.23L106.538 357.232L127.822 319.168L106.616 362.966L106.897 384.653L137.849 331.63L106.991 392.219L107.62 440.445Z" fill="#3F3D56"/>
</svg>
