<svg width="633" height="633" viewBox="0 0 633 633" fill="none" xmlns="http://www.w3.org/2000/svg">
<circle cx="316.5" cy="316.5" r="316.5" fill="#FFF8D9"/>
<circle cx="316" cy="316" r="291" fill="#F9D126"/>
<path d="M557.498 179H218.114C216.822 179.001 215.582 179.525 214.668 180.455C213.754 181.386 213.24 182.648 213.239 183.965V418.15C213.24 419.467 213.754 420.729 214.668 421.66C215.582 422.591 216.822 423.114 218.114 423.115H557.498C558.203 423.115 558.899 422.96 559.539 422.659C560.179 422.358 560.748 421.919 561.205 421.373C561.244 421.33 561.279 421.285 561.311 421.236C561.602 420.874 561.838 420.469 562.01 420.035C562.255 419.438 562.381 418.797 562.379 418.15V183.965C562.377 182.647 561.863 181.385 560.947 180.454C560.032 179.523 558.791 179 557.498 179ZM560.987 418.151C560.987 418.843 560.787 419.521 560.411 420.098C560.077 420.606 559.623 421.021 559.091 421.305C558.599 421.564 558.052 421.699 557.498 421.698H218.114C217.191 421.696 216.306 421.322 215.653 420.657C215 419.992 214.632 419.091 214.631 418.151V183.965C214.632 183.024 215 182.123 215.653 181.458C216.306 180.793 217.191 180.419 218.114 180.418H557.498C558.422 180.418 559.309 180.791 559.963 181.456C560.617 182.121 560.985 183.023 560.987 183.965V418.151Z" fill="#3F3D56"/>
<path d="M561.68 198.898H213.934V200.318H561.68V198.898Z" fill="#3F3D56"/>
<path d="M225.781 193.903C228.09 193.903 229.962 191.996 229.962 189.645C229.962 187.293 228.09 185.387 225.781 185.387C223.472 185.387 221.6 187.293 221.6 189.645C221.6 191.996 223.472 193.903 225.781 193.903Z" fill="#3F3D56"/>
<path d="M237.802 193.903C240.111 193.903 241.983 191.996 241.983 189.645C241.983 187.293 240.111 185.387 237.802 185.387C235.493 185.387 233.621 187.293 233.621 189.645C233.621 191.996 235.493 193.903 237.802 193.903Z" fill="#3F3D56"/>
<path d="M249.823 193.903C252.133 193.903 254.005 191.996 254.005 189.645C254.005 187.293 252.133 185.387 249.823 185.387C247.514 185.387 245.642 187.293 245.642 189.645C245.642 191.996 247.514 193.903 249.823 193.903Z" fill="#3F3D56"/>
<path d="M520.443 301.793H249.272C246.752 301.79 244.336 300.769 242.554 298.955C240.772 297.14 239.769 294.68 239.767 292.114V233.471C239.769 230.904 240.772 228.444 242.554 226.63C244.336 224.815 246.752 223.795 249.272 223.792H520.443C522.963 223.795 525.379 224.815 527.161 226.63C528.943 228.444 529.945 230.904 529.948 233.471V292.114C529.945 294.68 528.943 297.14 527.161 298.955C525.379 300.769 522.963 301.79 520.443 301.793ZM249.272 224.93C247.048 224.933 244.916 225.834 243.344 227.435C241.772 229.036 240.887 231.206 240.885 233.471V292.114C240.887 294.378 241.772 296.549 243.344 298.15C244.916 299.751 247.048 300.652 249.272 300.654H520.443C522.666 300.652 524.798 299.751 526.37 298.15C527.943 296.549 528.827 294.378 528.829 292.114V233.471C528.827 231.206 527.943 229.036 526.37 227.435C524.798 225.834 522.666 224.933 520.443 224.93H249.272Z" fill="#F2F2F2"/>
<path d="M309.097 407.692H249.272C246.752 407.689 244.336 406.669 242.554 404.854C240.772 403.04 239.769 400.579 239.767 398.013V354.743C239.769 352.176 240.772 349.716 242.554 347.902C244.336 346.087 246.752 345.066 249.272 345.064H309.097C311.617 345.066 314.033 346.087 315.815 347.902C317.597 349.716 318.599 352.176 318.602 354.743V398.013C318.599 400.579 317.597 403.04 315.815 404.854C314.033 406.669 311.617 407.689 309.097 407.692ZM249.272 346.202C247.048 346.205 244.916 347.105 243.344 348.707C241.772 350.308 240.887 352.478 240.885 354.743V398.013C240.887 400.278 241.772 402.448 243.344 404.049C244.916 405.65 247.048 406.551 249.272 406.554H309.097C311.32 406.551 313.452 405.65 315.024 404.049C316.597 402.448 317.481 400.278 317.484 398.013V354.743C317.481 352.478 316.597 350.308 315.024 348.707C313.452 347.105 311.32 346.205 309.097 346.202H249.272Z" fill="#F2F2F2"/>
<path d="M520.443 407.692H460.617C458.097 407.689 455.681 406.669 453.899 404.854C452.117 403.04 451.115 400.579 451.112 398.013V354.743C451.115 352.176 452.117 349.716 453.899 347.902C455.681 346.087 458.097 345.066 460.617 345.064H520.443C522.963 345.066 525.379 346.087 527.16 347.902C528.942 349.716 529.945 352.176 529.947 354.743V398.013C529.945 400.579 528.942 403.04 527.16 404.854C525.379 406.669 522.963 407.689 520.443 407.692ZM460.617 346.202C458.394 346.205 456.262 347.105 454.69 348.707C453.117 350.308 452.233 352.478 452.23 354.743V398.013C452.233 400.278 453.117 402.448 454.69 404.049C456.262 405.65 458.394 406.551 460.617 406.554H520.443C522.666 406.551 524.798 405.65 526.37 404.049C527.942 402.448 528.827 400.278 528.829 398.013V354.743C528.827 352.478 527.942 350.308 526.37 348.707C524.798 347.105 522.666 346.205 520.443 346.202H460.617Z" fill="#F2F2F2"/>
<path d="M419.243 407.692H359.417C356.897 407.689 354.481 406.669 352.699 404.854C350.917 403.04 349.915 400.579 349.912 398.013V354.743C349.915 352.176 350.917 349.716 352.699 347.902C354.481 346.087 356.897 345.066 359.417 345.064H419.243C421.763 345.066 424.179 346.087 425.961 347.902C427.742 349.716 428.745 352.176 428.748 354.743V398.013C428.745 400.579 427.742 403.04 425.961 404.854C424.179 406.669 421.763 407.689 419.243 407.692ZM359.417 346.202C357.194 346.205 355.062 347.105 353.49 348.707C351.917 350.308 351.033 352.478 351.031 354.743V398.013C351.033 400.278 351.917 402.448 353.49 404.049C355.062 405.65 357.194 406.551 359.417 406.554H419.243C421.466 406.551 423.598 405.65 425.17 404.049C426.742 402.448 427.627 400.278 427.629 398.013V354.743C427.627 352.478 426.742 350.308 425.17 348.707C423.598 347.105 421.466 346.205 419.243 346.202H359.417Z" fill="#F2F2F2"/>
<path d="M243.094 226.462L242.828 227.568L529.256 298.93L529.521 297.824L243.094 226.462Z" fill="#F2F2F2"/>
<path d="M526.615 226.444L242.831 298.035L243.1 299.14L526.884 227.549L526.615 226.444Z" fill="#F2F2F2"/>
<path d="M531.625 321.435H260.454C258.008 321.433 255.663 320.442 253.934 318.681C252.204 316.92 251.231 314.532 251.229 312.041V253.398C251.231 250.907 252.204 248.519 253.934 246.758C255.663 244.997 258.008 244.006 260.454 244.004H531.625C534.071 244.006 536.416 244.997 538.145 246.758C539.875 248.519 540.848 250.907 540.85 253.398V312.041C540.848 314.532 539.875 316.92 538.145 318.681C536.416 320.442 534.071 321.433 531.625 321.435Z" fill="white"/>
<path d="M353.662 347.634L352.974 348.532L424.634 405.455L425.322 404.557L353.662 347.634Z" fill="#F2F2F2"/>
<path d="M424.992 347.635L354.273 405.259L354.971 406.148L425.69 348.524L424.992 347.635Z" fill="#F2F2F2"/>
<path d="M243.516 347.635L242.828 348.533L314.487 405.456L315.175 404.558L243.516 347.635Z" fill="#F2F2F2"/>
<path d="M314.846 347.635L244.127 405.259L244.825 406.148L315.545 348.524L314.846 347.635Z" fill="#F2F2F2"/>
<path d="M454.863 347.634L454.175 348.532L525.834 405.455L526.522 404.557L454.863 347.634Z" fill="#F2F2F2"/>
<path d="M526.192 347.635L455.472 405.259L456.171 406.148L526.89 348.524L526.192 347.635Z" fill="#F2F2F2"/>
<path d="M427.629 448.97H367.804C365.358 448.967 363.013 447.977 361.284 446.216C359.554 444.454 358.581 442.067 358.579 439.576V396.305C358.581 393.815 359.554 391.427 361.284 389.666C363.013 387.904 365.358 386.914 367.804 386.911H427.629C430.075 386.914 432.42 387.904 434.15 389.666C435.879 391.427 436.852 393.815 436.855 396.305V439.576C436.852 442.067 435.879 444.454 434.15 446.216C432.42 447.977 430.075 448.967 427.629 448.97Z" fill="#F9D126"/>
<path d="M458.876 449.824H336.43C336.281 449.824 336.139 449.764 336.034 449.657C335.93 449.551 335.871 449.406 335.871 449.255C335.871 449.104 335.93 448.959 336.034 448.852C336.139 448.746 336.281 448.686 336.43 448.686H458.876C459.024 448.686 459.167 448.746 459.271 448.852C459.376 448.959 459.435 449.104 459.435 449.255C459.435 449.406 459.376 449.551 459.271 449.657C459.167 449.764 459.024 449.824 458.876 449.824Z" fill="#CCCCCC"/>
<path d="M200.005 480H77.5591C77.4108 480 77.2686 479.94 77.1638 479.833C77.0589 479.726 77 479.582 77 479.431C77 479.28 77.0589 479.135 77.1638 479.028C77.2686 478.921 77.4108 478.861 77.5591 478.861H200.005C200.154 478.861 200.296 478.921 200.401 479.028C200.506 479.135 200.565 479.28 200.565 479.431C200.565 479.582 200.506 479.726 200.401 479.833C200.296 479.94 200.154 480 200.005 480Z" fill="#CCCCCC"/>
<path d="M405.518 414.809H389.862C388.676 414.809 387.538 414.329 386.7 413.475C385.861 412.621 385.39 411.462 385.39 410.254C385.39 409.046 385.861 407.888 386.7 407.034C387.538 406.179 388.676 405.7 389.862 405.7H405.518C406.704 405.7 407.842 406.179 408.68 407.034C409.519 407.888 409.991 409.046 409.991 410.254C409.991 411.462 409.519 412.621 408.68 413.475C407.842 414.329 406.704 414.809 405.518 414.809Z" fill="white"/>
<path d="M414.77 430.182H380.664C379.477 430.182 378.34 429.702 377.501 428.848C376.662 427.993 376.191 426.835 376.191 425.627C376.191 424.419 376.662 423.26 377.501 422.406C378.34 421.552 379.477 421.072 380.664 421.072H414.77C415.956 421.072 417.094 421.552 417.933 422.406C418.771 423.26 419.243 424.419 419.243 425.627C419.243 426.835 418.771 427.993 417.933 428.848C417.094 429.702 415.956 430.182 414.77 430.182Z" fill="white"/>
<path d="M318.602 415.948H258.776C256.331 415.945 253.986 414.954 252.256 413.193C250.527 411.432 249.554 409.044 249.551 406.553V363.283C249.554 360.792 250.527 358.404 252.256 356.643C253.986 354.882 256.331 353.891 258.776 353.888H318.602C321.048 353.891 323.393 354.882 325.122 356.643C326.852 358.404 327.824 360.792 327.827 363.283V406.553C327.824 409.044 326.852 411.432 325.122 413.193C323.393 414.954 321.048 415.945 318.602 415.948Z" fill="#F9D126"/>
<path d="M296.49 381.787H280.835C279.649 381.787 278.511 381.307 277.672 380.453C276.833 379.598 276.362 378.44 276.362 377.232C276.362 376.024 276.833 374.865 277.672 374.011C278.511 373.157 279.649 372.677 280.835 372.677H296.49C297.677 372.677 298.814 373.157 299.653 374.011C300.492 374.865 300.963 376.024 300.963 377.232C300.963 378.44 300.492 379.598 299.653 380.453C298.814 381.307 297.677 381.787 296.49 381.787Z" fill="white"/>
<path d="M305.742 397.159H271.636C270.45 397.159 269.312 396.679 268.473 395.825C267.635 394.971 267.163 393.812 267.163 392.604C267.163 391.396 267.635 390.238 268.473 389.384C269.312 388.53 270.45 388.05 271.636 388.05H305.742C306.929 388.05 308.066 388.53 308.905 389.384C309.744 390.238 310.215 391.396 310.215 392.604C310.215 393.812 309.744 394.971 308.905 395.825C308.066 396.679 306.929 397.159 305.742 397.159Z" fill="white"/>
<path d="M533.302 432.459H473.477C471.031 432.456 468.686 431.466 466.956 429.704C465.227 427.943 464.254 425.555 464.251 423.065V379.794C464.254 377.303 465.227 374.915 466.956 373.154C468.686 371.393 471.031 370.402 473.477 370.4H533.302C535.748 370.402 538.093 371.393 539.822 373.154C541.552 374.915 542.525 377.303 542.528 379.794V423.065C542.525 425.555 541.552 427.943 539.822 429.704C538.093 431.466 535.748 432.456 533.302 432.459Z" fill="#E6E6E6"/>
<path d="M511.191 398.298H495.536C494.349 398.298 493.212 397.818 492.373 396.964C491.534 396.11 491.063 394.951 491.063 393.743C491.063 392.535 491.534 391.377 492.373 390.522C493.212 389.668 494.349 389.188 495.536 389.188H511.191C512.377 389.188 513.515 389.668 514.354 390.522C515.192 391.377 515.664 392.535 515.664 393.743C515.664 394.951 515.192 396.11 514.354 396.964C513.515 397.818 512.377 398.298 511.191 398.298Z" fill="white"/>
<path d="M520.443 413.67H486.336C485.15 413.67 484.012 413.191 483.174 412.336C482.335 411.482 481.864 410.324 481.864 409.116C481.864 407.908 482.335 406.749 483.174 405.895C484.012 405.041 485.15 404.561 486.336 404.561H520.443C521.629 404.561 522.766 405.041 523.605 405.895C524.444 406.749 524.915 407.908 524.915 409.116C524.915 410.324 524.444 411.482 523.605 412.336C522.766 413.191 521.629 413.67 520.443 413.67Z" fill="white"/>
<path d="M245.487 376.342V369.362L219.047 366.041L219.048 376.343L245.487 376.342Z" fill="#A0616A"/>
<path d="M251.851 355.9L251.852 377.837L243.529 377.837L243.528 364.376C243.528 362.128 244.405 359.972 245.966 358.382C247.526 356.793 249.643 355.9 251.851 355.9Z" fill="#2F2E41"/>
<path d="M127.742 472.172L134.597 472.172L137.858 445.248L127.741 445.249L127.742 472.172Z" fill="#A0616A"/>
<path d="M147.817 478.653L126.274 478.654L126.274 470.178L139.493 470.177C141.701 470.177 143.818 471.07 145.379 472.66C146.94 474.249 147.817 476.405 147.817 478.653Z" fill="#2F2E41"/>
<path d="M136.22 462.47C136.138 462.47 136.056 462.466 135.973 462.459L126.637 461.667C126.25 461.635 125.874 461.522 125.53 461.337C125.187 461.152 124.884 460.899 124.64 460.591C124.396 460.284 124.216 459.929 124.11 459.548C124.004 459.168 123.975 458.77 124.025 458.377L128.87 420.004C128.888 419.855 128.888 419.704 128.87 419.555L121.174 357.706C121.123 357.297 121.157 356.882 121.275 356.488C121.392 356.094 121.59 355.73 121.856 355.419C122.121 355.108 122.448 354.857 122.815 354.684C123.182 354.51 123.58 354.418 123.985 354.412L151.21 354.019C151.349 354.018 151.487 354.026 151.625 354.043L151.699 354.064L156.936 356.372L233.066 364.91C233.758 365.003 234.394 365.349 234.855 365.883C235.316 366.417 235.571 367.103 235.573 367.814V377.795C235.573 378.208 235.487 378.616 235.321 378.993C235.155 379.37 234.913 379.706 234.61 379.981C234.307 380.256 233.951 380.462 233.564 380.586C233.178 380.711 232.77 380.751 232.367 380.703L188.386 375.483C188.163 375.455 187.938 375.473 187.722 375.534L152.942 385.295C152.626 385.385 152.34 385.564 152.119 385.812C151.897 386.059 151.749 386.366 151.692 386.696L139.044 460.049C138.929 460.727 138.583 461.342 138.066 461.784C137.549 462.227 136.895 462.47 136.22 462.47Z" fill="#2F2E41"/>
<path d="M133.989 297.983C144.354 297.983 152.756 289.426 152.756 278.872C152.756 268.317 144.354 259.76 133.989 259.76C123.624 259.76 115.221 268.317 115.221 278.872C115.221 289.426 123.624 297.983 133.989 297.983Z" fill="#2F2E41"/>
<path d="M136.2 364.803C131.538 364.803 126.352 363.488 120.953 359.823L120.862 359.761L120.837 359.653C120.786 359.438 115.819 338.03 115.722 321.449C115.691 318.538 116.346 315.661 117.629 313.059C118.913 310.458 120.789 308.206 123.102 306.493C125.324 304.798 127.912 303.669 130.65 303.2C133.389 302.731 136.197 302.936 138.842 303.798C139.191 303.911 139.541 304.032 139.893 304.161C143.559 305.555 146.675 308.135 148.762 311.506C150.85 314.877 151.794 318.852 151.449 322.822C150.741 331.583 150.457 347.539 156.512 355.969L156.654 356.166L156.484 356.339C156.367 356.457 147.946 364.803 136.2 364.803Z" fill="#CCCCCC"/>
<path d="M133.935 298.938C141.52 298.938 147.668 292.677 147.668 284.954C147.668 277.231 141.52 270.97 133.935 270.97C126.351 270.97 120.203 277.231 120.203 284.954C120.203 292.677 126.351 298.938 133.935 298.938Z" fill="#A0616A"/>
<path d="M117.115 284.031C117.312 284.844 117.331 285.691 117.172 286.512C117.013 287.333 116.679 288.109 116.194 288.784C115.709 289.46 115.084 290.019 114.364 290.422C113.643 290.825 112.845 291.062 112.025 291.117L106.726 310.734L99.8846 302.782L105.965 285.372C105.966 283.963 106.474 282.603 107.394 281.55C108.314 280.497 109.581 279.824 110.955 279.659C112.329 279.494 113.715 279.848 114.851 280.653C115.986 281.459 116.791 282.661 117.115 284.031Z" fill="#A0616A"/>
<path d="M96.2851 327.257C95.4345 327.254 94.597 327.043 93.8429 326.643C93.0888 326.242 92.4401 325.663 91.9509 324.954C91.4618 324.246 91.1466 323.428 91.0317 322.57C90.9169 321.711 91.0057 320.838 91.2907 320.022L101.364 291.2C101.603 290.528 102.079 289.971 102.7 289.638C103.321 289.305 104.042 289.219 104.721 289.398L112.062 291.377C112.44 291.479 112.793 291.66 113.098 291.909C113.403 292.158 113.653 292.469 113.833 292.822C114.013 293.176 114.118 293.564 114.142 293.961C114.166 294.358 114.109 294.756 113.973 295.129L107.499 312.899L118.48 309.342C119.419 309.038 120.41 308.935 121.391 309.04C122.371 309.145 123.32 309.455 124.176 309.952C125.033 310.448 125.78 311.12 126.369 311.925C126.958 312.73 127.377 313.65 127.6 314.628C127.823 315.606 127.844 316.621 127.663 317.607C127.482 318.594 127.102 319.532 126.548 320.362C125.993 321.192 125.276 321.896 124.441 322.43C123.606 322.964 122.671 323.315 121.696 323.463L97.0862 327.196C96.821 327.237 96.5533 327.257 96.2851 327.257Z" fill="#CCCCCC"/>
<path d="M175.571 369.452C174.778 369.232 174.042 368.838 173.414 368.297C172.787 367.756 172.284 367.082 171.94 366.322C171.596 365.562 171.42 364.734 171.425 363.897C171.429 363.06 171.613 362.234 171.965 361.478L157.707 347.225L167.858 345.004L179.841 358.879C181.05 359.565 181.97 360.678 182.427 362.009C182.883 363.339 182.844 364.793 182.318 366.097C181.792 367.4 180.814 368.461 179.571 369.08C178.327 369.698 176.904 369.83 175.571 369.452Z" fill="#A0616A"/>
<path d="M168.989 361.697C168.608 361.698 168.23 361.613 167.885 361.448C167.539 361.283 167.233 361.042 166.99 360.742L151.425 341.513L139.243 317.689C138.861 316.491 138.767 315.218 138.969 313.976C139.17 312.734 139.66 311.559 140.399 310.55C141.107 309.569 142.037 308.777 143.111 308.241C144.184 307.705 145.369 307.44 146.564 307.47C147.168 307.483 147.769 307.553 148.361 307.679C149.57 307.956 150.692 308.536 151.626 309.366C152.56 310.197 153.275 311.252 153.706 312.435L164.026 337.124L176.394 353.011C176.816 353.556 177.01 354.249 176.935 354.938C176.86 355.628 176.52 356.26 175.991 356.697L170.609 361.117C170.15 361.494 169.579 361.698 168.989 361.697Z" fill="#CCCCCC"/>
<path d="M564.549 433.313H442.103C441.954 433.313 441.812 433.253 441.707 433.146C441.602 433.04 441.543 432.895 441.543 432.744C441.543 432.593 441.602 432.448 441.707 432.341C441.812 432.234 441.954 432.174 442.103 432.174H564.549C564.697 432.174 564.839 432.234 564.944 432.341C565.049 432.448 565.108 432.593 565.108 432.744C565.108 432.895 565.049 433.04 564.944 433.146C564.839 433.253 564.697 433.313 564.549 433.313Z" fill="#CCCCCC"/>
<path d="M456.854 320.431V321.151H337.371V320.397L338.015 319.471L375.895 265.014C376.07 264.766 376.301 264.565 376.567 264.426C376.834 264.287 377.13 264.214 377.429 264.214C377.729 264.214 378.024 264.287 378.291 264.426C378.558 264.565 378.789 264.766 378.964 265.014L404.365 301.53L422.446 275.764C422.622 275.518 422.852 275.318 423.119 275.179C423.385 275.041 423.68 274.969 423.978 274.969C424.277 274.969 424.572 275.041 424.838 275.179C425.105 275.318 425.335 275.518 425.51 275.764L456.212 319.51L456.854 320.431Z" fill="#F9D126"/>
<path d="M337.123 284.198C344.804 284.198 351.031 277.858 351.031 270.037C351.031 262.215 344.804 255.875 337.123 255.875C329.443 255.875 323.216 262.215 323.216 270.037C323.216 277.858 329.443 284.198 337.123 284.198Z" fill="#F9D126"/>
<path d="M531.625 321.72H260.454C257.934 321.717 255.518 320.697 253.736 318.882C251.954 317.067 250.952 314.607 250.949 312.041V253.398C250.952 250.832 251.954 248.372 253.736 246.557C255.518 244.742 257.934 243.722 260.454 243.719H531.625C534.145 243.722 536.561 244.742 538.343 246.557C540.125 248.372 541.127 250.832 541.13 253.398V312.041C541.127 314.607 540.125 317.067 538.343 318.882C536.561 320.697 534.145 321.717 531.625 321.72ZM260.454 244.858C258.23 244.86 256.098 245.761 254.526 247.362C252.954 248.963 252.069 251.134 252.067 253.398V312.041C252.069 314.305 252.954 316.476 254.526 318.077C256.098 319.678 258.23 320.579 260.454 320.581H531.625C533.848 320.579 535.98 319.678 537.552 318.077C539.125 316.476 540.009 314.305 540.012 312.041V253.398C540.009 251.134 539.125 248.963 537.552 247.362C535.98 245.761 533.848 244.86 531.625 244.858H260.454Z" fill="#3F3D56"/>
<path d="M122.541 265.319C122.541 265.319 130.54 254.206 139.875 259.31C149.211 264.413 153.885 269.95 153.353 274.304C152.82 278.659 150.72 284.895 150.72 284.895C150.72 284.895 151.622 275.9 144.25 276.216C136.878 276.531 126.352 272.649 126.352 272.649L120.751 289.279C120.751 289.279 119.496 285.762 116.897 287.161C114.298 288.56 114.739 267.526 122.541 265.319Z" fill="#2F2E41"/>
</svg>
