<svg width="633" height="633" viewBox="0 0 633 633" fill="none" xmlns="http://www.w3.org/2000/svg">
<circle cx="316.5" cy="316.5" r="316.5" fill="#FFF8D9"/>
<path d="M607 316C607.052 355.392 599.078 394.383 583.565 430.592L582.6 432.813C556.359 492.51 510.858 541.684 453.373 572.471C395.888 603.257 329.739 613.878 265.505 602.635C263.758 602.325 262.013 602.003 260.271 601.67C242.271 598.181 224.645 592.983 207.633 586.148C204.869 585.037 202.125 583.886 199.402 582.695C197.542 581.886 195.683 581.051 193.84 580.19C143.44 556.831 100.768 519.55 70.8534 472.742C40.9391 425.934 25.0296 371.55 25 316C25 155.287 155.287 25 316 25C476.713 25 607 155.287 607 316Z" fill="#F9D126"/>
<path opacity="0.2" d="M265.505 602.635C263.758 602.325 262.013 602.003 260.271 601.671C259.134 568.688 255.234 500.992 241.933 430.093C234.658 391.29 224.559 351.514 210.551 315.957C205.752 303.654 200.271 291.628 194.133 279.935C179.979 253.203 162.812 230.697 141.994 215.45L145.059 211.266C162.373 223.956 177.933 241.772 191.74 264.713C195.881 271.584 199.858 278.913 203.672 286.702C207.762 295.036 211.662 303.884 215.373 313.245C217.74 319.203 220.027 325.367 222.234 331.738C231.842 359.4 240.01 390.963 246.737 426.425C248.226 434.26 249.644 442.286 250.99 450.506C261.416 514.19 264.558 573.07 265.505 602.635Z" fill="black"/>
<path opacity="0.2" d="M199.402 582.695C197.542 581.886 195.683 581.051 193.84 580.19C192.041 560.647 188.735 536.402 182.691 513.389C180.044 503.053 176.646 492.925 172.523 483.084C165.627 466.941 156.699 453.218 145.154 444.755L148.219 440.579C160.306 449.43 169.63 463.42 176.837 479.786C184.955 498.228 190.371 519.691 193.978 540.199C196.655 555.429 198.343 570.143 199.402 582.695Z" fill="black"/>
<path opacity="0.2" d="M113.042 215.33C127.349 215.33 138.946 203.732 138.946 189.425C138.946 175.118 127.349 163.52 113.042 163.52C98.7351 163.52 87.1371 175.118 87.1371 189.425C87.1371 203.732 98.7351 215.33 113.042 215.33Z" fill="black"/>
<path opacity="0.2" d="M121.384 438.323C135.691 438.323 147.289 426.725 147.289 412.418C147.289 398.111 135.691 386.513 121.384 386.513C107.077 386.513 95.4795 398.111 95.4795 412.418C95.4795 426.725 107.077 438.323 121.384 438.323Z" fill="black"/>
<path opacity="0.2" d="M215.884 232.937C210.391 263.929 222.518 291.991 222.518 291.991C222.518 291.991 243.55 269.806 249.043 238.815C254.537 207.823 242.41 179.76 242.41 179.76C242.41 179.76 221.378 201.945 215.884 232.937Z" fill="black"/>
<path opacity="0.2" d="M129.792 306.505C159.353 317.314 189.057 310.377 189.057 310.377C189.057 310.377 170.834 285.915 141.274 275.106C111.713 264.297 82.0089 271.234 82.0089 271.234C82.0089 271.234 100.232 295.696 129.792 306.505Z" fill="black"/>
<path opacity="0.2" d="M124.78 503.973C145.499 511.549 166.349 506.607 166.349 506.607C166.349 506.607 153.606 489.381 132.886 481.804C112.166 474.228 91.3168 479.17 91.3168 479.17C91.3168 479.17 104.06 496.397 124.78 503.973Z" fill="black"/>
<path d="M315.402 380.441C378.057 380.441 428.849 329.649 428.849 266.994C428.849 204.339 378.057 153.547 315.402 153.547C252.747 153.547 201.955 204.339 201.955 266.994C201.955 329.649 252.747 380.441 315.402 380.441Z" fill="#D0CDE1"/>
<path d="M271.087 353.852C271.087 353.852 285.268 421.211 285.268 428.301C285.268 435.392 352.627 467.299 352.627 467.299L412.896 456.663L434.167 392.849C434.167 392.849 398.715 339.671 398.715 318.4L271.087 353.852Z" fill="#D0CDE1"/>
<path d="M583.565 430.592L582.601 432.813C556.359 492.51 510.858 541.684 453.373 572.471C395.888 603.257 329.739 613.878 265.505 602.635C263.758 602.325 262.013 602.003 260.271 601.671C242.271 598.181 224.645 592.983 207.633 586.148C204.869 585.037 202.125 583.886 199.402 582.695C197.542 581.886 195.683 581.051 193.84 580.19C177.14 572.453 161.213 563.148 146.273 552.399L132.825 513.389L140.384 507.621L155.933 495.748L172.523 483.084L176.837 479.786L241.933 430.093L246.737 426.425L280.572 400.597L280.581 400.588C280.581 400.588 317.171 460.208 370.351 442.482C423.532 424.755 422.37 373.924 422.37 373.924L583.565 430.592Z" fill="#2F2E41"/>
<path d="M217.021 175.593C217.021 175.593 253.041 97.5522 322.077 115.562C391.113 133.571 430.134 160.586 433.136 187.6C436.137 214.614 431.635 255.135 431.635 255.135C431.635 255.135 424.131 199.606 376.105 211.612C328.08 223.619 253.041 214.614 253.041 214.614L241.034 322.671C241.034 322.671 227.527 303.161 212.519 315.167C197.511 327.173 168.996 199.606 217.021 175.593Z" fill="#2F2E41"/>
<path d="M207.633 586.148C204.869 585.037 202.125 583.886 199.402 582.695C197.542 581.886 195.683 581.051 193.84 580.19C166.22 567.382 140.776 550.33 118.43 529.652C126.342 518.873 132.825 513.389 132.825 513.389H186.006L193.978 540.199L207.633 586.148Z" fill="#2F2E41"/>
<path d="M536.979 424.755L582.6 432.813C570.391 460.626 553.903 486.356 533.733 509.067L536.979 424.755Z" fill="#2F2E41"/>
</svg>
