<svg xmlns="http://www.w3.org/2000/svg" viewBox="0 0 149.7 133.28">
  <g id="Layer_2" data-name="Layer 2">
    <g id="Layer_1-2" data-name="Layer 1">
      <path d="M109.94,41h0a17.64,17.64,0,0,1,3.81-24.66L133.52,1.84A23.31,23.31,0,0,0,125.7.5H24A23.5,23.5,0,0,0,.5,24v77.71l12.59-9.22A15.64,15.64,0,0,1,35,95.87h0a15.65,15.65,0,0,1-3.38,21.87L14.05,130.57a23.34,23.34,0,0,0,10,2.21H125.7a23.5,23.5,0,0,0,23.5-23.5V34.08l-14.61,10.7A17.64,17.64,0,0,1,109.94,41ZM58.32,67.65c-1.82-.14-3.19-.21-4.1-.21a31.1,31.1,0,0,0-6.61,1.21V85.12a3.21,3.21,0,0,1-1.2,2.54,4.07,4.07,0,0,1-2.74,1,3.23,3.23,0,0,1-2.47-1,3.62,3.62,0,0,1-1-2.56V55c0-.68,0-1.72,0-3.1s0-2.41,0-3.1a3.47,3.47,0,0,1,1-2.57,3.57,3.57,0,0,1,2.61-1,3.81,3.81,0,0,1,1.76.4q3-.52,5.6-.78c1.69-.16,3.23-.25,4.59-.25a30.05,30.05,0,0,1,7.54,1.24q5.7,1.55,5.7,3.6A3.54,3.54,0,0,1,68.1,52a3.46,3.46,0,0,1-2.56,1.08,4.37,4.37,0,0,1-1.34-.24,27.11,27.11,0,0,0-8.27-1.1q-1.6,0-3.69.21c-1.39.14-2.94.35-4.63.63q0,5,0,8.66a29.42,29.42,0,0,1,6.61-1,70,70,0,0,1,8.51.45q3.39.42,3.39,3.57A3.36,3.36,0,0,1,65,66.84a3.65,3.65,0,0,1-2.62,1C61.51,67.86,60.14,67.79,58.32,67.65Zm49.89,19.49a4,4,0,0,1-2.6.94q-2.85,0-4.25-4.09l-1.47-6.36q-1.26-4.72-2.73-13.58Q96,67.58,93.25,75.11l-1.58,4.83a27.24,27.24,0,0,1-2,4.7,4.31,4.31,0,0,1-3.89,2.45c-1.64,0-2.91-1-3.78-2.92l-1.47-4.88q-2.06-6.74-3.68-14.13Q75.65,69.41,73.52,78q-.49,3-1,5.91c-.72,2.48-2,3.73-4,3.73a3.56,3.56,0,0,1-2.87-1.24,3.74,3.74,0,0,1-.89-2.49,37.6,37.6,0,0,1,1.81-10.38q2.72-9.16,2.92-10.16c.51-2.69,1-5.39,1.55-8.09.78-3.71,1.64-6.18,2.56-7.42A4.19,4.19,0,0,1,77.15,46a3.72,3.72,0,0,1,3.52,2.42q1,2.28,2.25,9.35a134,134,0,0,0,3.45,14.76q3-7.8,5.56-17.13l1.47-6q1.42-3.75,4.39-3.75T102,50a43.08,43.08,0,0,1,1.24,6.56,135,135,0,0,0,3.83,19.17c1.56,5.41,2.34,8.36,2.34,8.83A3.27,3.27,0,0,1,108.21,87.14Z" fill="rgb(247, 185, 71)" stroke="#fff" stroke-miterlimit="10" />
      <path d="M66.12,64.29q0-3.15-3.39-3.57a70,70,0,0,0-8.51-.45,29.42,29.42,0,0,0-6.61,1q0-3.62,0-8.66c1.69-.28,3.24-.49,4.63-.63s2.62-.21,3.69-.21a27.11,27.11,0,0,1,8.27,1.1,4.37,4.37,0,0,0,1.34.24A3.46,3.46,0,0,0,68.1,52a3.54,3.54,0,0,0,1.07-2.57q0-2.05-5.7-3.6a30.05,30.05,0,0,0-7.54-1.24c-1.36,0-2.9.09-4.59.25s-3.57.43-5.6.78a3.81,3.81,0,0,0-1.76-.4,3.57,3.57,0,0,0-2.61,1,3.47,3.47,0,0,0-1,2.57c0,.69,0,1.72,0,3.1s0,2.42,0,3.1v30.1a3.62,3.62,0,0,0,1,2.56,3.23,3.23,0,0,0,2.47,1,4.07,4.07,0,0,0,2.74-1,3.21,3.21,0,0,0,1.2-2.54V68.65a31.1,31.1,0,0,1,6.61-1.21c.91,0,2.28.07,4.1.21s3.19.21,4.1.21a3.65,3.65,0,0,0,2.62-1A3.36,3.36,0,0,0,66.12,64.29Z" fill="#fff" />
      <rect x="15.59" y="14.13" width="118.52" height="105.43" rx="23.5" fill="none" stroke="#fff" stroke-miterlimit="10" stroke-width="5" />
      <path d="M103.28,56.54A43.08,43.08,0,0,0,102,50q-1.38-4.36-4.25-4.36T93.4,49.37l-1.47,6q-2.57,9.33-5.56,17.13a134,134,0,0,1-3.45-14.76q-1.2-7.06-2.25-9.35A3.72,3.72,0,0,0,77.15,46a4.19,4.19,0,0,0-3.48,1.85c-.92,1.24-1.78,3.71-2.56,7.42-.53,2.7-1,5.4-1.55,8.09q-.21,1-2.92,10.16a37.6,37.6,0,0,0-1.81,10.38,3.74,3.74,0,0,0,.89,2.49,3.56,3.56,0,0,0,2.87,1.24c1.92,0,3.24-1.25,4-3.73Q73,81,73.52,78q2.13-8.59,3.31-12.84,1.64,7.4,3.68,14.13L82,84.17c.87,1.94,2.14,2.92,3.78,2.92a4.31,4.31,0,0,0,3.89-2.45,27.24,27.24,0,0,0,2-4.7l1.58-4.83Q96,67.58,97.16,64.05q1.47,8.85,2.73,13.58L101.36,84q1.4,4.1,4.25,4.09a4,4,0,0,0,2.6-.94,3.27,3.27,0,0,0,1.24-2.6c0-.47-.78-3.42-2.34-8.83A135,135,0,0,1,103.28,56.54Z" fill="#fff" />
    </g>
  </g>
</svg>