<svg width="374" height="240" viewBox="0 0 374 240" fill="none" xmlns="http://www.w3.org/2000/svg">
<g clip-path="url(#clip0_2_1010)">
<path d="M349.255 211.481H254.844C251.41 211.477 248.116 210.113 245.688 207.687C243.259 205.262 241.893 201.973 241.889 198.543V49.8149C241.893 46.3845 243.259 43.0957 245.688 40.6701C248.116 38.2445 251.41 36.8801 254.844 36.8762H349.255C352.69 36.8801 355.983 38.2445 358.412 40.6701C360.841 43.0957 362.207 46.3845 362.211 49.8149V198.543C362.207 201.973 360.841 205.262 358.412 207.687C355.983 210.113 352.69 211.477 349.255 211.481Z" fill="#E6E6E6"/>
<path d="M350.821 44.5967H254.666C253.591 44.598 252.56 45.0252 251.8 45.7845C251.04 46.5438 250.612 47.5732 250.611 48.647V199.314C250.612 200.388 251.04 201.417 251.8 202.176C252.561 202.936 253.591 203.363 254.666 203.364H350.821C351.896 203.363 352.927 202.936 353.687 202.177C354.447 201.417 354.875 200.388 354.876 199.314V48.647C354.875 47.5732 354.447 46.5438 353.687 45.7845C352.927 45.0252 351.896 44.598 350.821 44.5967Z" fill="white"/>
<path d="M257.152 36.8761C257.152 36.6136 257.257 36.3621 257.443 36.1765C257.628 35.9909 257.88 35.8865 258.143 35.8862H264.883C265.146 35.8862 265.398 35.9905 265.584 36.1761C265.769 36.3618 265.874 36.6135 265.874 36.8761C265.874 37.1386 265.769 37.3903 265.584 37.576C265.398 37.7616 265.146 37.8659 264.883 37.8659H258.143C257.88 37.8656 257.628 37.7612 257.443 37.5756C257.257 37.3901 257.152 37.1385 257.152 36.8761Z" fill="#E6E6E6"/>
<path d="M268.253 36.8761C268.253 36.6136 268.357 36.3621 268.543 36.1765C268.729 35.9909 268.981 35.8865 269.244 35.8862H275.983C276.246 35.8862 276.498 35.9905 276.684 36.1761C276.87 36.3618 276.974 36.6135 276.974 36.8761C276.974 37.1386 276.87 37.3903 276.684 37.576C276.498 37.7616 276.246 37.8659 275.983 37.8659H269.244C268.981 37.8656 268.729 37.7612 268.543 37.5756C268.357 37.3901 268.253 37.1385 268.253 36.8761Z" fill="#E6E6E6"/>
<path d="M334.856 36.8761C334.856 36.6136 334.961 36.3621 335.146 36.1765C335.332 35.9909 335.584 35.8865 335.847 35.8862H342.587C342.849 35.8862 343.102 35.9905 343.287 36.1761C343.473 36.3618 343.578 36.6135 343.578 36.8761C343.578 37.1386 343.473 37.3903 343.287 37.576C343.102 37.7616 342.849 37.8659 342.587 37.8659H335.847C335.584 37.8656 335.332 37.7612 335.146 37.5756C334.961 37.3901 334.856 37.1385 334.856 36.8761Z" fill="#E6E6E6"/>
<path d="M316.068 200.26C316.068 201.302 316.048 202.339 316.001 203.365H254.666C253.591 203.363 252.561 202.936 251.8 202.176C251.04 201.417 250.612 200.388 250.611 199.314V123.478C268.876 126.425 285.493 135.77 297.488 149.839C309.482 163.908 316.068 181.783 316.068 200.26Z" fill="#F2F2F2"/>
<path d="M313.985 83.3154H291.111C290.07 83.3154 289.226 84.1582 289.226 85.1977V87.5465C289.226 88.5861 290.07 89.4288 291.111 89.4288H313.985C315.026 89.4288 315.87 88.5861 315.87 87.5465V85.1977C315.87 84.1582 315.026 83.3154 313.985 83.3154Z" fill="#F9D126"/>
<path d="M328.524 95.542H276.572C275.532 95.542 274.688 96.3847 274.688 97.4243V99.7731C274.688 100.813 275.532 101.655 276.572 101.655H328.524C329.565 101.655 330.408 100.813 330.408 99.7731V97.4243C330.408 96.3847 329.565 95.542 328.524 95.542Z" fill="#E6E6E6"/>
<path d="M328.524 107.769H276.572C275.532 107.769 274.688 108.612 274.688 109.651V112C274.688 113.039 275.532 113.882 276.572 113.882H328.524C329.565 113.882 330.408 113.039 330.408 112V109.651C330.408 108.612 329.565 107.769 328.524 107.769Z" fill="#E6E6E6"/>
<path d="M319.628 193.068C319.33 193.081 319.035 193.003 318.783 192.844C318.531 192.685 318.334 192.452 318.219 192.177C318.104 191.902 318.077 191.599 318.14 191.308C318.203 191.017 318.355 190.753 318.574 190.55L318.673 190.155C318.66 190.123 318.647 190.091 318.634 190.06C318.334 189.352 317.831 188.748 317.188 188.325C316.546 187.902 315.793 187.677 315.023 187.68C314.253 187.683 313.502 187.913 312.862 188.341C312.223 188.769 311.725 189.377 311.43 190.087C310.252 192.921 308.752 195.759 308.382 198.756C308.22 200.08 308.288 201.423 308.585 202.724C305.818 196.695 304.381 190.143 304.372 183.511C304.371 181.847 304.464 180.184 304.649 178.53C304.802 177.174 305.015 175.828 305.287 174.492C306.77 167.24 309.954 160.443 314.579 154.659C316.817 153.439 318.627 151.564 319.765 149.285C320.177 148.466 320.468 147.592 320.63 146.689C320.377 146.722 320.121 146.743 319.868 146.76C319.79 146.764 319.707 146.768 319.628 146.772L319.598 146.773C319.321 146.786 319.046 146.718 318.806 146.578C318.566 146.438 318.372 146.231 318.247 145.983C318.122 145.736 318.072 145.457 318.101 145.181C318.131 144.906 318.24 144.644 318.415 144.429C318.524 144.295 318.633 144.161 318.742 144.027C318.908 143.821 319.078 143.618 319.243 143.411C319.262 143.392 319.28 143.371 319.297 143.349C319.487 143.114 319.678 142.882 319.868 142.647C319.521 142.108 319.053 141.657 318.502 141.328C316.594 140.212 313.962 140.985 312.584 142.709C311.201 144.432 310.94 146.85 311.42 149.004C311.893 150.837 312.674 152.575 313.73 154.146C313.627 154.278 313.519 154.407 313.415 154.539C311.524 156.968 309.875 159.576 308.493 162.327C308.829 159.246 308.428 156.129 307.323 153.233C306.203 150.534 304.103 148.261 302.254 145.927C300.033 143.125 295.478 144.348 295.087 147.901C295.083 147.935 295.079 147.969 295.076 148.004C295.35 148.158 295.619 148.323 295.882 148.496C296.213 148.717 296.469 149.032 296.617 149.4C296.765 149.769 296.798 150.173 296.712 150.561C296.626 150.948 296.425 151.301 296.135 151.572C295.845 151.843 295.48 152.021 295.087 152.081L295.047 152.088C295.145 153.076 295.317 154.056 295.564 155.018C296.278 157.705 297.541 160.215 299.272 162.392C301.004 164.569 303.167 166.365 305.626 167.667C305.787 167.75 305.945 167.832 306.106 167.911C304.718 171.841 303.847 175.934 303.515 180.088C303.327 182.539 303.338 185.001 303.548 187.45L303.536 187.364C303.006 184.64 301.551 182.183 299.417 180.407C296.248 177.807 291.771 176.849 288.352 174.759C287.988 174.526 287.566 174.402 287.134 174.401C286.702 174.4 286.279 174.522 285.914 174.754C285.55 174.985 285.259 175.315 285.077 175.706C284.894 176.097 284.827 176.532 284.884 176.959C284.888 176.99 284.893 177.02 284.898 177.05C285.408 177.258 285.904 177.497 286.384 177.765C286.658 177.92 286.927 178.084 287.19 178.258C287.521 178.479 287.777 178.794 287.925 179.162C288.073 179.53 288.106 179.935 288.02 180.322C287.934 180.71 287.733 181.062 287.443 181.334C287.153 181.605 286.788 181.783 286.395 181.843L286.355 181.849C286.326 181.854 286.301 181.858 286.272 181.862C287.143 183.938 288.365 185.85 289.885 187.512C291.763 189.525 294.033 191.133 296.555 192.238C299.078 193.344 301.799 193.923 304.554 193.94H304.558C305.306 197.185 306.389 200.343 307.791 203.365H319.338C319.38 203.237 319.417 203.104 319.454 202.976C318.385 203.043 317.312 202.979 316.259 202.786C317.116 201.736 317.972 200.678 318.829 199.628C318.848 199.608 318.866 199.588 318.883 199.566C319.318 199.029 319.756 198.495 320.191 197.958L320.191 197.957C320.214 196.31 320.025 194.667 319.628 193.068L319.628 193.068ZM306.404 167.088L306.41 167.08L306.404 167.097V167.088ZM303.846 190.117L303.747 189.893C303.751 189.732 303.751 189.571 303.747 189.406C303.747 189.36 303.739 189.315 303.739 189.269C303.776 189.554 303.809 189.84 303.85 190.125L303.846 190.117Z" fill="#CCCCCC"/>
<path d="M346.014 57.8986H259.473C259.285 57.8945 259.107 57.8173 258.976 57.6836C258.845 57.5499 258.772 57.3703 258.772 57.1833C258.772 56.9963 258.845 56.8167 258.976 56.683C259.107 56.5493 259.285 56.4721 259.473 56.468H346.014C346.202 56.4721 346.38 56.5493 346.511 56.683C346.642 56.8167 346.715 56.9963 346.715 57.1833C346.715 57.3703 346.642 57.5499 346.511 57.6836C346.38 57.8173 346.202 57.8945 346.014 57.8986Z" fill="#CACACA"/>
<path d="M264.09 54.3997C265.253 54.3997 266.195 53.4374 266.195 52.2505C266.195 51.0635 265.253 50.1013 264.09 50.1013C262.927 50.1013 261.985 51.0635 261.985 52.2505C261.985 53.4374 262.927 54.3997 264.09 54.3997Z" fill="#3F3D56"/>
<path d="M271.362 54.3997C272.525 54.3997 273.467 53.4374 273.467 52.2505C273.467 51.0635 272.525 50.1013 271.362 50.1013C270.199 50.1013 269.257 51.0635 269.257 52.2505C269.257 53.4374 270.199 54.3997 271.362 54.3997Z" fill="#3F3D56"/>
<path d="M278.634 54.3997C279.797 54.3997 280.739 53.4374 280.739 52.2505C280.739 51.0635 279.797 50.1013 278.634 50.1013C277.472 50.1013 276.529 51.0635 276.529 52.2505C276.529 53.4374 277.472 54.3997 278.634 54.3997Z" fill="#3F3D56"/>
<path d="M342.632 50.9316H337.921C337.828 50.9335 337.739 50.9718 337.673 51.0384C337.608 51.105 337.571 51.1946 337.571 51.2879C337.571 51.3811 337.608 51.4707 337.673 51.5373C337.739 51.6039 337.828 51.6423 337.921 51.6441H342.632C342.725 51.6423 342.814 51.6039 342.88 51.5373C342.945 51.4707 342.982 51.3811 342.982 51.2879C342.982 51.1946 342.945 51.105 342.88 51.0384C342.814 50.9718 342.725 50.9335 342.632 50.9316Z" fill="#3F3D56"/>
<path d="M342.632 52.2688H337.921C337.828 52.2706 337.739 52.309 337.673 52.3756C337.608 52.4422 337.571 52.5317 337.571 52.625C337.571 52.7183 337.608 52.8079 337.673 52.8745C337.739 52.9411 337.828 52.9794 337.921 52.9813H342.632C342.725 52.9794 342.814 52.9411 342.88 52.8745C342.945 52.8079 342.982 52.7183 342.982 52.625C342.982 52.5317 342.945 52.4422 342.88 52.3756C342.814 52.309 342.725 52.2706 342.632 52.2688Z" fill="#3F3D56"/>
<path d="M342.632 53.6042H337.921C337.828 53.6061 337.739 53.6444 337.673 53.711C337.608 53.7776 337.571 53.8672 337.571 53.9605C337.571 54.0538 337.608 54.1433 337.673 54.2099C337.739 54.2765 337.828 54.3149 337.921 54.3167H342.632C342.725 54.3149 342.814 54.2765 342.88 54.2099C342.945 54.1433 342.982 54.0538 342.982 53.9605C342.982 53.8672 342.945 53.7776 342.88 53.711C342.814 53.6444 342.725 53.6061 342.632 53.6042Z" fill="#3F3D56"/>
<path d="M202.218 123.534H152.043C151.334 123.535 150.653 123.818 150.152 124.32C149.651 124.822 149.37 125.502 149.37 126.211V205.368H204.898V126.211C204.898 125.859 204.829 125.511 204.694 125.186C204.56 124.862 204.362 124.566 204.114 124.318C203.865 124.069 203.569 123.872 203.244 123.738C202.919 123.603 202.57 123.534 202.218 123.534ZM177.3 168.511C175.73 168.504 174.228 167.878 173.118 166.77C172.009 165.662 171.382 164.161 171.375 162.594V153.464C171.376 151.895 172.001 150.392 173.112 149.283C174.223 148.174 175.729 147.552 177.3 147.552C178.87 147.552 180.376 148.174 181.487 149.283C182.598 150.392 183.223 151.895 183.224 153.464V162.594C183.217 164.161 182.59 165.662 181.481 166.77C180.371 167.878 178.869 168.504 177.3 168.511Z" fill="#E6E6E6"/>
<path d="M149.198 202.836V210.474C149.199 210.869 149.357 211.249 149.637 211.528C149.917 211.808 150.297 211.966 150.693 211.967H203.575C203.971 211.965 204.35 211.807 204.63 211.527C204.91 211.248 205.068 210.869 205.07 210.474V202.836L149.198 202.836Z" fill="#CCCCCC"/>
<path d="M285.303 0H70.8256C68.9829 0.00292769 67.2166 0.735274 65.9136 2.03655C64.6106 3.33783 63.8773 5.1019 63.8743 6.94218V151.483C63.8761 153.324 64.609 155.089 65.9123 156.39C67.2155 157.692 68.9826 158.424 70.8256 158.425H285.303C287.146 158.424 288.913 157.692 290.216 156.39C291.52 155.089 292.253 153.324 292.254 151.483V6.94218C292.251 5.1019 291.518 3.33783 290.215 2.03655C288.912 0.735274 287.146 0.00292655 285.303 0Z" fill="#E6E6E6"/>
<path d="M283.513 5.01416H72.6176C71.6309 5.0163 70.6854 5.40921 69.9885 6.10667C69.2916 6.80414 68.9001 7.74922 68.9 8.73457V149.693C68.9017 150.677 69.2939 151.62 69.9907 152.316C70.6875 153.012 71.6321 153.404 72.6176 153.406H283.513C284.498 153.404 285.443 153.012 286.14 152.316C286.836 151.62 287.229 150.677 287.23 149.693V8.73457C287.23 7.74922 286.839 6.80414 286.142 6.10667C285.445 5.40921 284.499 5.0163 283.513 5.01416Z" fill="white"/>
<path d="M287.23 8.73457V149.693C287.229 150.677 286.836 151.62 286.14 152.316C285.443 153.012 284.498 153.404 283.513 153.406H209.146C200.92 145.786 194.17 136.717 189.237 126.653C188.912 126.004 188.603 125.348 188.31 124.684C183.815 114.943 181.093 104.481 180.272 93.7866C180.218 93.1305 180.171 92.4744 180.14 91.8106C180.04 90.1125 179.993 88.3912 179.993 86.6622C179.979 75.1632 182.153 63.7662 186.401 53.0783C186.656 52.4145 186.926 51.7584 187.204 51.1023C195.753 31.0437 211.199 14.6975 230.756 5.01416H283.513C284.499 5.0163 285.445 5.40921 286.142 6.10667C286.839 6.80414 287.23 7.74922 287.23 8.73457Z" fill="#F9D126"/>
<path d="M272.911 24.4351H75.5776C75.3724 24.4307 75.1771 24.3462 75.0335 24.1997C74.8899 24.0532 74.8094 23.8564 74.8094 23.6514C74.8094 23.4464 74.8899 23.2495 75.0335 23.103C75.1771 22.9565 75.3724 22.872 75.5776 22.8677H272.911C273.117 22.872 273.312 22.9565 273.456 23.103C273.599 23.2495 273.68 23.4464 273.68 23.6514C273.68 23.8564 273.599 24.0532 273.456 24.1997C273.312 24.3462 273.117 24.4307 272.911 24.4351Z" fill="#CACACA"/>
<path d="M89.0104 18.8662C91.5503 18.8662 93.6093 16.764 93.6093 14.1709C93.6093 11.5777 91.5503 9.47559 89.0104 9.47559C86.4705 9.47559 84.4114 11.5777 84.4114 14.1709C84.4114 16.764 86.4705 18.8662 89.0104 18.8662Z" fill="#3F3D56"/>
<path d="M104.898 18.8662C107.438 18.8662 109.497 16.764 109.497 14.1709C109.497 11.5777 107.438 9.47559 104.898 9.47559C102.358 9.47559 100.299 11.5777 100.299 14.1709C100.299 16.764 102.358 18.8662 104.898 18.8662Z" fill="#3F3D56"/>
<path d="M120.785 18.8662C123.325 18.8662 125.384 16.764 125.384 14.1709C125.384 11.5777 123.325 9.47559 120.785 9.47559C118.245 9.47559 116.186 11.5777 116.186 14.1709C116.186 16.764 118.245 18.8662 120.785 18.8662Z" fill="#3F3D56"/>
<path d="M263.346 10.6394H252.06C251.837 10.6438 251.624 10.7357 251.467 10.8952C251.31 11.0548 251.223 11.2693 251.223 11.4928C251.223 11.7163 251.31 11.9308 251.467 12.0904C251.624 12.2499 251.837 12.3418 252.06 12.3462H263.346C263.57 12.3418 263.783 12.2499 263.939 12.0904C264.096 11.9308 264.184 11.7163 264.184 11.4928C264.184 11.2693 264.096 11.0548 263.939 10.8952C263.783 10.7357 263.57 10.6438 263.346 10.6394Z" fill="#3F3D56"/>
<path d="M263.346 13.8428H252.06C251.837 13.8472 251.624 13.9391 251.467 14.0986C251.31 14.2582 251.223 14.4727 251.223 14.6962C251.223 14.9196 251.31 15.1342 251.467 15.2937C251.624 15.4533 251.837 15.5451 252.06 15.5496H263.346C263.57 15.5451 263.783 15.4533 263.939 15.2937C264.096 15.1342 264.184 14.9196 264.184 14.6962C264.184 14.4727 264.096 14.2582 263.939 14.0986C263.783 13.9391 263.57 13.8472 263.346 13.8428Z" fill="#3F3D56"/>
<path d="M263.346 17.042H252.06C251.837 17.0464 251.624 17.1383 251.467 17.2978C251.31 17.4574 251.223 17.6719 251.223 17.8954C251.223 18.1188 251.31 18.3334 251.467 18.493C251.624 18.6525 251.837 18.7444 252.06 18.7488H263.346C263.57 18.7444 263.783 18.6525 263.939 18.493C264.096 18.3334 264.184 18.1188 264.184 17.8954C264.184 17.6719 264.096 17.4574 263.939 17.2978C263.783 17.1383 263.57 17.0464 263.346 17.042Z" fill="#3F3D56"/>
<path d="M135.999 70.2207H108.403C107.362 70.2207 106.519 71.0634 106.519 72.103V75.0367C106.519 76.0762 107.362 76.9189 108.403 76.9189H135.999C137.04 76.9189 137.883 76.0762 137.883 75.0367V72.103C137.883 71.0634 137.04 70.2207 135.999 70.2207Z" fill="#F9D126"/>
<path d="M151.928 83.6172H92.4742C91.4333 83.6172 90.5895 84.4599 90.5895 85.4995V88.4331C90.5895 89.4727 91.4333 90.3154 92.4742 90.3154H151.928C152.969 90.3154 153.813 89.4727 153.813 88.4331V85.4995C153.813 84.4599 152.969 83.6172 151.928 83.6172Z" fill="#E6E6E6"/>
<path d="M151.928 97.0137H92.4742C91.4333 97.0137 90.5895 97.8564 90.5895 98.896V101.83C90.5895 102.869 91.4333 103.712 92.4742 103.712H151.928C152.969 103.712 153.813 102.869 153.813 101.83V98.896C153.813 97.8564 152.969 97.0137 151.928 97.0137Z" fill="#E6E6E6"/>
<path d="M95.7498 145.324C95.7544 148.083 95.2623 150.821 94.2968 153.406H72.6176C71.6321 153.404 70.6875 153.012 69.9907 152.316C69.2939 151.62 68.9017 150.677 68.9 149.693V122.462C70.1113 122.266 71.3364 122.168 72.5635 122.168C75.6084 122.168 78.6235 122.767 81.4367 123.93C84.2499 125.094 86.806 126.8 88.9591 128.95C91.1122 131.1 92.8201 133.653 93.9852 136.463C95.1504 139.272 95.75 142.283 95.7498 145.324Z" fill="#6C63FF"/>
<path opacity="0.2" d="M287.424 53.0784V51.1024H254.259V28.2012H252.289V51.1024H214.278V28.2012H212.308V51.1024H187.204C186.926 51.7585 186.656 52.4146 186.401 53.0784H212.308V91.8107H180.14C180.171 92.4745 180.218 93.1306 180.272 93.7867H212.308V124.685H188.31C188.603 125.348 188.913 126.004 189.237 126.653H212.308V152.626H214.278V126.653H252.289V152.626H254.259V126.653H287.424V124.685H254.259V124.685C254.259 120.627 255.06 116.609 256.614 112.86C258.169 109.112 260.448 105.706 263.321 102.836C266.194 99.9673 269.604 97.6914 273.358 96.1386C277.112 94.5859 281.135 93.7867 285.198 93.7867H287.424V91.8107H254.259V53.0784H287.424ZM252.289 124.685H214.278V93.7867H252.289V124.685ZM252.289 91.8107H214.278V91.0388C214.278 80.9711 218.283 71.3157 225.411 64.1968C232.54 57.0778 242.208 53.0784 252.288 53.0784H252.289V91.8107Z" fill="black"/>
<path d="M260.721 138.782C260.298 138.801 259.879 138.69 259.522 138.464C259.164 138.238 258.884 137.907 258.721 137.517C258.558 137.127 258.518 136.696 258.608 136.283C258.698 135.87 258.913 135.494 259.224 135.207C259.277 135 259.314 134.852 259.366 134.645C259.347 134.6 259.329 134.555 259.31 134.51C257.408 129.982 250.964 130.013 249.079 134.548C247.406 138.573 245.275 142.605 244.751 146.86C244.52 148.741 244.617 150.648 245.039 152.496C241.108 143.934 239.068 134.628 239.054 125.209C239.054 122.846 239.185 120.484 239.448 118.135C239.666 116.21 239.968 114.298 240.354 112.4C242.46 102.101 246.983 92.4474 253.55 84.2328C256.729 82.5008 259.3 79.8372 260.916 76.6011C261.501 75.4378 261.915 74.196 262.144 72.9144C261.786 72.9613 261.421 72.9907 261.063 73.0142C260.951 73.02 260.833 73.0259 260.722 73.0318L260.68 73.0337C260.286 73.0513 259.895 72.9548 259.554 72.7559C259.214 72.5569 258.938 72.2638 258.761 71.912C258.583 71.5602 258.511 71.1647 258.553 70.773C258.596 70.3813 258.75 70.0102 258.999 69.7043C259.154 69.514 259.309 69.3238 259.464 69.1337C259.699 68.8402 259.94 68.5525 260.175 68.259C260.202 68.2311 260.228 68.2017 260.251 68.1709C260.522 67.8363 260.792 67.5075 261.063 67.1729C260.569 66.4078 259.905 65.7669 259.123 65.3002C256.413 63.7152 252.674 64.813 250.717 67.261C248.754 69.709 248.383 73.1433 249.065 76.2019C249.647 78.8202 250.917 81.2212 252.345 83.5048C252.198 83.6927 252.045 83.8747 251.898 84.0626C249.212 87.5124 246.871 91.2169 244.908 95.1228C245.385 90.747 244.816 86.3205 243.246 82.2075C241.655 78.3743 238.672 75.146 236.046 71.8322C232.892 67.8518 226.423 69.589 225.868 74.6347C225.862 74.6835 225.857 74.7324 225.852 74.7812C226.242 75.001 226.624 75.2342 226.997 75.481C227.467 75.7941 227.83 76.2416 228.041 76.7647C228.251 77.2878 228.298 77.8622 228.176 78.4125C228.054 78.9629 227.768 79.4636 227.357 79.849C226.945 80.2344 226.426 80.4866 225.868 80.5725L225.811 80.5813C225.95 81.9853 226.195 83.3767 226.546 84.7436C227.56 88.5593 229.353 92.1245 231.812 95.2157C234.271 98.307 237.343 100.858 240.836 102.708C241.065 102.825 241.288 102.942 241.517 103.054C239.545 108.635 238.308 114.449 237.838 120.349C237.571 123.829 237.587 127.326 237.885 130.804L237.867 130.681C237.115 126.813 235.049 123.323 232.018 120.801C227.517 117.108 221.158 115.748 216.302 112.78C213.965 111.351 210.969 113.198 211.377 115.904C211.384 115.947 211.391 115.991 211.397 116.034C212.121 116.328 212.826 116.667 213.508 117.049C213.898 117.269 214.279 117.502 214.653 117.749C215.122 118.062 215.486 118.51 215.696 119.033C215.907 119.556 215.954 120.13 215.832 120.681C215.71 121.231 215.424 121.732 215.012 122.117C214.6 122.503 214.081 122.755 213.524 122.841L213.466 122.849C213.425 122.855 213.39 122.861 213.349 122.867C214.586 125.816 216.322 128.531 218.481 130.892C221.148 133.75 224.371 136.034 227.953 137.604C231.536 139.174 235.401 139.996 239.313 140.021H239.319C240.381 144.629 241.919 149.115 243.91 153.406H260.31C260.369 153.224 260.422 153.036 260.475 152.854C258.957 152.949 257.433 152.859 255.937 152.584C257.154 151.093 258.37 149.59 259.587 148.099C259.614 148.071 259.64 148.041 259.664 148.011C260.281 147.248 260.904 146.49 261.521 145.727L261.521 145.726C261.554 143.387 261.286 141.053 260.722 138.782L260.721 138.782ZM241.941 101.886L241.949 101.874L241.941 101.897V101.886ZM238.308 134.591L238.167 134.274C238.173 134.045 238.173 133.816 238.167 133.581C238.167 133.516 238.155 133.452 238.155 133.387C238.208 133.792 238.255 134.197 238.314 134.602L238.308 134.591Z" fill="#2F2E41"/>
<path d="M114.682 100.475V78.4621C114.682 75.0831 113.338 71.8426 110.946 69.4533C108.553 67.064 105.308 65.7217 101.925 65.7217H55.2266C51.8432 65.7217 48.5984 67.064 46.206 69.4533C43.8135 71.8426 42.4695 75.0831 42.4695 78.4621V199.226C42.4695 202.605 43.8135 205.846 46.206 208.235C48.5984 210.624 51.8432 211.967 55.2266 211.967H101.925C103.6 211.967 105.259 211.637 106.807 210.997C108.355 210.357 109.761 209.418 110.946 208.235C112.13 207.052 113.07 205.648 113.711 204.102C114.352 202.556 114.682 200.899 114.682 199.226V116.144C114.895 116.144 115.1 116.059 115.251 115.909C115.402 115.758 115.487 115.554 115.487 115.341V101.279C115.487 101.065 115.402 100.861 115.251 100.71C115.1 100.56 114.895 100.475 114.682 100.475Z" fill="#E6E6E6"/>
<path d="M111.967 78.5495V199.139C111.967 201.644 110.978 204.048 109.214 205.828C107.45 207.609 105.053 208.622 102.545 208.648C102.511 208.652 102.476 208.653 102.441 208.653H55.5155C52.9892 208.652 50.5664 207.65 48.78 205.866C46.9936 204.082 45.9899 201.662 45.9897 199.139V78.5495C45.9899 76.0265 46.9936 73.6069 48.78 71.8228C50.5664 70.0387 52.9892 69.0364 55.5155 69.0361H61.2102C60.9303 69.7227 60.8236 70.4675 60.8995 71.2049C60.9755 71.9424 61.2317 72.6498 61.6458 73.2651C62.0598 73.8804 62.6189 74.3847 63.2739 74.7335C63.9288 75.0824 64.6596 75.2651 65.4019 75.2656H92.1551C92.8968 75.2636 93.6266 75.0798 94.2805 74.7305C94.9345 74.3811 95.4926 73.8769 95.906 73.2619C96.3194 72.6469 96.5753 71.9401 96.6514 71.2033C96.7275 70.4666 96.6215 69.7224 96.3425 69.0361H102.441C104.967 69.0364 107.39 70.0387 109.177 71.8228C110.963 73.6068 111.967 76.0265 111.967 78.5495Z" fill="white"/>
<path d="M102.663 204.931C102.663 206.18 102.624 207.419 102.545 208.648C102.511 208.652 102.476 208.653 102.441 208.653H55.5155C52.9892 208.652 50.5664 207.65 48.78 205.866C46.9936 204.082 45.9899 201.662 45.9897 199.139V145.399C61.2788 146.169 75.6871 152.777 86.2352 163.857C96.7833 174.937 102.664 189.642 102.663 204.931Z" fill="#F2F2F2"/>
<path d="M42.7275 112.79C42.4396 112.79 42.1636 112.675 41.96 112.472C41.7565 112.269 41.6419 111.993 41.6416 111.705V104.331C41.6416 104.043 41.756 103.767 41.9597 103.564C42.1633 103.36 42.4395 103.246 42.7275 103.246C43.0155 103.246 43.2918 103.36 43.4954 103.564C43.6991 103.767 43.8135 104.043 43.8135 104.331V111.705C43.8131 111.993 43.6986 112.269 43.495 112.472C43.2915 112.675 43.0154 112.79 42.7275 112.79Z" fill="#E6E6E6"/>
<path d="M84.7401 106.901H73.2167C72.1757 106.901 71.3319 107.744 71.3319 108.784V111.717C71.3319 112.757 72.1757 113.6 73.2167 113.6H84.7401C85.781 113.6 86.6249 112.757 86.6249 111.717V108.784C86.6249 107.744 85.781 106.901 84.7401 106.901Z" fill="#F9D126"/>
<path d="M100.669 120.298H57.2875C56.2465 120.298 55.4027 121.141 55.4027 122.18V125.114C55.4027 126.153 56.2465 126.996 57.2875 126.996H100.669C101.71 126.996 102.554 126.153 102.554 125.114V122.18C102.554 121.141 101.71 120.298 100.669 120.298Z" fill="#E6E6E6"/>
<path d="M100.669 133.694H57.2875C56.2465 133.694 55.4027 134.537 55.4027 135.577V138.51C55.4027 139.55 56.2465 140.393 57.2875 140.393H100.669C101.71 140.393 102.554 139.55 102.554 138.51V135.577C102.554 134.537 101.71 133.694 100.669 133.694Z" fill="#E6E6E6"/>
<path d="M90.231 201.79C90.0325 201.799 89.8359 201.747 89.668 201.641C89.5001 201.535 89.369 201.38 89.2923 201.197C89.2156 201.014 89.1972 200.811 89.2394 200.617C89.2817 200.424 89.3826 200.247 89.5286 200.113L89.595 199.849C89.5862 199.828 89.5774 199.807 89.5686 199.786C89.3686 199.314 89.0335 198.912 88.6053 198.629C88.1772 198.347 87.6751 198.198 87.1621 198.2C86.6492 198.202 86.1482 198.355 85.7222 198.64C85.2961 198.926 84.964 199.33 84.7676 199.803C83.9823 201.692 82.9826 203.584 82.7365 205.581C82.628 206.464 82.6738 207.359 82.8716 208.226C81.0273 204.208 80.0696 199.841 80.0635 195.421C80.0631 194.312 80.1248 193.204 80.2483 192.102C80.3504 191.198 80.492 190.301 80.6731 189.41C81.6616 184.577 83.784 180.047 86.8659 176.192C88.3575 175.379 89.5638 174.129 90.3222 172.611C90.597 172.065 90.7912 171.482 90.8988 170.881C90.7305 170.903 90.5595 170.917 90.3912 170.928C90.3388 170.93 90.2836 170.933 90.2312 170.936L90.2114 170.937C90.0265 170.945 89.8431 170.9 89.6834 170.806C89.5236 170.713 89.3943 170.576 89.3109 170.41C89.2276 170.245 89.1938 170.06 89.2137 169.876C89.2335 169.692 89.3061 169.518 89.4228 169.374C89.4955 169.285 89.5681 169.196 89.6409 169.107C89.7512 168.969 89.8643 168.834 89.9747 168.696C89.9874 168.683 89.9994 168.669 90.0105 168.655C90.1374 168.498 90.2643 168.344 90.3912 168.187C90.1596 167.828 89.8481 167.527 89.4809 167.308C88.2093 166.564 86.4549 167.079 85.5363 168.228C84.615 169.377 84.4412 170.988 84.7611 172.424C85.0758 173.645 85.5963 174.804 86.3004 175.851C86.2314 175.939 86.1597 176.024 86.0907 176.112C84.8301 177.731 83.7314 179.47 82.8103 181.303C83.0343 179.249 82.7669 177.172 82.0303 175.242C81.2836 173.443 79.8842 171.928 78.6518 170.373C78.3259 169.955 77.8833 169.643 77.3799 169.477C76.8765 169.31 76.335 169.297 75.8238 169.437C75.3126 169.578 74.8546 169.867 74.5078 170.268C74.161 170.668 73.9409 171.163 73.8753 171.688C73.8728 171.711 73.8704 171.734 73.868 171.757C74.051 171.86 74.2302 171.969 74.4055 172.085C74.6257 172.232 74.7964 172.442 74.8951 172.688C74.9938 172.933 75.016 173.203 74.9587 173.461C74.9014 173.719 74.7673 173.954 74.574 174.135C74.3807 174.316 74.1372 174.434 73.8755 174.475L73.8487 174.479C73.9139 175.138 74.0291 175.79 74.1935 176.432C74.6696 178.222 75.511 179.896 76.665 181.346C77.8189 182.797 79.2605 183.994 80.8993 184.862C81.0069 184.917 81.1117 184.972 81.2193 185.024C80.2939 187.643 79.7134 190.372 79.4925 193.14C79.3674 194.774 79.3748 196.414 79.5146 198.047L79.5063 197.989C79.1532 196.174 78.1837 194.536 76.7616 193.352C74.6494 191.619 71.6653 190.981 69.3866 189.588C69.1444 189.433 68.8628 189.35 68.5751 189.35C68.2873 189.349 68.0053 189.43 67.7624 189.585C67.5195 189.739 67.3257 189.959 67.204 190.219C67.0823 190.48 67.0378 190.77 67.0756 191.054L67.0849 191.115C67.4246 191.253 67.7553 191.413 68.0752 191.592C68.2582 191.695 68.4374 191.804 68.6127 191.92C68.833 192.067 69.0036 192.277 69.1023 192.523C69.201 192.768 69.2232 193.038 69.1659 193.296C69.1086 193.554 68.9745 193.789 68.7812 193.97C68.5879 194.151 68.3445 194.269 68.0827 194.31L68.0559 194.314C68.0365 194.316 68.02 194.319 68.0007 194.322C68.5811 195.706 69.3957 196.98 70.4088 198.088C71.6604 199.429 73.173 200.501 74.8541 201.237C76.5351 201.974 78.3491 202.36 80.1848 202.372H80.1876C80.6859 204.534 81.4079 206.639 82.342 208.653H90.0381C90.0657 208.567 90.0905 208.479 90.1154 208.394C89.403 208.439 88.6878 208.396 87.9858 208.267C88.5568 207.567 89.1278 206.862 89.6988 206.162C89.7115 206.149 89.7235 206.135 89.7347 206.121C90.0243 205.763 90.3167 205.408 90.6063 205.049L90.6065 205.049C90.6219 203.951 90.4958 202.856 90.2312 201.79L90.231 201.79ZM81.4179 184.476L81.4219 184.471L81.4179 184.482V184.476ZM79.7132 199.823L79.647 199.675C79.6497 199.567 79.6497 199.46 79.647 199.35C79.647 199.319 79.6414 199.289 79.6414 199.259C79.6663 199.449 79.6883 199.639 79.7159 199.829L79.7132 199.823Z" fill="#CCCCCC"/>
<path d="M42.5104 98.4742C42.2225 98.4738 41.9465 98.3595 41.7429 98.1562C41.5393 97.9528 41.4248 97.6772 41.4244 97.3897V90.0149C41.4244 89.7273 41.5389 89.4515 41.7425 89.2481C41.9462 89.0447 42.2224 88.9304 42.5104 88.9304C42.7984 88.9304 43.0746 89.0447 43.2782 89.2481C43.4819 89.4515 43.5963 89.7273 43.5963 90.0149V97.3897C43.596 97.6772 43.4815 97.9528 43.2779 98.1562C43.0743 98.3595 42.7983 98.4738 42.5104 98.4742Z" fill="#E6E6E6"/>
<path d="M71.3964 70.2767C71.3967 69.9891 71.5112 69.7135 71.7148 69.5102C71.9184 69.3068 72.1944 69.1925 72.4823 69.1921H79.8667C80.1547 69.1921 80.4309 69.3064 80.6346 69.5098C80.8382 69.7132 80.9526 69.989 80.9526 70.2767C80.9526 70.5643 80.8382 70.8401 80.6346 71.0435C80.4309 71.2469 80.1547 71.3612 79.8667 71.3612H72.4823C72.1944 71.3608 71.9184 71.2465 71.7148 71.0432C71.5112 70.8398 71.3967 70.5642 71.3964 70.2767Z" fill="white"/>
<path d="M42.7275 125.37C42.4396 125.37 42.1636 125.255 41.96 125.052C41.7565 124.849 41.6419 124.573 41.6416 124.286V116.911C41.6416 116.623 41.756 116.347 41.9597 116.144C42.1633 115.941 42.4395 115.826 42.7275 115.826C43.0155 115.826 43.2918 115.941 43.4954 116.144C43.6991 116.347 43.8135 116.623 43.8135 116.911V124.286C43.8131 124.573 43.6986 124.849 43.495 125.052C43.2915 125.255 43.0154 125.37 42.7275 125.37Z" fill="#E6E6E6"/>
<path d="M83.9932 71.3612C84.593 71.3612 85.0792 70.8756 85.0792 70.2767C85.0792 69.6777 84.593 69.1921 83.9932 69.1921C83.3935 69.1921 82.9073 69.6777 82.9073 70.2767C82.9073 70.8756 83.3935 71.3612 83.9932 71.3612Z" fill="white"/>
<path d="M373.12 211.964L0.534202 212.097C0.39729 212.097 0.266125 212.042 0.169454 211.945C0.0727829 211.848 0.0184937 211.717 0.0184937 211.581C0.0184937 211.444 0.0727829 211.313 0.169454 211.216C0.266125 211.119 0.39729 211.064 0.534202 211.064L373.12 210.931C373.257 210.931 373.389 210.985 373.486 211.082C373.583 211.179 373.637 211.31 373.637 211.447C373.637 211.584 373.583 211.716 373.486 211.812C373.389 211.909 373.257 211.964 373.12 211.964Z" fill="#CACACA"/>
</g>
<defs>
<clipPath id="clip0_2_1010">
<rect width="373.62" height="239.349" fill="white" transform="translate(0.0170288)"/>
</clipPath>
</defs>
</svg>
