<svg xmlns="http://www.w3.org/2000/svg" viewBox="0 0 247.51 60"><defs><style>.cls-1{fill:#00afec;}</style></defs><g id="Layer_2" data-name="Layer 2"><g id="レイヤー_1" data-name="レイヤー 1"><path class="cls-1" d="M90.78,35.07a5.27,5.27,0,0,1-1.69-1.4,10.67,10.67,0,0,0,1.27-2.3V29.15H88.74V27H86.33v2.18h-2v2.22H87.8a11.08,11.08,0,0,1-3.47,3.81V38a13.44,13.44,0,0,0,2-1.27V42h2.41V36.12a5,5,0,0,0,2,1.52Z"/><polygon class="cls-1" points="95.93 39.16 95.93 33.16 99.13 33.16 99.13 30.72 95.93 30.72 95.93 26.97 93.46 26.97 93.46 30.72 90.73 30.72 90.73 33.16 93.46 33.16 93.46 39.16 89.82 39.16 89.82 41.58 99.27 41.58 99.27 39.16 95.93 39.16"/><path class="cls-1" d="M72.78,18.42A5,5,0,0,1,71,15.5v-.7h1.22V12.61H71V10H68.84v2.62H66.9V14.8h1.89a7.7,7.7,0,0,1-2,4.35l0,3.12A6.83,6.83,0,0,0,68.84,19v6H71V18.4a5.65,5.65,0,0,0,1.73,2.25Z"/><path class="cls-1" d="M79.15,18H82V15.75H78.31V14.24h3.4V12h-3.4V10H76.2v2h-.68a5.44,5.44,0,0,0,.2-1.51h-2a3.25,3.25,0,0,1-1,2.44v2.65a3.65,3.65,0,0,0,2-1.34h1.5v1.51H72.54V18h2.82a7.38,7.38,0,0,1-3.07,3.31l0,2.8a11.27,11.27,0,0,0,3.88-3.94V25h2.11V20.19a11.29,11.29,0,0,0,3.89,3.94l0-2.8A7.38,7.38,0,0,1,79.15,18Z"/><path class="cls-1" d="M89.6,21.77V18.15h2.28V15.84H84.49v2.31h2.69V22l-2.91.21,0,2.5c5.63-.62,6.07-.72,8.38-1.06l0-2.26C92.1,21.45,91.38,21.57,89.6,21.77Z"/><path class="cls-1" d="M97.24,22.7c-1.51,0-2.33-4.83-2.33-8.24h4.31V10.29h-2.3v1.87H94.86V10H92.32c0,.11.06,1.95.08,2.2H84.35v2.3h8.13C92.48,24.4,95.78,25,97,25h2.35V22.71Z"/><path class="cls-1" d="M78.75,37.2l-2.83,0a10.06,10.06,0,0,1,1.5,1.92c-1.58.16-3.43.16-5.31.17.49-1,.68-1.31,1.26-2.64h8.26V34.34H67.31v2.29h3.41a16.69,16.69,0,0,1-1.12,2.64H67.4v2.46c2.86-.08,8.52-.3,11.22-.68a8.12,8.12,0,0,1,.51,1.11H82A16.78,16.78,0,0,0,78.75,37.2Z"/><path class="cls-1" d="M70.26,33.13h8.45v-1a12.62,12.62,0,0,0,3.1,1.18V30.76a11.81,11.81,0,0,1-5.88-3.92H73.11a11,11,0,0,1-6,3.88l0,2.71a9.9,9.9,0,0,0,3.16-1.22Zm4.24-4.36A16.08,16.08,0,0,0,77,31H72.05A12,12,0,0,0,74.5,28.77Z"/><rect class="cls-1" x="212.56" y="22.03" width="18.11" height="5.03"/><rect class="cls-1" x="161.5" y="11.97" width="18.16" height="5.03"/><path class="cls-1" d="M181.23,20.31H160.51v5H176.2v6.75a5,5,0,0,1-5,5h-5.63v5h5.63a10.07,10.07,0,0,0,10.06-10.06Z"/><path class="cls-1" d="M247.51,12H228.4v5h14.08V32.09a5,5,0,0,1-5,5h-5.74v5h5.74a10.06,10.06,0,0,0,10.06-10.06Z"/><rect class="cls-1" x="187.85" y="11.97" width="5.03" height="30.18"/><path class="cls-1" d="M206.39,28.06v4a5,5,0,0,1-5,5V12h-5V42.15h5a10.06,10.06,0,0,0,10.06-10.06v-4Z"/><path class="cls-1" d="M129.94,13h-4.49V10h-5v3h-7.11V10h-5v3h-4.49v5h4.49v8.05h5V18h7.11V32.09a5,5,0,0,1-5,5h-4.62v5h4.62a10.07,10.07,0,0,0,10.06-10.06V18h4.49Z"/><path class="cls-1" d="M143.08,13V10h-5v7.45a5,5,0,0,1-5,5v5a10.05,10.05,0,0,0,10-9.47h6.68V32.09a5,5,0,0,1-5,5h-4.62v5h4.62a10.06,10.06,0,0,0,10.06-10.06V13Z"/><path class="cls-1" d="M39.42,17.47a.14.14,0,0,0-.11,0,4.27,4.27,0,0,0-2.11,3.92,4.48,4.48,0,0,0,1.36,3.5.13.13,0,0,0,.19,0l.46-.8a.12.12,0,0,1,.21,0l.43.75a.12.12,0,0,0,.19,0,4.49,4.49,0,0,0,1.38-3.39A4.22,4.22,0,0,0,39.42,17.47Z"/><path class="cls-1" d="M47,19.78l-.61-.69a.12.12,0,0,1,.06-.2l.85-.18a.12.12,0,0,0,.09-.17,4.51,4.51,0,0,0-2.8-2.36,4.27,4.27,0,0,0-4.4.67.11.11,0,0,0,0,.11,4.26,4.26,0,0,0,3.07,3.21A4.48,4.48,0,0,0,47,20,.13.13,0,0,0,47,19.78Z"/><path class="cls-1" d="M39.92,16a4.25,4.25,0,0,0,4-1.92,4.49,4.49,0,0,0,1-3.63.12.12,0,0,0-.17-.08l-.84.37a.12.12,0,0,1-.17-.13l.09-.86a.12.12,0,0,0-.14-.13,4.48,4.48,0,0,0-3.11,1.93,4.27,4.27,0,0,0-.72,4.39A.11.11,0,0,0,39.92,16Z"/><path class="cls-1" d="M38.86,16a.11.11,0,0,0,.09-.06,4.26,4.26,0,0,0-.59-4.41,4.5,4.5,0,0,0-3.16-2,.12.12,0,0,0-.13.14l.09.92a.12.12,0,0,1-.17.12l-.79-.35a.13.13,0,0,0-.17.08A4.55,4.55,0,0,0,34.9,14,4.26,4.26,0,0,0,38.86,16Z"/><path class="cls-1" d="M38.6,16.93a.1.1,0,0,0,0-.1A4.23,4.23,0,0,0,34.2,16a4.51,4.51,0,0,0-2.91,2.37.12.12,0,0,0,.09.17l.9.19a.12.12,0,0,1,.06.2l-.58.65a.11.11,0,0,0,0,.18,4.47,4.47,0,0,0,3.65.27A4.23,4.23,0,0,0,38.6,16.93Z"/><path class="cls-1" d="M47.8,32.07a3.51,3.51,0,0,0,2.81.82.1.1,0,0,0,.07-.14l-.27-.65a.1.1,0,0,1,.11-.14l.65.08a.1.1,0,0,0,.12-.11,3.5,3.5,0,0,0-1.45-2.45,3.31,3.31,0,0,0-3.41-.64.07.07,0,0,0-.06.07A3.31,3.31,0,0,0,47.8,32.07Z"/><path class="cls-1" d="M28.84,10.2a.1.1,0,0,0-.11.12l.05.5-.44-.19a.09.09,0,0,0-.14.07,2.23,2.23,0,0,0,.44,1.71,2.12,2.12,0,0,0,1.94,1,.08.08,0,0,0,.08-.06,2.09,2.09,0,0,0-.3-2.16A2.27,2.27,0,0,0,28.84,10.2Z"/><path class="cls-1" d="M47.12,24.83a.1.1,0,0,0,.14.08l.47-.2a.1.1,0,0,1,.14.11l-.06.47a.11.11,0,0,0,.12.11,2.84,2.84,0,0,0,2-1.18,2.73,2.73,0,0,0,.52-2.77s0-.06-.08-.06a2.72,2.72,0,0,0-2.56,1.18A2.86,2.86,0,0,0,47.12,24.83Z"/><path class="cls-1" d="M16,16.38a.1.1,0,0,1-.05-.17l.3-.31a.1.1,0,0,0,0-.16,2.72,2.72,0,0,0-2.16-.21,2.57,2.57,0,0,0-1.95,1.81.1.1,0,0,0,0,.09,2.6,2.6,0,0,0,2.61.55,2.7,2.7,0,0,0,1.77-1.34.11.11,0,0,0-.06-.15Z"/><path class="cls-1" d="M49.51,52.7c-1-.2-1.72-.6-1.84-1s.61-.36,1.24-.35.58-.5.13-.94-1.5-.87-1.82-.4c-.14.2-.44.63-.85.5s-.92-1.83-1.15-2.8a.53.53,0,0,1,.2-.55A26.22,26.22,0,1,0,3.5,23.59a.54.54,0,0,1-.11.28,4.09,4.09,0,0,0-.8,2.21.55.55,0,0,1-.2.38A5.42,5.42,0,0,0,0,30.67C0,32.76,2.3,35,5.15,36.56a1.43,1.43,0,0,1,.64.67A26.09,26.09,0,0,0,9,42.5a.51.51,0,0,1,0,.6C8.51,44,7.84,45,7.63,44.92c-.41-.1-.44-.62-.46-.87,0-.57-1.3-.71-1.77-.6s-.9.57-.38.87,1.26.6.89,1-1.17.28-2.12-.07-1.93-.16-2.08.29.79.74,1.59.64a3.07,3.07,0,0,1,1.86.08c.67.34.07.81-1.32.76-1.18,0-2.18.3-1.9.79a2,2,0,0,0,2.47.14c1-.51,2.23-1,2.89-.6S8,49,8,49.53a.74.74,0,0,0,1,.59.89.89,0,0,0,.24-1.4,2.59,2.59,0,0,1-.75-2.09,10.81,10.81,0,0,1,2.29-1.53.53.53,0,0,1,.63.08A26.32,26.32,0,0,0,20,50.65a.52.52,0,0,1,.33.59c-.17.86-.34,1.7-.41,2.13a.68.68,0,0,1-.66.58c-.55,0-1.28-.36-2-.43-1.55-.15-1.38,2.3-.06,1.77.51-.2.89-.57,1.32-.1s.55,1-.5,1.53c-1.25.67-1.64,1.81-1.18,2.21a1.41,1.41,0,0,0,2-.89c.27-1,.9-1.37,1.22-.78s.06.83-.22,1.4-.1,1.33.55,1.34,1-.67.75-1.46S21,57.11,21.46,57s.75.43,1.08.91a.72.72,0,0,0,1.21,0c.23-.31.27-1.29-.47-1.47s-1.6-.78-1.61-1.58c0-.49.8-1.45,1.68-2.73a.53.53,0,0,1,.55-.21,26.57,26.57,0,0,0,5.68.62A26.18,26.18,0,0,0,42.4,49.1a.5.5,0,0,1,.61.07,5.18,5.18,0,0,1,1.68,2.28c0,.45-1,1.24-1.72,1.41a.88.88,0,0,0-.52,1.32.75.75,0,0,0,1.2,0c.31-.41,1.06-1.48,1.78-1.53s1.6,1.08,2.16,2c.68,1.12,1.74,1.39,2.18,1.15s-.18-1.08-1.21-1.66c-1.21-.67-1.49-1.38-.74-1.32a3,3,0,0,1,1.64.88c.63.51,1.57.77,1.69.28S50.51,52.89,49.51,52.7Zm-44.69-29a.9.9,0,0,1,.55.2s0,0-.07.06a1,1,0,0,0-.1,2,1,1,0,0,0,.76,0,.1.1,0,0,1,.14.1c-.07,1-.61,1.83-1.28,1.83s-1.28-.92-1.28-2.05S4.11,23.67,4.82,23.67Zm12,9.65a8.58,8.58,0,0,1-2-.39,13.68,13.68,0,0,0-3.49-.58,13.68,13.68,0,0,0-3.49.58,8.51,8.51,0,0,1-2,.39H5.57A1.93,1.93,0,0,1,4,32.46a2.71,2.71,0,0,1-.22-2,.37.37,0,0,1,.35-.28l.13,0a.37.37,0,0,1,.24.43,2.13,2.13,0,0,0,.12,1.43,1.21,1.21,0,0,0,1,.5h.15a8.68,8.68,0,0,0,1.85-.36,14.26,14.26,0,0,1,3.67-.61,14.42,14.42,0,0,1,3.68.61,8.45,8.45,0,0,0,1.85.36H17a1.19,1.19,0,0,0,1-.5,2,2,0,0,0,.12-1.43.37.37,0,0,1,.23-.42l.14,0a.36.36,0,0,1,.35.28,2.71,2.71,0,0,1-.22,2,1.92,1.92,0,0,1-1.56.85ZM9.5,29.85a.52.52,0,1,1,.51.51A.51.51,0,0,1,9.5,29.85Zm2.6,0a.52.52,0,1,1,.51.51A.51.51,0,0,1,12.1,29.85Zm5.39-4.65a1,1,0,0,0,.68.7,1,1,0,0,0,.75,0,.11.11,0,0,1,.15.1c-.07,1-.61,1.84-1.28,1.84s-1.28-.92-1.28-2.06.57-2.06,1.28-2.06a1,1,0,0,1,.55.2s0,0-.07.06A1,1,0,0,0,17.49,25.2Zm11.75-3.82c-11.3-5.5-4.16-19.52,9.94-12a.46.46,0,0,0,.62-.17.46.46,0,0,0-.15-.62c-4.66-3-10.41-4.66-16-1.73-4.15,2.16-7.88,8.81-2.2,15,5.13,5.54,12.85,9.31,12.27,13.36-.53,3.74-7.1,6-11.84,4.64a6.36,6.36,0,0,1-3.41-2.45,1,1,0,0,1,.27-1.45c2.2-1.5,3.92-3.4,3.92-5.21a5.44,5.44,0,0,0-2.38-4.21.51.51,0,0,1-.2-.38,3.84,3.84,0,0,0-3.59-3.79,3.17,3.17,0,0,0-1.78.55.49.49,0,0,1-.47,0,7.52,7.52,0,0,0-2.89-.56,7.29,7.29,0,0,0-2.88.56.52.52,0,0,1-.47,0,3.42,3.42,0,0,0-1.2-.47.54.54,0,0,1-.4-.62A23.65,23.65,0,1,1,47,42.22h0a.31.31,0,0,1-.52-.29,11,11,0,0,0,.09-4.57C45.7,32.53,43.77,28.45,29.24,21.38Z"/></g></g></svg>